<svg width="748" height="316" viewBox="0 0 748 316" fill="none" xmlns="http://www.w3.org/2000/svg">
<path d="M58.0403 0.638672H186.682V50.4743H149.304V145.891H95.4171V50.4743H58.0403V0.638672ZM259.307 102.336H326.666V145.891H205.319V0.638672H324.64V44.1943H259.307V53.6144H308.029V93.017H259.307V102.336ZM442.95 0.638672L494.812 145.891H436.772L430.491 120.973H395.241L388.961 145.891H330.921L382.782 0.638672H442.95ZM420.159 81.571L412.865 52.5002L405.574 81.571H420.159ZM589.215 46.3213L625.478 0.638672H673.186V145.891H619.298V76.4051L589.215 113.782L559.132 76.4051V145.891H505.143V0.638672H552.852L589.215 46.3213ZM0 166.596H120.335V212.278H53.9887V224.736H103.723V270.319H53.9887V311.848H0V166.596ZM270.551 185.132C286.488 200.19 294.455 218.221 294.455 239.221C294.455 260.223 286.488 278.287 270.551 293.413C254.681 308.472 234.963 316.001 211.396 316.001C187.897 316.001 168.178 308.472 152.242 293.413C136.373 278.287 128.438 260.223 128.438 239.221C128.438 218.221 136.373 200.19 152.242 185.132C168.178 170.005 187.897 162.442 211.396 162.442C234.963 162.442 254.681 170.005 270.551 185.132ZM231.756 259.582C237.563 253.774 240.467 247.021 240.467 239.323C240.467 231.558 237.563 224.771 231.756 218.964C225.948 213.088 219.163 210.151 211.396 210.151C203.698 210.151 196.945 213.088 191.139 218.964C185.33 224.771 182.427 231.558 182.427 239.323C182.427 247.021 185.33 253.774 191.139 259.582C196.945 265.389 203.698 268.293 211.396 268.293C219.163 268.293 225.948 265.389 231.756 259.582ZM425.224 262.013L453.181 311.848H397.165L378.528 272.445H369.208V311.848H315.221V166.596H389.974C407.396 166.596 421.409 171.592 432.011 181.586C442.679 191.514 448.014 204.175 448.014 219.571C448.014 225.243 447.205 230.578 445.583 235.575C444.031 240.504 442.139 244.523 439.911 247.63C437.683 250.735 435.455 253.437 433.226 255.732C431.065 258.028 429.209 259.65 427.655 260.595L425.224 262.013ZM385.821 212.278H369.208V226.762H385.821C388.319 226.762 390.313 226.088 391.798 224.736C393.35 223.319 394.128 221.597 394.128 219.571C394.128 217.478 393.35 215.756 391.798 214.406C390.313 212.986 388.319 212.278 385.821 212.278ZM577.667 253.808L609.879 286.93C609.339 287.741 608.461 288.822 607.246 290.172C606.098 291.454 603.463 293.785 599.345 297.161C595.293 300.47 590.937 303.407 586.278 305.974C581.687 308.539 575.608 310.835 568.045 312.861C560.482 314.955 552.649 316.001 544.545 316.001C521.047 316.001 501.327 308.472 485.392 293.413C469.455 278.287 461.486 260.223 461.486 239.221C461.486 218.221 469.42 200.19 485.29 185.132C501.227 170.005 520.978 162.442 544.545 162.442C552.717 162.442 560.517 163.455 567.943 165.481C575.439 167.507 581.585 169.938 586.38 172.775C591.241 175.61 595.528 178.447 599.243 181.283C603.024 184.118 605.726 186.551 607.346 188.575L609.879 191.514L577.667 224.736C576.724 223.656 575.372 222.306 573.617 220.686C571.928 219.064 568.382 216.904 562.98 214.203C557.578 211.501 552.108 210.151 546.571 210.151C537.86 210.151 530.499 213.021 524.49 218.76C518.48 224.501 515.475 231.321 515.475 239.221C515.475 247.123 518.48 253.943 524.49 259.682C530.499 265.423 537.86 268.293 546.571 268.293C552.108 268.293 557.478 267.078 562.678 264.646C567.876 262.215 571.624 259.817 573.92 257.454L577.667 253.808ZM680.377 268.293H747.737V311.848H626.39V166.596H745.711V210.151H680.377V219.571H729.099V258.974H680.377V268.293Z" fill="#F15A29"/>
</svg>
