<svg width="941" height="428" viewBox="0 0 941 428" fill="none" xmlns="http://www.w3.org/2000/svg">
<path fill-rule="evenodd" clip-rule="evenodd" d="M59.041 111.638H187.683L379.313 1H250.671L59.041 111.638Z" stroke="white" stroke-width="0.3" stroke-linejoin="round"/>
<path fill-rule="evenodd" clip-rule="evenodd" d="M187.682 111.638V161.474L379.312 50.8357V1L187.682 111.638Z" stroke="white" stroke-width="0.3" stroke-linejoin="round"/>
<path fill-rule="evenodd" clip-rule="evenodd" d="M187.682 161.474H150.305L341.935 50.8359H379.313L187.682 161.474Z" stroke="white" stroke-width="0.3" stroke-linejoin="round"/>
<path fill-rule="evenodd" clip-rule="evenodd" d="M150.305 161.474V256.891L341.935 146.253V50.8359L150.305 161.474Z" stroke="white" stroke-width="0.3" stroke-linejoin="round"/>
<path fill-rule="evenodd" clip-rule="evenodd" d="M150.305 256.89H96.418L288.048 146.252H341.936L150.305 256.89Z" stroke="white" stroke-width="0.3" stroke-linejoin="round"/>
<path fill-rule="evenodd" clip-rule="evenodd" d="M96.418 256.891V161.474L288.048 50.8359V146.253L96.418 256.891Z" stroke="white" stroke-width="0.3" stroke-linejoin="round"/>
<path fill-rule="evenodd" clip-rule="evenodd" d="M96.4178 161.474H59.041L250.671 50.8359H288.048L96.4178 161.474Z" stroke="white" stroke-width="0.3" stroke-linejoin="round"/>
<path fill-rule="evenodd" clip-rule="evenodd" d="M59.041 161.474V111.638L250.671 1V50.8357L59.041 161.474Z" stroke="white" stroke-width="0.3" stroke-linejoin="round"/>
<path d="M59.041 111.638V111.638ZM59.041 111.638L250.671 1M250.671 1V1Z" stroke="white" stroke-width="0.3" stroke-linejoin="round"/>
<path fill-rule="evenodd" clip-rule="evenodd" d="M260.307 213.335H327.666L519.297 102.697H451.937L260.307 213.335Z" stroke="white" stroke-width="0.3" stroke-linejoin="round"/>
<path fill-rule="evenodd" clip-rule="evenodd" d="M327.666 213.335V256.891L519.296 146.253V102.697L327.666 213.335Z" stroke="white" stroke-width="0.3" stroke-linejoin="round"/>
<path fill-rule="evenodd" clip-rule="evenodd" d="M327.666 256.89H206.318L397.949 146.252H519.296L327.666 256.89Z" stroke="white" stroke-width="0.3" stroke-linejoin="round"/>
<path fill-rule="evenodd" clip-rule="evenodd" d="M206.318 256.891V111.638L397.949 1V146.253L206.318 256.891Z" stroke="white" stroke-width="0.3" stroke-linejoin="round"/>
<path fill-rule="evenodd" clip-rule="evenodd" d="M206.318 111.638H325.64L517.27 1H397.949L206.318 111.638Z" stroke="white" stroke-width="0.3" stroke-linejoin="round"/>
<path fill-rule="evenodd" clip-rule="evenodd" d="M325.641 111.638V155.193L517.271 44.5556V1L325.641 111.638Z" stroke="white" stroke-width="0.3" stroke-linejoin="round"/>
<path fill-rule="evenodd" clip-rule="evenodd" d="M325.64 155.193H260.307L451.937 44.5547H517.27L325.64 155.193Z" stroke="white" stroke-width="0.3" stroke-linejoin="round"/>
<path fill-rule="evenodd" clip-rule="evenodd" d="M260.307 155.193V164.613L451.937 53.9748V44.5547L260.307 155.193Z" stroke="white" stroke-width="0.3" stroke-linejoin="round"/>
<path fill-rule="evenodd" clip-rule="evenodd" d="M260.307 164.614H309.029L500.659 53.9766H451.937L260.307 164.614Z" stroke="white" stroke-width="0.3" stroke-linejoin="round"/>
<path fill-rule="evenodd" clip-rule="evenodd" d="M309.029 164.614V204.017L500.66 93.3792V53.9766L309.029 164.614Z" stroke="white" stroke-width="0.3" stroke-linejoin="round"/>
<path fill-rule="evenodd" clip-rule="evenodd" d="M309.029 204.017H260.307L451.937 93.3789H500.659L309.029 204.017Z" stroke="white" stroke-width="0.3" stroke-linejoin="round"/>
<path fill-rule="evenodd" clip-rule="evenodd" d="M260.307 204.017V213.336L451.937 102.698V93.3789L260.307 204.017Z" stroke="white" stroke-width="0.3" stroke-linejoin="round"/>
<path d="M260.307 213.335V213.335ZM260.307 213.335L451.937 102.697M451.937 102.697V102.697Z" stroke="white" stroke-width="0.3" stroke-linejoin="round"/>
<path fill-rule="evenodd" clip-rule="evenodd" d="M443.949 111.638L495.811 256.891L687.441 146.253L635.58 1L443.949 111.638Z" stroke="white" stroke-width="0.3" stroke-linejoin="round"/>
<path fill-rule="evenodd" clip-rule="evenodd" d="M495.811 256.89H437.771L629.402 146.252H687.442L495.811 256.89Z" stroke="white" stroke-width="0.3" stroke-linejoin="round"/>
<path fill-rule="evenodd" clip-rule="evenodd" d="M437.771 256.89L431.49 231.972L623.121 121.334L629.401 146.252L437.771 256.89Z" stroke="white" stroke-width="0.3" stroke-linejoin="round"/>
<path fill-rule="evenodd" clip-rule="evenodd" d="M431.492 231.972H396.242L587.873 121.334H623.123L431.492 231.972Z" stroke="white" stroke-width="0.3" stroke-linejoin="round"/>
<path fill-rule="evenodd" clip-rule="evenodd" d="M396.241 231.972L389.961 256.89L581.591 146.252L587.872 121.334L396.241 231.972Z" stroke="white" stroke-width="0.3" stroke-linejoin="round"/>
<path fill-rule="evenodd" clip-rule="evenodd" d="M389.96 256.89H331.92L523.55 146.252H581.59L389.96 256.89Z" stroke="white" stroke-width="0.3" stroke-linejoin="round"/>
<path fill-rule="evenodd" clip-rule="evenodd" d="M331.92 256.891L383.781 111.638L575.412 1L523.55 146.253L331.92 256.891Z" stroke="white" stroke-width="0.3" stroke-linejoin="round"/>
<path fill-rule="evenodd" clip-rule="evenodd" d="M383.783 111.638H443.951L635.582 1H575.414L383.783 111.638Z" stroke="white" stroke-width="0.3" stroke-linejoin="round"/>
<path d="M443.949 111.638V111.638ZM443.949 111.638L635.58 1M635.58 1V1Z" stroke="white" stroke-width="0.3" stroke-linejoin="round"/>
<path fill-rule="evenodd" clip-rule="evenodd" d="M421.159 192.57L413.865 163.499L605.496 52.8613L612.789 81.9321L421.159 192.57Z" stroke="white" stroke-width="0.3" stroke-linejoin="round"/>
<path fill-rule="evenodd" clip-rule="evenodd" d="M413.864 163.499L406.572 192.57L598.203 81.9321L605.494 52.8613L413.864 163.499Z" stroke="white" stroke-width="0.3" stroke-linejoin="round"/>
<path fill-rule="evenodd" clip-rule="evenodd" d="M406.572 192.569H421.157L612.788 81.9316H598.203L406.572 192.569Z" stroke="white" stroke-width="0.3" stroke-linejoin="round"/>
<path d="M421.158 192.569V192.569ZM421.158 192.569L612.789 81.9316M612.789 81.9316V81.9316Z" stroke="white" stroke-width="0.3" stroke-linejoin="round"/>
<path fill-rule="evenodd" clip-rule="evenodd" d="M590.215 157.32L626.478 111.638L818.109 1L781.845 46.6826L590.215 157.32Z" stroke="white" stroke-width="0.3" stroke-linejoin="round"/>
<path fill-rule="evenodd" clip-rule="evenodd" d="M626.479 111.638H674.186L865.816 1H818.109L626.479 111.638Z" stroke="white" stroke-width="0.3" stroke-linejoin="round"/>
<path fill-rule="evenodd" clip-rule="evenodd" d="M674.186 111.638V256.891L865.816 146.253V1L674.186 111.638Z" stroke="white" stroke-width="0.3" stroke-linejoin="round"/>
<path fill-rule="evenodd" clip-rule="evenodd" d="M674.186 256.89H620.299L811.929 146.252H865.817L674.186 256.89Z" stroke="white" stroke-width="0.3" stroke-linejoin="round"/>
<path fill-rule="evenodd" clip-rule="evenodd" d="M620.299 256.89V187.403L811.929 76.7656V146.252L620.299 256.89Z" stroke="white" stroke-width="0.3" stroke-linejoin="round"/>
<path fill-rule="evenodd" clip-rule="evenodd" d="M620.298 187.403L590.215 224.78L781.845 114.142L811.928 76.7656L620.298 187.403Z" stroke="white" stroke-width="0.3" stroke-linejoin="round"/>
<path fill-rule="evenodd" clip-rule="evenodd" d="M590.214 224.78L560.131 187.403L751.761 76.7656L781.844 114.142L590.214 224.78Z" stroke="white" stroke-width="0.3" stroke-linejoin="round"/>
<path fill-rule="evenodd" clip-rule="evenodd" d="M560.131 187.403V256.89L751.761 146.252V76.7656L560.131 187.403Z" stroke="white" stroke-width="0.3" stroke-linejoin="round"/>
<path fill-rule="evenodd" clip-rule="evenodd" d="M560.132 256.89H506.143L697.773 146.252H751.763L560.132 256.89Z" stroke="white" stroke-width="0.3" stroke-linejoin="round"/>
<path fill-rule="evenodd" clip-rule="evenodd" d="M506.143 256.891V111.638L697.773 1V146.253L506.143 256.891Z" stroke="white" stroke-width="0.3" stroke-linejoin="round"/>
<path fill-rule="evenodd" clip-rule="evenodd" d="M506.143 111.638H553.852L745.482 1H697.773L506.143 111.638Z" stroke="white" stroke-width="0.3" stroke-linejoin="round"/>
<path fill-rule="evenodd" clip-rule="evenodd" d="M553.852 111.638L590.215 157.32L781.846 46.6826L745.482 1L553.852 111.638Z" stroke="white" stroke-width="0.3" stroke-linejoin="round"/>
<path d="M590.215 157.321V157.321ZM590.215 157.321L781.845 46.6836M781.845 46.6836V46.6836Z" stroke="white" stroke-width="0.3" stroke-linejoin="round"/>
<path fill-rule="evenodd" clip-rule="evenodd" d="M1 277.595H121.335L312.965 166.957H192.63L1 277.595Z" stroke="white" stroke-width="0.3" stroke-linejoin="round"/>
<path fill-rule="evenodd" clip-rule="evenodd" d="M121.334 277.595V323.276L312.964 212.638V166.957L121.334 277.595Z" stroke="white" stroke-width="0.3" stroke-linejoin="round"/>
<path fill-rule="evenodd" clip-rule="evenodd" d="M121.335 323.277H54.9883L246.619 212.639H312.965L121.335 323.277Z" stroke="white" stroke-width="0.3" stroke-linejoin="round"/>
<path fill-rule="evenodd" clip-rule="evenodd" d="M54.9883 323.277V335.735L246.619 225.098V212.639L54.9883 323.277Z" stroke="white" stroke-width="0.3" stroke-linejoin="round"/>
<path fill-rule="evenodd" clip-rule="evenodd" d="M54.9883 335.735H104.723L296.353 225.098H246.619L54.9883 335.735Z" stroke="white" stroke-width="0.3" stroke-linejoin="round"/>
<path fill-rule="evenodd" clip-rule="evenodd" d="M104.723 335.735V381.318L296.353 270.68V225.098L104.723 335.735Z" stroke="white" stroke-width="0.3" stroke-linejoin="round"/>
<path fill-rule="evenodd" clip-rule="evenodd" d="M104.723 381.318H54.9883L246.619 270.68H296.353L104.723 381.318Z" stroke="white" stroke-width="0.3" stroke-linejoin="round"/>
<path fill-rule="evenodd" clip-rule="evenodd" d="M54.9883 381.318V422.846L246.619 312.209V270.68L54.9883 381.318Z" stroke="white" stroke-width="0.3" stroke-linejoin="round"/>
<path fill-rule="evenodd" clip-rule="evenodd" d="M54.9887 422.847H1L192.63 312.209H246.619L54.9887 422.847Z" stroke="white" stroke-width="0.3" stroke-linejoin="round"/>
<path fill-rule="evenodd" clip-rule="evenodd" d="M1 422.847V277.595L192.63 166.957V312.209L1 422.847Z" stroke="white" stroke-width="0.3" stroke-linejoin="round"/>
<path d="M1 277.595V277.595ZM1 277.595L192.63 166.957M192.63 166.957V166.957Z" stroke="white" stroke-width="0.3" stroke-linejoin="round"/>
<path d="M271.551 296.132V296.132ZM271.551 296.132L463.181 185.494M463.181 185.494V185.494Z" stroke="white" stroke-width="0.3" stroke-linejoin="round"/>
<path d="M232.756 370.581V370.581ZM232.756 370.581L424.386 259.943M424.386 259.943V259.943Z" stroke="white" stroke-width="0.3" stroke-linejoin="round"/>
<path fill-rule="evenodd" clip-rule="evenodd" d="M426.225 373.011L454.181 422.846L645.812 312.208L617.855 262.373L426.225 373.011Z" stroke="white" stroke-width="0.3" stroke-linejoin="round"/>
<path fill-rule="evenodd" clip-rule="evenodd" d="M454.182 422.847H398.166L589.796 312.209H645.812L454.182 422.847Z" stroke="white" stroke-width="0.3" stroke-linejoin="round"/>
<path fill-rule="evenodd" clip-rule="evenodd" d="M398.165 422.847L379.527 383.444L571.158 272.807L589.795 312.209L398.165 422.847Z" stroke="white" stroke-width="0.3" stroke-linejoin="round"/>
<path fill-rule="evenodd" clip-rule="evenodd" d="M379.528 383.444H370.209L561.839 272.807H571.159L379.528 383.444Z" stroke="white" stroke-width="0.3" stroke-linejoin="round"/>
<path fill-rule="evenodd" clip-rule="evenodd" d="M370.209 383.444V422.847L561.839 312.209V272.807L370.209 383.444Z" stroke="white" stroke-width="0.3" stroke-linejoin="round"/>
<path fill-rule="evenodd" clip-rule="evenodd" d="M370.209 422.847H316.221L507.851 312.209H561.839L370.209 422.847Z" stroke="white" stroke-width="0.3" stroke-linejoin="round"/>
<path fill-rule="evenodd" clip-rule="evenodd" d="M316.221 422.847V277.595L507.851 166.957V312.209L316.221 422.847Z" stroke="white" stroke-width="0.3" stroke-linejoin="round"/>
<path fill-rule="evenodd" clip-rule="evenodd" d="M316.221 277.595H390.974L582.604 166.957H507.851L316.221 277.595Z" stroke="white" stroke-width="0.3" stroke-linejoin="round"/>
<path fill-rule="evenodd" clip-rule="evenodd" d="M428.655 371.593L426.225 373.01L617.855 262.373L620.286 260.955L428.655 371.593Z" stroke="white" stroke-width="0.3" stroke-linejoin="round"/>
<path d="M426.225 373.011V373.011ZM426.225 373.011L617.855 262.373M617.855 262.373V262.373Z" stroke="white" stroke-width="0.3" stroke-linejoin="round"/>
<path fill-rule="evenodd" clip-rule="evenodd" d="M386.822 323.277H370.209L561.839 212.639H578.452L386.822 323.277Z" stroke="white" stroke-width="0.3" stroke-linejoin="round"/>
<path fill-rule="evenodd" clip-rule="evenodd" d="M370.209 323.277V337.761L561.839 227.124V212.639L370.209 323.277Z" stroke="white" stroke-width="0.3" stroke-linejoin="round"/>
<path fill-rule="evenodd" clip-rule="evenodd" d="M370.209 337.763H386.822L578.452 227.125H561.839L370.209 337.763Z" stroke="white" stroke-width="0.3" stroke-linejoin="round"/>
<path d="M386.82 323.277V323.277ZM386.82 323.277L578.451 212.639M578.451 212.639V212.639Z" stroke="white" stroke-width="0.3" stroke-linejoin="round"/>
<path fill-rule="evenodd" clip-rule="evenodd" d="M578.668 364.808L610.879 397.93L802.51 287.292L770.298 254.17L578.668 364.808Z" stroke="white" stroke-width="0.3" stroke-linejoin="round"/>
<path fill-rule="evenodd" clip-rule="evenodd" d="M608.348 299.575L610.88 302.514L802.511 191.876L799.978 188.938L608.348 299.575Z" stroke="white" stroke-width="0.3" stroke-linejoin="round"/>
<path fill-rule="evenodd" clip-rule="evenodd" d="M610.879 302.513L578.668 335.735L770.298 225.097L802.51 191.875L610.879 302.513Z" stroke="white" stroke-width="0.3" stroke-linejoin="round"/>
<path fill-rule="evenodd" clip-rule="evenodd" d="M574.92 368.454L578.668 364.808L770.298 254.17L766.55 257.816L574.92 368.454Z" stroke="white" stroke-width="0.3" stroke-linejoin="round"/>
<path d="M578.668 364.808V364.808ZM578.668 364.808L770.298 254.17M770.298 254.17V254.17Z" stroke="white" stroke-width="0.3" stroke-linejoin="round"/>
<path fill-rule="evenodd" clip-rule="evenodd" d="M681.379 379.292H748.738L940.369 268.654H873.009L681.379 379.292Z" stroke="white" stroke-width="0.3" stroke-linejoin="round"/>
<path fill-rule="evenodd" clip-rule="evenodd" d="M748.738 379.292V422.847L940.369 312.209V268.654L748.738 379.292Z" stroke="white" stroke-width="0.3" stroke-linejoin="round"/>
<path fill-rule="evenodd" clip-rule="evenodd" d="M748.736 422.847H627.389L819.019 312.209H940.366L748.736 422.847Z" stroke="white" stroke-width="0.3" stroke-linejoin="round"/>
<path fill-rule="evenodd" clip-rule="evenodd" d="M627.389 422.847V277.595L819.019 166.957V312.209L627.389 422.847Z" stroke="white" stroke-width="0.3" stroke-linejoin="round"/>
<path fill-rule="evenodd" clip-rule="evenodd" d="M627.389 277.595H746.71L938.34 166.957H819.019L627.389 277.595Z" stroke="white" stroke-width="0.3" stroke-linejoin="round"/>
<path fill-rule="evenodd" clip-rule="evenodd" d="M746.711 277.595V321.15L938.341 210.512V166.957L746.711 277.595Z" stroke="white" stroke-width="0.3" stroke-linejoin="round"/>
<path fill-rule="evenodd" clip-rule="evenodd" d="M746.712 321.15H681.379L873.009 210.512H938.343L746.712 321.15Z" stroke="white" stroke-width="0.3" stroke-linejoin="round"/>
<path fill-rule="evenodd" clip-rule="evenodd" d="M681.379 321.15V330.569L873.009 219.931V210.512L681.379 321.15Z" stroke="white" stroke-width="0.3" stroke-linejoin="round"/>
<path fill-rule="evenodd" clip-rule="evenodd" d="M681.379 330.569H730.101L921.731 219.932H873.009L681.379 330.569Z" stroke="white" stroke-width="0.3" stroke-linejoin="round"/>
<path fill-rule="evenodd" clip-rule="evenodd" d="M730.1 330.569V369.972L921.73 259.334V219.932L730.1 330.569Z" stroke="white" stroke-width="0.3" stroke-linejoin="round"/>
<path fill-rule="evenodd" clip-rule="evenodd" d="M730.101 369.974H681.379L873.009 259.336H921.731L730.101 369.974Z" stroke="white" stroke-width="0.3" stroke-linejoin="round"/>
<path fill-rule="evenodd" clip-rule="evenodd" d="M681.379 369.974V379.293L873.009 268.655V259.336L681.379 369.974Z" stroke="white" stroke-width="0.3" stroke-linejoin="round"/>
<path d="M681.379 379.292V379.292ZM681.379 379.292L873.009 268.654M873.009 268.654V268.654Z" stroke="white" stroke-width="0.3" stroke-linejoin="round"/>
<path fill-rule="evenodd" clip-rule="evenodd" d="M271.551 296.132C287.488 311.191 295.455 329.221 295.455 350.222L487.086 239.584C487.086 218.583 479.118 200.553 463.181 185.494L271.551 296.132Z" stroke="white" stroke-width="0.3" stroke-linejoin="round"/>
<path fill-rule="evenodd" clip-rule="evenodd" d="M295.455 350.222C295.455 371.224 287.488 389.287 271.551 404.414L463.181 293.776C479.118 278.65 487.086 260.586 487.086 239.584L295.455 350.222Z" stroke="white" stroke-width="0.3" stroke-linejoin="round"/>
<path fill-rule="evenodd" clip-rule="evenodd" d="M271.55 404.411C266.789 408.929 261.682 412.769 256.229 415.931L447.859 305.293C453.313 302.131 458.42 298.291 463.181 293.773L271.55 404.411Z" stroke="white" stroke-width="0.3" stroke-linejoin="round"/>
<path fill-rule="evenodd" clip-rule="evenodd" d="M256.23 415.933C243.505 423.311 228.894 427 212.396 427L404.027 316.362C420.524 316.362 435.135 312.674 447.86 305.295L256.23 415.933Z" stroke="white" stroke-width="0.3" stroke-linejoin="round"/>
<path fill-rule="evenodd" clip-rule="evenodd" d="M212.396 426.999C188.897 426.999 169.178 419.47 153.242 404.411L344.873 293.773C360.808 308.832 380.528 316.361 404.026 316.361L212.396 426.999Z" stroke="white" stroke-width="0.3" stroke-linejoin="round"/>
<path fill-rule="evenodd" clip-rule="evenodd" d="M153.241 404.414C137.372 389.287 129.438 371.224 129.438 350.222L321.068 239.584C321.068 260.586 329.002 278.65 344.872 293.776L153.241 404.414Z" stroke="white" stroke-width="0.3" stroke-linejoin="round"/>
<path fill-rule="evenodd" clip-rule="evenodd" d="M129.438 350.222C129.438 329.221 137.372 311.191 153.241 296.132L344.872 185.494C329.002 200.553 321.068 218.583 321.068 239.584L129.438 350.222Z" stroke="white" stroke-width="0.3" stroke-linejoin="round"/>
<path fill-rule="evenodd" clip-rule="evenodd" d="M153.242 296.131C158.023 291.593 163.144 287.736 168.606 284.56L360.236 173.922C354.775 177.098 349.653 180.956 344.873 185.493L153.242 296.131Z" stroke="white" stroke-width="0.3" stroke-linejoin="round"/>
<path fill-rule="evenodd" clip-rule="evenodd" d="M168.604 284.56C181.347 277.148 195.945 273.443 212.394 273.443L404.024 162.805C387.575 162.805 372.978 166.511 360.234 173.922L168.604 284.56Z" stroke="white" stroke-width="0.3" stroke-linejoin="round"/>
<path fill-rule="evenodd" clip-rule="evenodd" d="M212.396 273.443C235.964 273.443 255.682 281.006 271.551 296.132L463.182 185.494C447.312 170.368 427.595 162.805 404.027 162.805L212.396 273.443Z" stroke="white" stroke-width="0.3" stroke-linejoin="round"/>
<path fill-rule="evenodd" clip-rule="evenodd" d="M232.756 370.58C238.563 364.772 241.467 358.019 241.467 350.321L433.097 239.684C433.097 247.382 430.193 254.134 424.386 259.942L232.756 370.58Z" stroke="white" stroke-width="0.3" stroke-linejoin="round"/>
<path fill-rule="evenodd" clip-rule="evenodd" d="M241.467 350.321C241.467 342.556 238.563 335.769 232.756 329.962L424.386 219.324C430.193 225.131 433.097 231.918 433.097 239.683L241.467 350.321Z" stroke="white" stroke-width="0.3" stroke-linejoin="round"/>
<path fill-rule="evenodd" clip-rule="evenodd" d="M232.757 329.963C226.949 324.087 220.164 321.15 212.396 321.15L404.027 210.512C411.794 210.512 418.579 213.449 424.388 219.325L232.757 329.963Z" stroke="white" stroke-width="0.3" stroke-linejoin="round"/>
<path fill-rule="evenodd" clip-rule="evenodd" d="M212.396 321.15C207.546 321.15 203.072 322.315 198.973 324.647L390.603 214.009C394.702 211.677 399.177 210.512 404.026 210.512L212.396 321.15Z" stroke="white" stroke-width="0.3" stroke-linejoin="round"/>
<path fill-rule="evenodd" clip-rule="evenodd" d="M198.973 324.648C196.565 326.017 194.287 327.789 192.139 329.963L383.769 219.325C385.918 217.151 388.196 215.379 390.603 214.01L198.973 324.648Z" stroke="white" stroke-width="0.3" stroke-linejoin="round"/>
<path fill-rule="evenodd" clip-rule="evenodd" d="M192.139 329.962C186.33 335.769 183.428 342.556 183.428 350.321L375.058 239.683C375.058 231.918 377.961 225.131 383.769 219.324L192.139 329.962Z" stroke="white" stroke-width="0.3" stroke-linejoin="round"/>
<path fill-rule="evenodd" clip-rule="evenodd" d="M183.428 350.321C183.428 358.019 186.33 364.772 192.139 370.58L383.769 259.942C377.961 254.134 375.058 247.382 375.058 239.684L183.428 350.321Z" stroke="white" stroke-width="0.3" stroke-linejoin="round"/>
<path fill-rule="evenodd" clip-rule="evenodd" d="M192.139 370.581C197.945 376.388 204.698 379.292 212.396 379.292L404.026 268.654C396.328 268.654 389.576 265.75 383.769 259.943L192.139 370.581Z" stroke="white" stroke-width="0.3" stroke-linejoin="round"/>
<path fill-rule="evenodd" clip-rule="evenodd" d="M212.396 379.292C217.367 379.292 221.936 378.102 226.104 375.724L417.735 265.086C413.567 267.465 408.998 268.654 404.027 268.654L212.396 379.292Z" stroke="white" stroke-width="0.3" stroke-linejoin="round"/>
<path fill-rule="evenodd" clip-rule="evenodd" d="M226.105 375.724C228.45 374.386 230.668 372.672 232.759 370.581L424.389 259.943C422.298 262.034 420.08 263.748 417.736 265.086L226.105 375.724Z" stroke="white" stroke-width="0.3" stroke-linejoin="round"/>
<path fill-rule="evenodd" clip-rule="evenodd" d="M390.975 277.595C408.397 277.595 422.41 282.591 433.012 292.585L624.642 181.947C614.04 171.953 600.027 166.957 582.605 166.957L390.975 277.595Z" stroke="white" stroke-width="0.3" stroke-linejoin="round"/>
<path fill-rule="evenodd" clip-rule="evenodd" d="M433.01 292.585C443.678 302.513 449.012 315.174 449.012 330.57L640.643 219.932C640.643 204.536 635.308 191.875 624.64 181.947L433.01 292.585Z" stroke="white" stroke-width="0.3" stroke-linejoin="round"/>
<path fill-rule="evenodd" clip-rule="evenodd" d="M449.015 330.569C449.015 336.241 448.206 341.576 446.584 346.574L638.214 235.936C639.836 230.938 640.645 225.604 640.645 219.932L449.015 330.569Z" stroke="white" stroke-width="0.3" stroke-linejoin="round"/>
<path fill-rule="evenodd" clip-rule="evenodd" d="M446.582 346.575C445.03 351.504 443.138 355.523 440.91 358.63L632.541 247.992C634.769 244.885 636.66 240.866 638.213 235.938L446.582 346.575Z" stroke="white" stroke-width="0.3" stroke-linejoin="round"/>
<path fill-rule="evenodd" clip-rule="evenodd" d="M440.912 358.628C438.683 361.733 436.455 364.435 434.227 366.731L625.857 256.093C628.085 253.797 630.314 251.095 632.542 247.99L440.912 358.628Z" stroke="white" stroke-width="0.3" stroke-linejoin="round"/>
<path fill-rule="evenodd" clip-rule="evenodd" d="M434.226 366.732C432.065 369.027 430.208 370.649 428.654 371.594L620.285 260.957C621.839 260.011 623.696 258.389 625.856 256.094L434.226 366.732Z" stroke="white" stroke-width="0.3" stroke-linejoin="round"/>
<path fill-rule="evenodd" clip-rule="evenodd" d="M386.82 337.76C388.669 337.76 390.241 337.391 391.535 336.652L583.166 226.014C581.871 226.753 580.299 227.123 578.451 227.123L386.82 337.76Z" stroke="white" stroke-width="0.3" stroke-linejoin="round"/>
<path fill-rule="evenodd" clip-rule="evenodd" d="M391.535 336.653C391.99 336.393 392.41 336.087 392.796 335.735L584.427 225.098C584.041 225.449 583.62 225.755 583.166 226.015L391.535 336.653Z" stroke="white" stroke-width="0.3" stroke-linejoin="round"/>
<path fill-rule="evenodd" clip-rule="evenodd" d="M392.797 335.735C394.349 334.317 395.127 332.596 395.127 330.569L586.758 219.932C586.758 221.958 585.98 223.679 584.427 225.097L392.797 335.735Z" stroke="white" stroke-width="0.3" stroke-linejoin="round"/>
<path fill-rule="evenodd" clip-rule="evenodd" d="M395.127 330.569C395.127 328.475 394.349 326.754 392.797 325.403L584.427 214.766C585.98 216.116 586.758 217.838 586.758 219.931L395.127 330.569Z" stroke="white" stroke-width="0.3" stroke-linejoin="round"/>
<path fill-rule="evenodd" clip-rule="evenodd" d="M392.796 325.405C391.312 323.985 389.318 323.277 386.82 323.277L578.451 212.639C580.949 212.639 582.942 213.347 584.427 214.767L392.796 325.405Z" stroke="white" stroke-width="0.3" stroke-linejoin="round"/>
<path fill-rule="evenodd" clip-rule="evenodd" d="M610.879 397.929C610.34 398.74 609.461 399.82 608.246 401.17L799.877 290.532C801.092 289.182 801.97 288.102 802.509 287.291L610.879 397.929Z" stroke="white" stroke-width="0.3" stroke-linejoin="round"/>
<path fill-rule="evenodd" clip-rule="evenodd" d="M608.244 401.171C607.096 402.454 604.462 404.784 600.344 408.16L791.974 297.522C796.092 294.146 798.727 291.816 799.874 290.533L608.244 401.171Z" stroke="white" stroke-width="0.3" stroke-linejoin="round"/>
<path fill-rule="evenodd" clip-rule="evenodd" d="M600.347 408.159C596.781 411.071 592.979 413.695 588.943 416.032L780.574 305.394C784.61 303.057 788.411 300.433 791.977 297.521L600.347 408.159Z" stroke="white" stroke-width="0.3" stroke-linejoin="round"/>
<path fill-rule="evenodd" clip-rule="evenodd" d="M588.941 416.034C588.391 416.353 587.836 416.666 587.277 416.974L778.908 306.337C779.467 306.029 780.022 305.715 780.572 305.396L588.941 416.034Z" stroke="white" stroke-width="0.3" stroke-linejoin="round"/>
<path fill-rule="evenodd" clip-rule="evenodd" d="M587.278 416.972C582.686 419.537 576.608 421.833 569.045 423.859L760.675 313.221C768.239 311.195 774.317 308.899 778.908 306.334L587.278 416.972Z" stroke="white" stroke-width="0.3" stroke-linejoin="round"/>
<path fill-rule="evenodd" clip-rule="evenodd" d="M569.045 423.861C561.482 425.954 553.649 427 545.545 427L737.175 316.362C745.28 316.362 753.112 315.316 760.676 313.223L569.045 423.861Z" stroke="white" stroke-width="0.3" stroke-linejoin="round"/>
<path fill-rule="evenodd" clip-rule="evenodd" d="M545.544 426.999C522.045 426.999 502.326 419.47 486.391 404.411L678.021 293.773C693.956 308.832 713.676 316.361 737.174 316.361L545.544 426.999Z" stroke="white" stroke-width="0.3" stroke-linejoin="round"/>
<path fill-rule="evenodd" clip-rule="evenodd" d="M486.393 404.414C470.456 389.287 462.486 371.224 462.486 350.222L654.117 239.584C654.117 260.586 662.086 278.65 678.023 293.776L486.393 404.414Z" stroke="white" stroke-width="0.3" stroke-linejoin="round"/>
<path fill-rule="evenodd" clip-rule="evenodd" d="M462.486 350.222C462.486 329.221 470.421 311.191 486.291 296.132L677.921 185.494C662.052 200.553 654.117 218.583 654.117 239.584L462.486 350.222Z" stroke="white" stroke-width="0.3" stroke-linejoin="round"/>
<path fill-rule="evenodd" clip-rule="evenodd" d="M486.289 296.131C491.07 291.593 496.195 287.736 501.662 284.56L693.293 173.922C687.825 177.098 682.701 180.956 677.92 185.493L486.289 296.131Z" stroke="white" stroke-width="0.3" stroke-linejoin="round"/>
<path fill-rule="evenodd" clip-rule="evenodd" d="M501.662 284.56C514.42 277.148 529.047 273.443 545.544 273.443L737.175 162.805C720.677 162.805 706.05 166.511 693.293 173.922L501.662 284.56Z" stroke="white" stroke-width="0.3" stroke-linejoin="round"/>
<path fill-rule="evenodd" clip-rule="evenodd" d="M545.545 273.443C553.717 273.443 561.517 274.456 568.943 276.482L760.574 165.844C753.147 163.818 745.347 162.805 737.175 162.805L545.545 273.443Z" stroke="white" stroke-width="0.3" stroke-linejoin="round"/>
<path fill-rule="evenodd" clip-rule="evenodd" d="M568.943 276.48C576.439 278.506 582.585 280.936 587.38 283.773L779.011 173.135C774.215 170.298 768.07 167.868 760.574 165.842L568.943 276.48Z" stroke="white" stroke-width="0.3" stroke-linejoin="round"/>
<path fill-rule="evenodd" clip-rule="evenodd" d="M587.379 283.773C592.24 286.608 596.527 289.445 600.242 292.281L791.873 181.644C788.158 178.807 783.871 175.97 779.009 173.135L587.379 283.773Z" stroke="white" stroke-width="0.3" stroke-linejoin="round"/>
<path fill-rule="evenodd" clip-rule="evenodd" d="M600.244 292.282C604.025 295.117 606.727 297.55 608.347 299.574L799.977 188.936C798.357 186.912 795.655 184.48 791.875 181.645L600.244 292.282Z" stroke="white" stroke-width="0.3" stroke-linejoin="round"/>
<path fill-rule="evenodd" clip-rule="evenodd" d="M578.668 335.735C577.724 334.655 576.372 333.305 574.617 331.685L766.248 221.047C768.002 222.667 769.354 224.017 770.298 225.097L578.668 335.735Z" stroke="white" stroke-width="0.3" stroke-linejoin="round"/>
<path fill-rule="evenodd" clip-rule="evenodd" d="M574.617 331.685C572.928 330.063 569.383 327.903 563.98 325.202L755.611 214.564C761.013 217.265 764.559 219.426 766.248 221.047L574.617 331.685Z" stroke="white" stroke-width="0.3" stroke-linejoin="round"/>
<path fill-rule="evenodd" clip-rule="evenodd" d="M563.981 325.202C558.579 322.5 553.109 321.15 547.572 321.15L739.203 210.512C744.74 210.512 750.209 211.862 755.612 214.564L563.981 325.202Z" stroke="white" stroke-width="0.3" stroke-linejoin="round"/>
<path fill-rule="evenodd" clip-rule="evenodd" d="M547.573 321.15C541.649 321.15 536.35 322.476 531.676 325.13L723.306 214.493C727.981 211.839 733.28 210.512 739.203 210.512L547.573 321.15Z" stroke="white" stroke-width="0.3" stroke-linejoin="round"/>
<path fill-rule="evenodd" clip-rule="evenodd" d="M531.674 325.13C529.474 326.379 527.413 327.922 525.49 329.758L717.121 219.12C719.044 217.284 721.105 215.741 723.305 214.492L531.674 325.13Z" stroke="white" stroke-width="0.3" stroke-linejoin="round"/>
<path fill-rule="evenodd" clip-rule="evenodd" d="M525.49 329.761C519.479 335.502 516.475 342.322 516.475 350.222L708.105 239.584C708.105 231.684 711.11 224.864 717.12 219.123L525.49 329.761Z" stroke="white" stroke-width="0.3" stroke-linejoin="round"/>
<path fill-rule="evenodd" clip-rule="evenodd" d="M516.475 350.222C516.475 358.124 519.479 364.944 525.49 370.683L717.12 260.045C711.11 254.306 708.105 247.486 708.105 239.584L516.475 350.222Z" stroke="white" stroke-width="0.3" stroke-linejoin="round"/>
<path fill-rule="evenodd" clip-rule="evenodd" d="M525.49 370.683C531.499 376.424 538.86 379.294 547.571 379.294L739.202 268.656C730.491 268.656 723.13 265.786 717.121 260.045L525.49 370.683Z" stroke="white" stroke-width="0.3" stroke-linejoin="round"/>
<path fill-rule="evenodd" clip-rule="evenodd" d="M547.572 379.293C553.109 379.293 558.479 378.078 563.679 375.646L755.309 265.008C750.109 267.44 744.74 268.655 739.203 268.655L547.572 379.293Z" stroke="white" stroke-width="0.3" stroke-linejoin="round"/>
<path fill-rule="evenodd" clip-rule="evenodd" d="M563.678 375.647C565.497 374.796 567.139 373.949 568.603 373.107L760.233 262.469C758.769 263.311 757.128 264.158 755.308 265.009L563.678 375.647Z" stroke="white" stroke-width="0.3" stroke-linejoin="round"/>
<path fill-rule="evenodd" clip-rule="evenodd" d="M568.604 373.106C571.322 371.541 573.428 369.99 574.92 368.454L766.551 257.816C765.059 259.352 762.953 260.903 760.234 262.468L568.604 373.106Z" stroke="white" stroke-width="0.3" stroke-linejoin="round"/>
</svg>
