<svg width="86" height="86" viewBox="0 0 86 86" fill="none" xmlns="http://www.w3.org/2000/svg">
<path fill-rule="evenodd" clip-rule="evenodd" d="M64.5492 12.3988C65.3185 13.4322 66.9732 16.951 67.77 18.7395L67.78 18.7352L77.6008 42.146C81.6771 51.8633 78.0817 60.4956 68.4513 64.5354L44.6639 74.514C34.9424 78.5921 26.3767 75.206 22.3274 65.5533L12.428 41.955L64.6818 20.0349L12.4388 41.95C11.7198 40.1253 10.3573 36.4514 10.169 35.2105C8.93116 28.1718 12.2037 21.9207 18.9622 18.3588L46.3649 6.86376C53.6899 4.48177 60.3704 6.52515 64.5492 12.3988Z" fill="url(#paint0_linear_718_12381)"/>
<g opacity="0.5" filter="url(#filter0_f_718_12381)">
<path d="M31.179 23.4497L46.5257 17.2553C52.0924 15.0084 56.763 17.2417 59.2123 23.31L67.508 43.8626C69.9975 50.0304 68.1537 54.8006 62.5871 57.0474L47.2403 63.2418C41.5839 65.5249 37.037 63.3343 34.5475 57.1665L26.2519 36.6138C23.8025 30.5455 25.5226 25.7328 31.179 23.4497Z" fill="#F15A29"/>
</g>
<g filter="url(#filter1_b_718_12381)">
<mask id="path-3-outside-1_718_12381" maskUnits="userSpaceOnUse" x="0.54834" y="22.2656" width="62" height="64" fill="black">
<rect fill="white" x="0.54834" y="22.2656" width="62" height="64"/>
<path fill-rule="evenodd" clip-rule="evenodd" d="M61.0202 35.4041C61.3298 36.6546 61.4946 40.5396 61.5374 42.4971H1.53518C1.57801 40.5362 1.74273 36.6212 2.04912 35.4041C3.63047 28.4345 9.06634 23.9359 16.6766 23.2656H46.3927C54.0688 23.9026 59.4388 28.3711 61.0202 35.4041ZM61.5483 42.4996V67.8869C61.5483 78.4247 54.8935 84.9941 44.45 84.9941H18.6543C8.11201 84.9941 1.52307 78.5581 1.52307 68.0903V42.4996H61.5483ZM47.8434 57.0192C47.7775 58.5498 46.5256 59.7537 45.0102 59.6837C43.5277 59.6203 42.3417 58.3531 42.4076 56.8158C42.4405 55.3185 43.6594 54.148 45.142 54.148C46.6574 54.218 47.8434 55.4852 47.8434 57.0192ZM34.3034 57.0192C34.2375 58.5498 32.9856 59.7537 31.4702 59.6837C29.9877 59.6203 28.8017 58.3531 28.8675 56.8158C28.9005 55.3185 30.1194 54.148 31.602 54.148C33.1174 54.218 34.3034 55.4852 34.3034 57.0192ZM20.7628 69.1198C20.7628 70.6538 19.5438 71.921 18.0284 71.9543C16.48 71.9543 15.2281 70.6871 15.2281 69.1198C15.2281 67.5558 16.48 66.2886 18.0284 66.2886H18.0613C19.5768 66.322 20.7957 67.5858 20.7628 69.1198ZM31.4693 71.7901C32.9848 71.8601 34.2367 70.6563 34.3026 69.1223C34.3026 67.5883 33.1166 66.3245 31.6011 66.2544C30.1186 66.2544 28.8996 67.4249 28.8667 68.9256C28.8008 70.4595 29.9868 71.7267 31.4693 71.7901ZM45.0435 71.7901C46.559 71.8601 47.8109 70.6563 47.8767 69.1223C47.8767 67.5883 46.6907 66.3245 45.1753 66.2544C43.6928 66.2544 42.4738 67.4249 42.4409 68.9256C42.375 70.4595 43.561 71.7267 45.0435 71.7901ZM18.0284 54.1879C19.5438 54.2212 20.7298 55.4551 20.7298 56.989V57.0224C20.6969 58.553 19.445 59.7202 17.9295 59.6869C16.447 59.6568 15.261 58.3896 15.2939 56.8557C15.3598 55.385 16.5458 54.1879 18.0284 54.1879Z"/>
</mask>
<path fill-rule="evenodd" clip-rule="evenodd" d="M61.0202 35.4041C61.3298 36.6546 61.4946 40.5396 61.5374 42.4971H1.53518C1.57801 40.5362 1.74273 36.6212 2.04912 35.4041C3.63047 28.4345 9.06634 23.9359 16.6766 23.2656H46.3927C54.0688 23.9026 59.4388 28.3711 61.0202 35.4041ZM61.5483 42.4996V67.8869C61.5483 78.4247 54.8935 84.9941 44.45 84.9941H18.6543C8.11201 84.9941 1.52307 78.5581 1.52307 68.0903V42.4996H61.5483ZM47.8434 57.0192C47.7775 58.5498 46.5256 59.7537 45.0102 59.6837C43.5277 59.6203 42.3417 58.3531 42.4076 56.8158C42.4405 55.3185 43.6594 54.148 45.142 54.148C46.6574 54.218 47.8434 55.4852 47.8434 57.0192ZM34.3034 57.0192C34.2375 58.5498 32.9856 59.7537 31.4702 59.6837C29.9877 59.6203 28.8017 58.3531 28.8675 56.8158C28.9005 55.3185 30.1194 54.148 31.602 54.148C33.1174 54.218 34.3034 55.4852 34.3034 57.0192ZM20.7628 69.1198C20.7628 70.6538 19.5438 71.921 18.0284 71.9543C16.48 71.9543 15.2281 70.6871 15.2281 69.1198C15.2281 67.5558 16.48 66.2886 18.0284 66.2886H18.0613C19.5768 66.322 20.7957 67.5858 20.7628 69.1198ZM31.4693 71.7901C32.9848 71.8601 34.2367 70.6563 34.3026 69.1223C34.3026 67.5883 33.1166 66.3245 31.6011 66.2544C30.1186 66.2544 28.8996 67.4249 28.8667 68.9256C28.8008 70.4595 29.9868 71.7267 31.4693 71.7901ZM45.0435 71.7901C46.559 71.8601 47.8109 70.6563 47.8767 69.1223C47.8767 67.5883 46.6907 66.3245 45.1753 66.2544C43.6928 66.2544 42.4738 67.4249 42.4409 68.9256C42.375 70.4595 43.561 71.7267 45.0435 71.7901ZM18.0284 54.1879C19.5438 54.2212 20.7298 55.4551 20.7298 56.989V57.0224C20.6969 58.553 19.445 59.7202 17.9295 59.6869C16.447 59.6568 15.261 58.3896 15.2939 56.8557C15.3598 55.385 16.5458 54.1879 18.0284 54.1879Z" fill="#F15A29" fill-opacity="0.35"/>
<path d="M61.5374 42.4971L62.3636 42.479C62.3684 42.7012 62.2836 42.9161 62.1281 43.075C61.9726 43.2339 61.7597 43.3234 61.5374 43.3234V42.4971ZM61.0202 35.4041L60.218 35.6027C60.2166 35.5969 60.2152 35.5912 60.2139 35.5854L61.0202 35.4041ZM1.53518 42.4971V43.3234C1.31288 43.3234 1.09996 43.2339 0.944489 43.075C0.789024 42.9161 0.704132 42.7013 0.708988 42.479L1.53518 42.4971ZM2.04912 35.4041L2.85503 35.5869C2.8536 35.5932 2.85209 35.5995 2.85051 35.6058L2.04912 35.4041ZM16.6766 23.2656L16.6041 22.4424C16.6282 22.4403 16.6524 22.4392 16.6766 22.4392V23.2656ZM46.3927 23.2656V22.4392C46.4155 22.4392 46.4383 22.4402 46.461 22.4421L46.3927 23.2656ZM61.5483 42.4996V41.6732C62.0047 41.6732 62.3747 42.0431 62.3747 42.4996H61.5483ZM1.52307 42.4996H0.696674C0.696674 42.0431 1.06666 41.6732 1.52307 41.6732V42.4996ZM45.0102 59.6837L45.0455 58.858L45.0483 58.8581L45.0102 59.6837ZM47.8434 57.0192H48.6698C48.6698 57.0311 48.6696 57.0429 48.6691 57.0547L47.8434 57.0192ZM42.4076 56.8158L43.2337 56.834C43.2336 56.8397 43.2334 56.8454 43.2332 56.8512L42.4076 56.8158ZM45.142 54.148V53.3216C45.1547 53.3216 45.1674 53.3219 45.1801 53.3225L45.142 54.148ZM31.4702 59.6837L31.5055 58.858L31.5083 58.8581L31.4702 59.6837ZM34.3034 57.0192H35.1298C35.1298 57.0311 35.1296 57.0429 35.1291 57.0547L34.3034 57.0192ZM28.8675 56.8158L29.6937 56.834C29.6936 56.8397 29.6934 56.8454 29.6932 56.8512L28.8675 56.8158ZM31.602 54.148V53.3216C31.6147 53.3216 31.6274 53.3219 31.6401 53.3225L31.602 54.148ZM18.0284 71.9543L18.0465 72.7805C18.0405 72.7807 18.0344 72.7807 18.0284 72.7807V71.9543ZM20.7628 69.1198H19.9364C19.9364 69.1139 19.9364 69.108 19.9366 69.1021L20.7628 69.1198ZM18.0613 66.2886V65.4622C18.0674 65.4622 18.0734 65.4623 18.0795 65.4624L18.0613 66.2886ZM34.3026 69.1223H35.129C35.129 69.1341 35.1287 69.146 35.1282 69.1578L34.3026 69.1223ZM31.4693 71.7901L31.5046 70.9645L31.5075 70.9646L31.4693 71.7901ZM31.6011 66.2544V65.428C31.6138 65.428 31.6265 65.4283 31.6392 65.4289L31.6011 66.2544ZM28.8667 68.9256L29.6929 68.9437C29.6928 68.9495 29.6926 68.9553 29.6923 68.961L28.8667 68.9256ZM47.8767 69.1223H48.7031C48.7031 69.1341 48.7029 69.146 48.7024 69.1578L47.8767 69.1223ZM45.0435 71.7901L45.0788 70.9645L45.0817 70.9646L45.0435 71.7901ZM45.1753 66.2544V65.428C45.188 65.428 45.2007 65.4283 45.2134 65.4289L45.1753 66.2544ZM42.4409 68.9256L43.2671 68.9437C43.2669 68.9495 43.2668 68.9553 43.2665 68.961L42.4409 68.9256ZM18.0284 54.1879V53.3615C18.0344 53.3615 18.0405 53.3615 18.0465 53.3617L18.0284 54.1879ZM20.7298 57.0224H21.5562C21.5562 57.0283 21.5561 57.0343 21.556 57.0402L20.7298 57.0224ZM17.9295 59.6869L17.9462 58.8606L17.9477 58.8607L17.9295 59.6869ZM15.2939 56.8557L14.4677 56.8379C14.4679 56.8315 14.4681 56.8251 14.4684 56.8187L15.2939 56.8557ZM60.7112 42.5151C60.69 41.5451 60.6385 40.0957 60.554 38.7367C60.4677 37.3468 60.3515 36.1416 60.218 35.6027L61.8223 35.2054C61.9985 35.917 62.1195 37.2797 62.2036 38.6342C62.2897 40.0197 62.342 41.4916 62.3636 42.479L60.7112 42.5151ZM1.53518 41.6707H61.5374V43.3234H1.53518V41.6707ZM2.85051 35.6058C2.71968 36.1256 2.6042 37.3267 2.51814 38.7225C2.43412 40.0855 2.38261 41.5432 2.36138 42.5151L0.708988 42.479C0.730587 41.49 0.782852 40.0099 0.868488 38.6208C0.952099 37.2647 1.07217 35.8998 1.24772 35.2023L2.85051 35.6058ZM16.7491 24.0888C9.46127 24.7307 4.3494 29.0007 2.85503 35.5869L1.24321 35.2212C2.91154 27.8683 8.67141 23.1411 16.6041 22.4424L16.7491 24.0888ZM46.3927 24.092H16.6766V22.4392H46.3927V24.092ZM60.2139 35.5854C58.7186 28.9351 53.6727 24.6989 46.3244 24.0892L46.461 22.4421C54.465 23.1062 60.159 27.8071 61.8264 35.2228L60.2139 35.5854ZM60.7219 67.8869V42.4996H62.3747V67.8869H60.7219ZM44.45 84.1677C49.4964 84.1677 53.546 82.584 56.3321 79.8069C59.1177 77.0303 60.7219 72.9791 60.7219 67.8869H62.3747C62.3747 73.3325 60.6516 77.8349 57.4989 80.9775C54.3467 84.1196 49.8472 85.8205 44.45 85.8205V84.1677ZM18.6543 84.1677H44.45V85.8205H18.6543V84.1677ZM2.34946 68.0903C2.34946 73.1478 3.93728 77.1455 6.71494 79.8786C9.49422 82.6133 13.552 84.1677 18.6543 84.1677V85.8205C13.2143 85.8205 8.70648 84.1569 5.55572 81.0567C2.40332 77.9548 0.696674 73.5006 0.696674 68.0903H2.34946ZM2.34946 42.4996V68.0903H0.696674V42.4996H2.34946ZM61.5483 43.3259H1.52307V41.6732H61.5483V43.3259ZM45.0483 58.8581C46.08 58.9058 46.9704 58.0846 47.0178 56.9837L48.6691 57.0547C48.5847 59.0151 46.9712 60.6016 44.972 60.5092L45.0483 58.8581ZM43.2332 56.8512C43.1868 57.9339 44.0204 58.8142 45.0455 58.858L44.9749 60.5093C43.0349 60.4264 41.4965 58.7723 41.5819 56.7804L43.2332 56.8512ZM45.142 54.9744C44.1029 54.9744 43.2567 55.7917 43.2337 56.834L41.5814 56.7976C41.6243 54.8453 43.216 53.3216 45.142 53.3216V54.9744ZM47.017 57.0192C47.017 55.9143 46.1658 55.0226 45.1038 54.9735L45.1801 53.3225C47.149 53.4135 48.6698 55.0561 48.6698 57.0192H47.017ZM31.5083 58.8581C32.54 58.9058 33.4304 58.0846 33.4778 56.9837L35.1291 57.0547C35.0447 59.0151 33.4312 60.6016 31.432 60.5092L31.5083 58.8581ZM29.6932 56.8512C29.6468 57.9339 30.4804 58.8142 31.5055 58.858L31.4349 60.5093C29.4949 60.4264 27.9565 58.7723 28.0419 56.7804L29.6932 56.8512ZM31.602 54.9744C30.5629 54.9744 29.7167 55.7917 29.6937 56.834L28.0414 56.7976C28.0843 54.8453 29.6759 53.3216 31.602 53.3216V54.9744ZM33.477 57.0192C33.477 55.9143 32.6258 55.0226 31.5638 54.9735L31.6401 53.3225C33.609 53.4135 35.1298 55.0561 35.1298 57.0192H33.477ZM18.0102 71.1281C19.065 71.1049 19.9364 70.2159 19.9364 69.1198H21.5892C21.5892 71.0916 20.0226 72.737 18.0465 72.7805L18.0102 71.1281ZM16.0545 69.1198C16.0545 70.2402 16.9458 71.1279 18.0284 71.1279V72.7807C16.0141 72.7807 14.4017 71.134 14.4017 69.1198H16.0545ZM18.0284 67.115C16.9452 67.115 16.0545 68.0034 16.0545 69.1198H14.4017C14.4017 67.1083 16.0148 65.4622 18.0284 65.4622V67.115ZM18.0613 67.115H18.0284V65.4622H18.0613V67.115ZM19.9366 69.1021C19.9597 68.0241 19.1024 67.1381 18.0431 67.1148L18.0795 65.4624C20.0511 65.5058 21.6317 67.1475 21.589 69.1375L19.9366 69.1021ZM35.1282 69.1578C35.0439 71.1209 33.431 72.708 31.4312 72.6156L31.5075 70.9646C32.5386 71.0122 33.4295 70.1917 33.4769 69.0868L35.1282 69.1578ZM31.6392 65.4289C33.607 65.5199 35.129 67.158 35.129 69.1223H33.4762C33.4762 68.0186 32.6262 67.1291 31.563 67.0799L31.6392 65.4289ZM28.0405 68.9074C28.0834 66.9524 29.6744 65.428 31.6011 65.428V67.0808C30.5627 67.0808 29.7159 67.8975 29.6929 68.9437L28.0405 68.9074ZM31.434 72.6157C29.4947 72.5329 27.9556 70.8794 28.0411 68.8901L29.6923 68.961C29.646 70.0397 30.4789 70.9206 31.5046 70.9645L31.434 72.6157ZM48.7024 69.1578C48.6181 71.1209 47.0052 72.708 45.0054 72.6156L45.0817 70.9646C46.1128 71.0122 47.0037 70.1917 47.0511 69.0868L48.7024 69.1578ZM45.2134 65.4289C47.1811 65.5199 48.7031 67.158 48.7031 69.1223H47.0504C47.0504 68.0186 46.2003 67.1291 45.1371 67.0799L45.2134 65.4289ZM41.6147 68.9074C41.6576 66.9524 43.2486 65.428 45.1753 65.428V67.0808C44.1369 67.0808 43.29 67.8975 43.2671 68.9437L41.6147 68.9074ZM45.0082 72.6157C43.0689 72.5329 41.5298 70.8794 41.6152 68.8901L43.2665 68.961C43.2202 70.0397 44.0531 70.9206 45.0788 70.9645L45.0082 72.6157ZM19.9034 56.989C19.9034 55.8926 19.0647 55.0373 18.0102 55.0141L18.0465 53.3617C20.0229 53.4052 21.5562 55.0175 21.5562 56.989H19.9034ZM19.9034 57.0224V56.989H21.5562V57.0224H19.9034ZM17.9477 58.8607C19.0164 58.8842 19.8807 58.0692 19.9036 57.0046L21.556 57.0402C21.513 59.0369 19.8735 60.5562 17.9113 60.513L17.9477 58.8607ZM16.1201 56.8734C16.0965 57.9728 16.9422 58.8403 17.9462 58.8606L17.9128 60.5131C15.9518 60.4734 14.4255 58.8065 14.4677 56.8379L16.1201 56.8734ZM18.0284 55.0143C17.0109 55.0143 16.1667 55.8402 16.1195 56.8927L14.4684 56.8187C14.553 54.9299 16.0807 53.3615 18.0284 53.3615V55.0143Z" fill="url(#paint1_linear_718_12381)" mask="url(#path-3-outside-1_718_12381)"/>
</g>
<g filter="url(#filter2_bd_718_12381)">
<mask id="path-5-inside-2_718_12381" fill="white">
<path fill-rule="evenodd" clip-rule="evenodd" d="M41.321 31.0375C41.321 32.5081 42.4082 33.6053 43.8578 33.6053C45.3074 33.6053 46.3945 32.5081 46.3945 31.0375V20.8699C46.3945 19.3993 45.3074 18.2988 43.8578 18.2988C42.4082 18.2988 41.321 19.3993 41.321 20.8699V31.0375ZM16.6775 31.0375C16.6775 32.5081 17.7976 33.6053 19.2142 33.6053C20.6638 33.6053 21.751 32.5081 21.751 31.0375V20.8699C21.751 19.3993 20.6638 18.2988 19.2142 18.2988C17.7976 18.2988 16.6775 19.3993 16.6775 20.8699V31.0375Z"/>
</mask>
<path fill-rule="evenodd" clip-rule="evenodd" d="M41.321 31.0375C41.321 32.5081 42.4082 33.6053 43.8578 33.6053C45.3074 33.6053 46.3945 32.5081 46.3945 31.0375V20.8699C46.3945 19.3993 45.3074 18.2988 43.8578 18.2988C42.4082 18.2988 41.321 19.3993 41.321 20.8699V31.0375ZM16.6775 31.0375C16.6775 32.5081 17.7976 33.6053 19.2142 33.6053C20.6638 33.6053 21.751 32.5081 21.751 31.0375V20.8699C21.751 19.3993 20.6638 18.2988 19.2142 18.2988C17.7976 18.2988 16.6775 19.3993 16.6775 20.8699V31.0375Z" fill="url(#paint2_linear_718_12381)"/>
<path d="M43.8578 33.9358C42.2222 33.9358 40.9905 32.6872 40.9905 31.0375H41.6516C41.6516 32.3291 42.5943 33.2747 43.8578 33.2747V33.9358ZM46.7251 31.0375C46.7251 32.6872 45.4934 33.9358 43.8578 33.9358V33.2747C45.1213 33.2747 46.064 32.3291 46.064 31.0375H46.7251ZM46.7251 20.8699V31.0375H46.064V20.8699H46.7251ZM43.8578 17.9683C45.494 17.9683 46.7251 19.2208 46.7251 20.8699H46.064C46.064 19.5778 45.1207 18.6294 43.8578 18.6294V17.9683ZM40.9905 20.8699C40.9905 19.2208 42.2216 17.9683 43.8578 17.9683V18.6294C42.5948 18.6294 41.6516 19.5778 41.6516 20.8699H40.9905ZM40.9905 31.0375V20.8699H41.6516V31.0375H40.9905ZM19.2142 33.9358C17.6144 33.9358 16.3469 32.69 16.3469 31.0375H17.008C17.008 32.3263 17.9809 33.2747 19.2142 33.2747V33.9358ZM22.0815 31.0375C22.0815 32.6872 20.8499 33.9358 19.2142 33.9358V33.2747C20.4777 33.2747 21.4204 32.3291 21.4204 31.0375H22.0815ZM22.0815 20.8699V31.0375H21.4204V20.8699H22.0815ZM19.2142 17.9683C20.8504 17.9683 22.0815 19.2208 22.0815 20.8699H21.4204C21.4204 19.5778 20.4772 18.6294 19.2142 18.6294V17.9683ZM16.3469 20.8699C16.3469 19.218 17.6138 17.9683 19.2142 17.9683V18.6294C17.9814 18.6294 17.008 19.5806 17.008 20.8699H16.3469ZM16.3469 31.0375V20.8699H17.008V31.0375H16.3469Z" fill="url(#paint3_linear_718_12381)" mask="url(#path-5-inside-2_718_12381)"/>
</g>
<g filter="url(#filter3_bd_718_12381)">
<mask id="path-7-inside-3_718_12381" fill="white">
<path fill-rule="evenodd" clip-rule="evenodd" d="M47.814 57.0499C47.7482 58.5806 46.4963 59.7844 44.9808 59.7144C43.4983 59.651 42.3123 58.3838 42.3782 56.8465C42.4111 55.3492 43.6301 54.1787 45.1126 54.1787C46.628 54.2487 47.814 55.5159 47.814 57.0499ZM34.2743 57.0499C34.2084 58.5806 32.9565 59.7844 31.4411 59.7144C29.9586 59.651 28.7726 58.3838 28.8385 56.8465C28.8714 55.3492 30.0904 54.1787 31.5729 54.1787C33.0883 54.2487 34.2743 55.5159 34.2743 57.0499ZM20.7343 69.1505C20.7343 70.6845 19.5153 71.9517 17.9998 71.9851C16.4514 71.9851 15.1995 70.7179 15.1995 69.1505C15.1995 67.5865 16.4514 66.3193 17.9998 66.3193H18.0328C19.5482 66.3527 20.7672 67.6166 20.7343 69.1505ZM31.4405 71.8208C32.956 71.8909 34.2079 70.687 34.2738 69.153C34.2738 67.6191 33.0878 66.3552 31.5723 66.2852C30.0898 66.2852 28.8708 67.4557 28.8379 68.9563C28.772 70.4903 29.958 71.7575 31.4405 71.8208ZM45.0144 71.8208C46.5299 71.8909 47.7818 70.687 47.8477 69.153C47.8477 67.6191 46.6616 66.3552 45.1462 66.2852C43.6637 66.2852 42.4447 67.4557 42.4118 68.9563C42.3459 70.4903 43.5319 71.7575 45.0144 71.8208ZM18.0001 54.2186C19.5156 54.2519 20.7016 55.4858 20.7016 57.0198V57.0531C20.6686 58.5838 19.4167 59.7509 17.9013 59.7176C16.4188 59.6876 15.2328 58.4204 15.2657 56.8864C15.3316 55.4158 16.5176 54.2186 18.0001 54.2186Z"/>
</mask>
<path fill-rule="evenodd" clip-rule="evenodd" d="M47.814 57.0499C47.7482 58.5806 46.4963 59.7844 44.9808 59.7144C43.4983 59.651 42.3123 58.3838 42.3782 56.8465C42.4111 55.3492 43.6301 54.1787 45.1126 54.1787C46.628 54.2487 47.814 55.5159 47.814 57.0499ZM34.2743 57.0499C34.2084 58.5806 32.9565 59.7844 31.4411 59.7144C29.9586 59.651 28.7726 58.3838 28.8385 56.8465C28.8714 55.3492 30.0904 54.1787 31.5729 54.1787C33.0883 54.2487 34.2743 55.5159 34.2743 57.0499ZM20.7343 69.1505C20.7343 70.6845 19.5153 71.9517 17.9998 71.9851C16.4514 71.9851 15.1995 70.7179 15.1995 69.1505C15.1995 67.5865 16.4514 66.3193 17.9998 66.3193H18.0328C19.5482 66.3527 20.7672 67.6166 20.7343 69.1505ZM31.4405 71.8208C32.956 71.8909 34.2079 70.687 34.2738 69.153C34.2738 67.6191 33.0878 66.3552 31.5723 66.2852C30.0898 66.2852 28.8708 67.4557 28.8379 68.9563C28.772 70.4903 29.958 71.7575 31.4405 71.8208ZM45.0144 71.8208C46.5299 71.8909 47.7818 70.687 47.8477 69.153C47.8477 67.6191 46.6616 66.3552 45.1462 66.2852C43.6637 66.2852 42.4447 67.4557 42.4118 68.9563C42.3459 70.4903 43.5319 71.7575 45.0144 71.8208ZM18.0001 54.2186C19.5156 54.2519 20.7016 55.4858 20.7016 57.0198V57.0531C20.6686 58.5838 19.4167 59.7509 17.9013 59.7176C16.4188 59.6876 15.2328 58.4204 15.2657 56.8864C15.3316 55.4158 16.5176 54.2186 18.0001 54.2186Z" fill="url(#paint4_linear_718_12381)"/>
<path d="M44.9808 59.7144L44.9949 59.3841L44.9961 59.3842L44.9808 59.7144ZM47.814 57.0499H48.1446V57.057L48.1443 57.0641L47.814 57.0499ZM42.3782 56.8465L42.7087 56.8538L42.7084 56.8607L42.3782 56.8465ZM45.1126 54.1787V53.8482H45.1202L45.1278 53.8485L45.1126 54.1787ZM31.4411 59.7144L31.4552 59.3841L31.4563 59.3842L31.4411 59.7144ZM34.2743 57.0499H34.6049V57.057L34.6046 57.0641L34.2743 57.0499ZM28.8385 56.8465L29.169 56.8538L29.1687 56.8607L28.8385 56.8465ZM31.5729 54.1787V53.8482H31.5805L31.5881 53.8485L31.5729 54.1787ZM17.9998 71.9851L18.0071 72.3156H17.9998V71.9851ZM20.7343 69.1505H20.4036L20.4038 69.1434L20.7343 69.1505ZM18.0328 66.3193V65.9887L18.0401 65.9889L18.0328 66.3193ZM34.2738 69.153H34.6043V69.1601L34.604 69.1672L34.2738 69.153ZM31.4405 71.8208L31.4546 71.4906L31.4558 71.4906L31.4405 71.8208ZM31.5723 66.2852V65.9546H31.5799L31.5876 65.955L31.5723 66.2852ZM28.8379 68.9563L29.1684 68.9635L29.1681 68.9705L28.8379 68.9563ZM47.8477 69.153H48.1782V69.1601L48.1779 69.1672L47.8477 69.153ZM45.0144 71.8208L45.0285 71.4906L45.0297 71.4906L45.0144 71.8208ZM45.1462 66.2852V65.9546H45.1538L45.1614 65.955L45.1462 66.2852ZM42.4118 68.9563L42.7423 68.9635L42.742 68.9705L42.4118 68.9563ZM18.0001 54.2186V53.888L18.0074 53.8881L18.0001 54.2186ZM20.7016 57.0531H21.0322L21.0321 57.0602L20.7016 57.0531ZM17.9013 59.7176L17.908 59.3871L17.9086 59.3871L17.9013 59.7176ZM15.2657 56.8864L14.9351 56.8793L14.9355 56.8716L15.2657 56.8864ZM44.9961 59.3842C46.318 59.4453 47.4253 58.3945 47.4838 57.0357L48.1443 57.0641C48.071 58.7667 46.6745 60.1236 44.9655 60.0446L44.9961 59.3842ZM42.7084 56.8607C42.6503 58.2161 43.6954 59.3286 44.9949 59.3841L44.9667 60.0446C43.3012 59.9735 41.9742 58.5515 42.0479 56.8323L42.7084 56.8607ZM45.1126 54.5093C43.8075 54.5093 42.7376 55.5385 42.7086 56.8538L42.0477 56.8392C42.0846 55.1599 43.4527 53.8482 45.1126 53.8482V54.5093ZM47.4835 57.0499C47.4835 55.6876 46.4314 54.5706 45.0973 54.5089L45.1278 53.8485C46.8247 53.9269 48.1446 55.3443 48.1446 57.0499H47.4835ZM31.4563 59.3842C32.7783 59.4453 33.8856 58.3945 33.9441 57.0357L34.6046 57.0641C34.5313 58.7667 33.1348 60.1236 31.4258 60.0446L31.4563 59.3842ZM29.1687 56.8607C29.1106 58.2161 30.1557 59.3286 31.4552 59.3841L31.427 60.0446C29.7615 59.9735 28.4345 58.5515 28.5082 56.8323L29.1687 56.8607ZM31.5729 54.5093C30.2678 54.5093 29.1979 55.5385 29.1689 56.8538L28.508 56.8392C28.5449 55.1599 29.913 53.8482 31.5729 53.8482V54.5093ZM33.9438 57.0499C33.9438 55.6876 32.8917 54.5706 31.5576 54.5089L31.5881 53.8485C33.285 53.9269 34.6049 55.3443 34.6049 57.0499H33.9438ZM17.9926 71.6546C19.3238 71.6253 20.4037 70.5094 20.4037 69.1505H21.0648C21.0648 70.8596 19.7068 72.2781 18.0071 72.3155L17.9926 71.6546ZM15.5301 69.1505C15.5301 70.5391 16.6378 71.6545 17.9998 71.6545V72.3156C16.2651 72.3156 14.869 70.8966 14.869 69.1505H15.5301ZM17.9998 66.6499C16.6375 66.6499 15.5301 67.7656 15.5301 69.1505H14.869C14.869 67.4075 16.2654 65.9888 17.9998 65.9888V66.6499ZM18.0328 66.6499H17.9998V65.9888H18.0328V66.6499ZM20.4038 69.1434C20.4328 67.7919 19.3585 66.6791 18.0255 66.6498L18.0401 65.9889C19.738 66.0262 21.1016 67.4412 21.0647 69.1576L20.4038 69.1434ZM34.604 69.1672C34.5308 70.8729 33.1345 72.23 31.4253 72.151L31.4558 71.4906C32.7775 71.5517 33.885 70.5012 33.9435 69.1388L34.604 69.1672ZM31.5876 65.955C33.2839 66.0333 34.6043 67.4469 34.6043 69.153H33.9432C33.9432 67.7912 32.8916 66.677 31.557 66.6154L31.5876 65.955ZM28.5074 68.949C28.5443 67.2666 29.9121 65.9546 31.5723 65.9546V66.6157C30.2674 66.6157 29.1973 67.6447 29.1684 68.9635L28.5074 68.949ZM31.4264 72.1511C29.7612 72.0799 28.4339 70.6582 28.5076 68.9421L29.1681 68.9705C29.1101 70.3223 30.1548 71.435 31.4546 71.4906L31.4264 72.1511ZM48.1779 69.1672C48.1046 70.8729 46.7084 72.23 44.9992 72.151L45.0297 71.4906C46.3514 71.5517 47.4589 70.5012 47.5174 69.1388L48.1779 69.1672ZM45.1614 65.955C46.8578 66.0333 48.1782 67.4469 48.1782 69.153H47.5171C47.5171 67.7912 46.4655 66.677 45.1309 66.6154L45.1614 65.955ZM42.0813 68.949C42.1182 67.2666 43.486 65.9546 45.1462 65.9546V66.6157C43.8413 66.6157 42.7712 67.6447 42.7423 68.9635L42.0813 68.949ZM45.0003 72.1511C43.3351 72.0799 42.0078 70.6582 42.0815 68.9421L42.742 68.9705C42.684 70.3223 43.7287 71.435 45.0285 71.4906L45.0003 72.1511ZM20.371 57.0198C20.371 55.6608 19.3239 54.5784 17.9928 54.5491L18.0074 53.8881C19.7072 53.9255 21.0321 55.3108 21.0321 57.0198H20.371ZM20.371 57.0531V57.0198H21.0321V57.0531H20.371ZM17.9086 59.3871C19.2453 59.4165 20.3422 58.3902 20.3711 57.046L21.0321 57.0602C20.9951 58.7773 19.5882 60.0853 17.894 60.048L17.9086 59.3871ZM15.5962 56.8935C15.567 58.2536 16.6169 59.3609 17.908 59.3871L17.8946 60.0481C16.2207 60.0142 14.8985 58.5871 14.9352 56.8793L15.5962 56.8935ZM18.0001 54.5491C16.7036 54.5491 15.6543 55.5978 15.5959 56.9012L14.9355 56.8716C15.0089 55.2337 16.3316 53.888 18.0001 53.888V54.5491Z" fill="url(#paint5_linear_718_12381)" mask="url(#path-7-inside-3_718_12381)"/>
</g>
<g opacity="0.5" filter="url(#filter4_b_718_12381)">
<path d="M58.4864 42.7516C58.4864 44.1682 57.3892 45.2883 55.9186 45.2883L8.38212 45.2883C6.9115 45.2883 5.81104 44.1682 5.81104 42.7516C5.81104 41.302 6.9115 40.2148 8.38212 40.2148L55.9186 40.2148C57.3892 40.2148 58.4864 41.302 58.4864 42.7516Z" fill="url(#paint6_linear_718_12381)" fill-opacity="0.5"/>
</g>
<defs>
<filter id="filter0_f_718_12381" x="9.46504" y="0.697953" width="74.8321" height="79.1275" filterUnits="userSpaceOnUse" color-interpolation-filters="sRGB">
<feFlood flood-opacity="0" result="BackgroundImageFix"/>
<feBlend mode="normal" in="SourceGraphic" in2="BackgroundImageFix" result="shape"/>
<feGaussianBlur stdDeviation="7.85073" result="effect1_foregroundBlur_718_12381"/>
</filter>
<filter id="filter1_b_718_12381" x="-19.1366" y="2.60603" width="101.345" height="103.048" filterUnits="userSpaceOnUse" color-interpolation-filters="sRGB">
<feFlood flood-opacity="0" result="BackgroundImageFix"/>
<feGaussianBlur in="BackgroundImageFix" stdDeviation="9.91671"/>
<feComposite in2="SourceAlpha" operator="in" result="effect1_backgroundBlur_718_12381"/>
<feBlend mode="normal" in="SourceGraphic" in2="effect1_backgroundBlur_718_12381" result="shape"/>
</filter>
<filter id="filter2_bd_718_12381" x="4.28136" y="5.90294" width="54.5091" height="40.0984" filterUnits="userSpaceOnUse" color-interpolation-filters="sRGB">
<feFlood flood-opacity="0" result="BackgroundImageFix"/>
<feGaussianBlur in="BackgroundImageFix" stdDeviation="6.19795"/>
<feComposite in2="SourceAlpha" operator="in" result="effect1_backgroundBlur_718_12381"/>
<feColorMatrix in="SourceAlpha" type="matrix" values="0 0 0 0 0 0 0 0 0 0 0 0 0 0 0 0 0 0 127 0" result="hardAlpha"/>
<feOffset dx="4.13196" dy="4.13196"/>
<feGaussianBlur stdDeviation="4.13196"/>
<feColorMatrix type="matrix" values="0 0 0 0 1 0 0 0 0 0.537255 0 0 0 0 0.160784 0 0 0 0.2 0"/>
<feBlend mode="normal" in2="effect1_backgroundBlur_718_12381" result="effect2_dropShadow_718_12381"/>
<feBlend mode="normal" in="SourceGraphic" in2="effect2_dropShadow_718_12381" result="shape"/>
</filter>
<filter id="filter3_bd_718_12381" x="2.80382" y="41.7828" width="57.4397" height="42.5984" filterUnits="userSpaceOnUse" color-interpolation-filters="sRGB">
<feFlood flood-opacity="0" result="BackgroundImageFix"/>
<feGaussianBlur in="BackgroundImageFix" stdDeviation="6.19795"/>
<feComposite in2="SourceAlpha" operator="in" result="effect1_backgroundBlur_718_12381"/>
<feColorMatrix in="SourceAlpha" type="matrix" values="0 0 0 0 0 0 0 0 0 0 0 0 0 0 0 0 0 0 127 0" result="hardAlpha"/>
<feOffset dx="4.13196" dy="4.13196"/>
<feGaussianBlur stdDeviation="4.13196"/>
<feColorMatrix type="matrix" values="0 0 0 0 1 0 0 0 0 0.52549 0 0 0 0 0.137255 0 0 0 0.5 0"/>
<feBlend mode="normal" in2="effect1_backgroundBlur_718_12381" result="effect2_dropShadow_718_12381"/>
<feBlend mode="normal" in="SourceGraphic" in2="effect2_dropShadow_718_12381" result="shape"/>
</filter>
<filter id="filter4_b_718_12381" x="-6.58486" y="27.819" width="77.4671" height="29.865" filterUnits="userSpaceOnUse" color-interpolation-filters="sRGB">
<feFlood flood-opacity="0" result="BackgroundImageFix"/>
<feGaussianBlur in="BackgroundImageFix" stdDeviation="6.19795"/>
<feComposite in2="SourceAlpha" operator="in" result="effect1_backgroundBlur_718_12381"/>
<feBlend mode="normal" in="SourceGraphic" in2="effect1_backgroundBlur_718_12381" result="shape"/>
</filter>
<linearGradient id="paint0_linear_718_12381" x1="42.1274" y1="46.5921" x2="89.785" y2="49.7096" gradientUnits="userSpaceOnUse">
<stop stop-color="#F15A29"/>
<stop offset="1" stop-color="#F15A29"/>
</linearGradient>
<linearGradient id="paint1_linear_718_12381" x1="51.9933" y1="30.4571" x2="12.3992" y2="78.1423" gradientUnits="userSpaceOnUse">
<stop stop-color="white" stop-opacity="0.25"/>
<stop offset="1" stop-color="white" stop-opacity="0"/>
</linearGradient>
<linearGradient id="paint2_linear_718_12381" x1="18.4691" y1="31.23" x2="17.5767" y2="19.7333" gradientUnits="userSpaceOnUse">
<stop stop-color="white"/>
<stop offset="1" stop-color="white" stop-opacity="0.2"/>
</linearGradient>
<linearGradient id="paint3_linear_718_12381" x1="19.2857" y1="20.6133" x2="7.20271" y2="25.1453" gradientUnits="userSpaceOnUse">
<stop stop-color="white" stop-opacity="0.25"/>
<stop offset="1" stop-color="white" stop-opacity="0"/>
</linearGradient>
<linearGradient id="paint4_linear_718_12381" x1="17.5143" y1="57.3942" x2="72.5612" y2="53.7671" gradientUnits="userSpaceOnUse">
<stop stop-color="white"/>
<stop offset="1" stop-color="white" stop-opacity="0.2"/>
</linearGradient>
<linearGradient id="paint5_linear_718_12381" x1="42.6506" y1="56.2532" x2="34.0792" y2="75.7175" gradientUnits="userSpaceOnUse">
<stop stop-color="white" stop-opacity="0.25"/>
<stop offset="1" stop-color="white" stop-opacity="0"/>
</linearGradient>
<linearGradient id="paint6_linear_718_12381" x1="44.2691" y1="42.68" x2="46.1578" y2="36.7645" gradientUnits="userSpaceOnUse">
<stop stop-color="white"/>
<stop offset="1" stop-color="white" stop-opacity="0.2"/>
</linearGradient>
</defs>
</svg>
