<svg width="85" height="84" viewBox="0 0 85 84" fill="none" xmlns="http://www.w3.org/2000/svg">
<g filter="url(#filter0_b_0_27524)">
<path d="M43.546 7.23374L15.8253 14.6615C5.72349 17.3683 1.53346 24.6248 4.23998 34.7257L11.66 62.4174C14.3665 72.5183 21.6234 76.7076 31.7253 74.0008L59.4459 66.5731C69.5478 63.8663 73.7114 56.6168 71.0049 46.516L63.5849 18.8243C60.8784 8.72338 53.6478 4.52696 43.546 7.23374Z" fill="url(#paint0_linear_0_27524)"/>
</g>
<g opacity="0.5" filter="url(#filter1_f_0_27524)">
<path d="M57.2053 43.5242L52.1713 24.4555C50.3454 17.5389 45.7754 14.4375 39.7664 16.0238L19.4149 21.3965C13.3075 23.0088 10.9425 27.9409 12.7685 34.8576L17.8025 53.9262C19.6578 60.9544 24.119 63.9628 30.2264 62.3505L50.578 56.9778C56.5869 55.3915 59.0607 50.5523 57.2053 43.5242Z" fill="#F15A29"/>
</g>
<g filter="url(#filter2_b_0_27524)">
<mask id="path-3-outside-1_0_27524" maskUnits="userSpaceOnUse" x="21.5674" y="19.2974" width="64" height="64" fill="black">
<rect fill="white" x="21.5674" y="19.2974" width="64" height="64"/>
<path d="M67.6453 20.2974H38.9494C28.4922 20.2974 22.5674 26.2222 22.5674 36.6794V65.348C22.5674 75.8052 28.4922 81.73 38.9494 81.73H67.6453C78.1025 81.73 84 75.8052 84 65.348V36.6794C84 26.2222 78.1025 20.2974 67.6453 20.2974Z"/>
</mask>
<path d="M67.6453 20.2974H38.9494C28.4922 20.2974 22.5674 26.2222 22.5674 36.6794V65.348C22.5674 75.8052 28.4922 81.73 38.9494 81.73H67.6453C78.1025 81.73 84 75.8052 84 65.348V36.6794C84 26.2222 78.1025 20.2974 67.6453 20.2974Z" fill="#F15A29" fill-opacity="0.4"/>
<path d="M67.6453 21.0683C68.071 21.0683 68.4162 20.7231 68.4162 20.2974C68.4162 19.8716 68.071 19.5265 67.6453 19.5265V21.0683ZM67.6453 19.5265C67.2195 19.5265 66.8744 19.8716 66.8744 20.2974C66.8744 20.7231 67.2195 21.0683 67.6453 21.0683V19.5265ZM67.6453 19.5265H38.9494V21.0683H67.6453V19.5265ZM38.9494 19.5265C33.5775 19.5265 29.2629 21.0508 26.2918 24.0218C23.3208 26.9929 21.7965 31.3075 21.7965 36.6794H23.3383C23.3383 31.5941 24.7764 27.7177 27.3821 25.112C29.9877 22.5064 33.8641 21.0683 38.9494 21.0683V19.5265ZM21.7965 36.6794V65.348H23.3383V36.6794H21.7965ZM21.7965 65.348C21.7965 70.7199 23.3208 75.0345 26.2918 78.0055C29.2629 80.9766 33.5775 82.5009 38.9494 82.5009V80.9591C33.8641 80.9591 29.9877 79.521 27.3821 76.9153C24.7764 74.3097 23.3383 70.4332 23.3383 65.348H21.7965ZM38.9494 82.5009H67.6453V80.9591H38.9494V82.5009ZM67.6453 82.5009C73.0173 82.5009 77.3255 80.9766 80.2899 78.0049C83.254 75.0335 84.7709 70.7189 84.7709 65.348H83.2291C83.2291 70.4342 81.7973 74.3107 79.1983 76.916C76.5997 79.521 72.7305 80.9591 67.6453 80.9591V82.5009ZM84.7709 65.348V36.6794H83.2291V65.348H84.7709ZM84.7709 36.6794C84.7709 31.3084 83.254 26.9939 80.2899 24.0225C77.3255 21.0508 73.0173 19.5265 67.6453 19.5265V21.0683C72.7305 21.0683 76.5997 22.5063 79.1983 25.1114C81.7973 27.7167 83.2291 31.5932 83.2291 36.6794H84.7709Z" fill="url(#paint1_linear_0_27524)" mask="url(#path-3-outside-1_0_27524)"/>
</g>
<g filter="url(#filter3_bd_0_27524)">
<mask id="path-5-inside-2_0_27524" fill="white">
<path fill-rule="evenodd" clip-rule="evenodd" d="M53.3925 32.8569C52 32.8569 50.8532 34.0037 50.8532 35.4235V66.6039C50.8532 67.9964 52 69.1431 53.3925 69.1431C54.8122 69.1431 55.959 67.9964 55.959 66.6039V35.4235C55.959 34.0037 54.8122 32.8569 53.3925 32.8569ZM39.0578 42.9329C37.6653 42.9329 36.5186 44.0797 36.5186 45.4994V66.605C36.5186 67.9974 37.6653 69.1442 39.0578 69.1442C40.4775 69.1442 41.6243 67.9974 41.6243 66.605V45.4994C41.6243 44.0797 40.4775 42.9329 39.0578 42.9329ZM64.969 56.6387C64.969 55.2189 66.1158 54.0721 67.5355 54.0721C68.928 54.0721 70.0748 55.2189 70.0748 56.6387V66.6044C70.0748 67.9969 68.928 69.1436 67.5082 69.1436C66.1158 69.1436 64.969 67.9969 64.969 66.6044V56.6387Z"/>
</mask>
<path fill-rule="evenodd" clip-rule="evenodd" d="M53.3925 32.8569C52 32.8569 50.8532 34.0037 50.8532 35.4235V66.6039C50.8532 67.9964 52 69.1431 53.3925 69.1431C54.8122 69.1431 55.959 67.9964 55.959 66.6039V35.4235C55.959 34.0037 54.8122 32.8569 53.3925 32.8569ZM39.0578 42.9329C37.6653 42.9329 36.5186 44.0797 36.5186 45.4994V66.605C36.5186 67.9974 37.6653 69.1442 39.0578 69.1442C40.4775 69.1442 41.6243 67.9974 41.6243 66.605V45.4994C41.6243 44.0797 40.4775 42.9329 39.0578 42.9329ZM64.969 56.6387C64.969 55.2189 66.1158 54.0721 67.5355 54.0721C68.928 54.0721 70.0748 55.2189 70.0748 56.6387V66.6044C70.0748 67.9969 68.928 69.1436 67.5082 69.1436C66.1158 69.1436 64.969 67.9969 64.969 66.6044V56.6387Z" fill="url(#paint2_linear_0_27524)"/>
<path d="M51.1616 35.4235C51.1616 34.1718 52.1724 33.1653 53.3925 33.1653V32.5486C51.8275 32.5486 50.5449 33.8355 50.5449 35.4235H51.1616ZM51.1616 66.6039V35.4235H50.5449V66.6039H51.1616ZM53.3925 68.8348C52.1703 68.8348 51.1616 67.8261 51.1616 66.6039H50.5449C50.5449 68.1667 51.8297 69.4515 53.3925 69.4515V68.8348ZM55.6506 66.6039C55.6506 67.824 54.6441 68.8348 53.3925 68.8348V69.4515C54.9804 69.4515 56.2673 68.1688 56.2673 66.6039H55.6506ZM55.6506 35.4235V66.6039H56.2673V35.4235H55.6506ZM53.3925 33.1653C54.6419 33.1653 55.6506 34.174 55.6506 35.4235H56.2673C56.2673 33.8334 54.9825 32.5486 53.3925 32.5486V33.1653ZM36.8269 45.4994C36.8269 44.2478 37.8377 43.2413 39.0578 43.2413V42.6246C37.4929 42.6246 36.2102 43.9115 36.2102 45.4994H36.8269ZM36.8269 66.605V45.4994H36.2102V66.605H36.8269ZM39.0578 68.8358C37.8356 68.8358 36.8269 67.8271 36.8269 66.605H36.2102C36.2102 68.1677 37.495 69.4525 39.0578 69.4525V68.8358ZM41.3159 66.605C41.3159 67.825 40.3094 68.8358 39.0578 68.8358V69.4525C40.6457 69.4525 41.9326 68.1699 41.9326 66.605H41.3159ZM41.3159 45.4994V66.605H41.9326V45.4994H41.3159ZM39.0578 43.2413C40.3072 43.2413 41.3159 44.25 41.3159 45.4994H41.9326C41.9326 43.9094 40.6478 42.6246 39.0578 42.6246V43.2413ZM67.5355 53.7638C65.9455 53.7638 64.6607 55.0486 64.6607 56.6387H65.2774C65.2774 55.3892 66.2861 54.3805 67.5355 54.3805V53.7638ZM70.3831 56.6387C70.3831 55.0507 69.1005 53.7638 67.5355 53.7638V54.3805C68.7556 54.3805 69.7664 55.387 69.7664 56.6387H70.3831ZM70.3831 66.6044V56.6387H69.7664V66.6044H70.3831ZM67.5082 69.452C69.0962 69.452 70.3831 68.1693 70.3831 66.6044H69.7664C69.7664 67.8244 68.7599 68.8352 67.5082 68.8352V69.452ZM64.6607 66.6044C64.6607 68.1672 65.9455 69.452 67.5082 69.452V68.8352C66.2861 68.8352 65.2774 67.8266 65.2774 66.6044H64.6607ZM64.6607 56.6387V66.6044H65.2774V56.6387H64.6607Z" fill="url(#paint3_linear_0_27524)" mask="url(#path-5-inside-2_0_27524)"/>
</g>
<defs>
<filter id="filter0_b_0_27524" x="-6.58603" y="-3.5914" width="88.4191" height="88.4182" filterUnits="userSpaceOnUse" color-interpolation-filters="sRGB">
<feFlood flood-opacity="0" result="BackgroundImageFix"/>
<feGaussianBlur in="BackgroundImageFix" stdDeviation="5.01079"/>
<feComposite in2="SourceAlpha" operator="in" result="effect1_backgroundBlur_0_27524"/>
<feBlend mode="normal" in="SourceGraphic" in2="effect1_backgroundBlur_0_27524" result="shape"/>
</filter>
<filter id="filter1_f_0_27524" x="2.14542" y="5.59512" width="65.6857" height="67.2023" filterUnits="userSpaceOnUse" color-interpolation-filters="sRGB">
<feFlood flood-opacity="0" result="BackgroundImageFix"/>
<feBlend mode="normal" in="SourceGraphic" in2="BackgroundImageFix" result="shape"/>
<feGaussianBlur stdDeviation="5.01079" result="effect1_foregroundBlur_0_27524"/>
</filter>
<filter id="filter2_b_0_27524" x="10.2335" y="7.96301" width="86.1003" height="86.1013" filterUnits="userSpaceOnUse" color-interpolation-filters="sRGB">
<feFlood flood-opacity="0" result="BackgroundImageFix"/>
<feGaussianBlur in="BackgroundImageFix" stdDeviation="5.78168"/>
<feComposite in2="SourceAlpha" operator="in" result="effect1_backgroundBlur_0_27524"/>
<feBlend mode="normal" in="SourceGraphic" in2="effect1_backgroundBlur_0_27524" result="shape"/>
</filter>
<filter id="filter3_bd_0_27524" x="24.9552" y="21.2936" width="56.6834" height="59.4138" filterUnits="userSpaceOnUse" color-interpolation-filters="sRGB">
<feFlood flood-opacity="0" result="BackgroundImageFix"/>
<feGaussianBlur in="BackgroundImageFix" stdDeviation="5.78168"/>
<feComposite in2="SourceAlpha" operator="in" result="effect1_backgroundBlur_0_27524"/>
<feColorMatrix in="SourceAlpha" type="matrix" values="0 0 0 0 0 0 0 0 0 0 0 0 0 0 0 0 0 0 127 0" result="hardAlpha"/>
<feOffset dx="3.85445" dy="3.85445"/>
<feGaussianBlur stdDeviation="3.85445"/>
<feColorMatrix type="matrix" values="0 0 0 0 0.890196 0 0 0 0 0.0235294 0 0 0 0 0.0666667 0 0 0 0.5 0"/>
<feBlend mode="normal" in2="effect1_backgroundBlur_0_27524" result="effect2_dropShadow_0_27524"/>
<feBlend mode="normal" in="SourceGraphic" in2="effect2_dropShadow_0_27524" result="shape"/>
</filter>
<linearGradient id="paint0_linear_0_27524" x1="43.0561" y1="43.4238" x2="7.01839" y2="76.0395" gradientUnits="userSpaceOnUse">
<stop stop-color="#F15A29"/>
<stop offset="1" stop-color="#F15A29"/>
</linearGradient>
<linearGradient id="paint1_linear_0_27524" x1="32.3465" y1="27.4543" x2="71.5339" y2="75.989" gradientUnits="userSpaceOnUse">
<stop stop-color="white" stop-opacity="0.25"/>
<stop offset="1" stop-color="white" stop-opacity="0"/>
</linearGradient>
<linearGradient id="paint2_linear_0_27524" x1="27.8326" y1="59.7901" x2="43.5519" y2="92.0829" gradientUnits="userSpaceOnUse">
<stop stop-color="white"/>
<stop offset="1" stop-color="white" stop-opacity="0.2"/>
</linearGradient>
<linearGradient id="paint3_linear_0_27524" x1="41.8602" y1="37.0844" x2="65.3229" y2="63.9566" gradientUnits="userSpaceOnUse">
<stop stop-color="white" stop-opacity="0.25"/>
<stop offset="1" stop-color="white" stop-opacity="0"/>
</linearGradient>
</defs>
</svg>
