<svg width="88" height="86" viewBox="0 0 88 86" fill="none" xmlns="http://www.w3.org/2000/svg">
<path d="M56.0438 26.0635C71.7081 26.0635 83.0586 38.8429 83.0586 53.0244C83.0586 57.5538 81.7375 62.218 79.4189 66.4778C78.9875 67.1788 78.9336 68.0685 79.2301 68.9043L81.0365 74.9436C81.4409 76.3995 80.2007 77.4779 78.8257 77.0465L73.3796 75.4289C71.8968 74.9436 70.7375 75.5637 69.3598 76.3995C65.4235 78.7181 60.5193 79.9044 56.0977 79.9044C42.7251 79.9044 29.1368 69.5784 29.1368 52.9435C29.1368 38.6003 40.73 26.0635 56.0438 26.0635Z" fill="url(#paint0_linear_462_12780)"/>
<g opacity="0.5" filter="url(#filter0_f_462_12780)">
<path d="M73.26 53.2931C73.26 62.9116 65.4645 70.7053 55.8478 70.7053C46.231 70.7053 38.4355 62.9116 38.4355 53.2931C38.4355 43.6781 46.231 35.8809 55.8478 35.8809C65.4645 35.8809 73.26 43.6781 73.26 53.2931Z" fill="#F15A29"/>
</g>
<g filter="url(#filter1_b_462_12780)">
<mask id="path-3-outside-1_462_12780" maskUnits="userSpaceOnUse" x="0.333984" y="4" width="71" height="71" fill="black">
<rect fill="white" x="0.333984" y="4" width="71" height="71"/>
<path d="M35.806 5C15.8177 5 1.33398 21.3071 1.33398 39.4032C1.33398 45.1829 3.01974 51.1347 5.97841 56.5704C6.52887 57.4649 6.59767 58.6002 6.21924 59.6667L3.91422 67.373C3.39818 69.2307 4.98072 70.6069 6.73528 70.0564L13.6847 67.9922C15.5769 67.373 17.0562 68.1642 18.8142 69.2307C23.8371 72.1894 30.095 73.7032 35.7372 73.7032C52.8011 73.7032 70.1404 60.5267 70.1404 39.3C70.1404 20.9975 55.347 5 35.806 5Z"/>
</mask>
<path d="M35.806 5C15.8177 5 1.33398 21.3071 1.33398 39.4032C1.33398 45.1829 3.01974 51.1347 5.97841 56.5704C6.52887 57.4649 6.59767 58.6002 6.21924 59.6667L3.91422 67.373C3.39818 69.2307 4.98072 70.6069 6.73528 70.0564L13.6847 67.9922C15.5769 67.373 17.0562 68.1642 18.8142 69.2307C23.8371 72.1894 30.095 73.7032 35.7372 73.7032C52.8011 73.7032 70.1404 60.5267 70.1404 39.3C70.1404 20.9975 55.347 5 35.806 5Z" fill="#F15A29" fill-opacity="0.35"/>
<path d="M35.806 5.84253C36.2713 5.84253 36.6485 5.46531 36.6485 5C36.6485 4.53469 36.2713 4.15747 35.806 4.15747V5.84253ZM5.97841 56.5704L5.23841 56.9732C5.24555 56.9863 5.25304 56.9992 5.26087 57.0119L5.97841 56.5704ZM6.21924 59.6667L5.42522 59.3849C5.42049 59.3982 5.4161 59.4117 5.41204 59.4252L6.21924 59.6667ZM3.91422 67.373L3.10703 67.1315C3.10545 67.1368 3.10391 67.1421 3.10243 67.1475L3.91422 67.373ZM6.73528 70.0564L6.49536 69.2487L6.48308 69.2525L6.73528 70.0564ZM13.6847 67.9922L13.9246 68.7999C13.932 68.7977 13.9394 68.7954 13.9468 68.793L13.6847 67.9922ZM18.8142 69.2307L18.3772 69.9511L18.3866 69.9567L18.8142 69.2307ZM35.806 4.15747C35.3407 4.15747 34.9634 4.53469 34.9634 5C34.9634 5.46531 35.3407 5.84253 35.806 5.84253V4.15747ZM35.806 4.15747C15.3247 4.15747 0.491457 20.87 0.491457 39.4032H2.17651C2.17651 21.7442 16.3108 5.84253 35.806 5.84253V4.15747ZM0.491457 39.4032C0.491457 45.3438 2.2228 51.4329 5.23841 56.9732L6.71842 56.1676C3.81668 50.8365 2.17651 45.022 2.17651 39.4032H0.491457ZM5.26087 57.0119C5.65734 57.6562 5.7323 58.5195 5.42522 59.3849L7.01326 59.9484C7.46304 58.6808 7.40039 57.2735 6.69596 56.1288L5.26087 57.0119ZM5.41204 59.4252L3.10703 67.1315L4.72142 67.6144L7.02643 59.9081L5.41204 59.4252ZM3.10243 67.1475C2.76461 68.3636 3.10653 69.5037 3.90221 70.2372C4.68844 70.962 5.84135 71.2199 6.98749 70.8603L6.48308 69.2525C5.87466 69.4434 5.35902 69.2884 5.04434 68.9983C4.73912 68.7169 4.54779 68.2401 4.72601 67.5985L3.10243 67.1475ZM6.97518 70.8641L13.9246 68.7999L13.4448 67.1846L6.49539 69.2488L6.97518 70.8641ZM13.9468 68.793C15.4339 68.3063 16.5979 68.8716 18.3772 69.9511L19.2512 68.5104C17.5146 67.4568 15.7199 66.4397 13.4227 67.1915L13.9468 68.793ZM18.3866 69.9567C23.5522 72.9994 29.9607 74.5457 35.7372 74.5457V72.8606C30.2294 72.8606 24.122 71.3794 19.2419 68.5048L18.3866 69.9567ZM35.7372 74.5457C53.1985 74.5457 70.9829 61.0572 70.9829 39.3H69.2978C69.2978 59.9963 52.4038 72.8606 35.7372 72.8606V74.5457ZM70.9829 39.3C70.9829 20.551 55.8309 4.15747 35.806 4.15747V5.84253C54.8631 5.84253 69.2978 21.444 69.2978 39.3H70.9829Z" fill="url(#paint1_linear_462_12780)" mask="url(#path-3-outside-1_462_12780)"/>
</g>
<g filter="url(#filter2_bd_462_12780)">
<mask id="path-5-inside-2_462_12780" fill="white">
<path fill-rule="evenodd" clip-rule="evenodd" d="M35.6689 43.8409C33.2263 43.8064 31.2653 41.8455 31.2653 39.4028C31.2653 36.9946 33.2607 34.9992 35.6689 35.0336C38.1116 35.0336 40.0726 36.9946 40.0726 39.4372C40.0726 41.8455 38.1116 43.8409 35.6689 43.8409ZM19.8079 43.8409C17.3997 43.8409 15.4043 41.8455 15.4043 39.4373C15.4043 36.9947 17.3653 35.0337 19.8079 35.0337C22.2505 35.0337 24.2115 36.9947 24.2115 39.4373C24.2115 41.8455 22.2505 43.8065 19.8079 43.8409ZM47.1248 39.4372C47.1248 41.8454 49.0858 43.8408 51.5284 43.8408C53.9711 43.8408 55.9321 41.8454 55.9321 39.4372C55.9321 36.9946 53.9711 35.0336 51.5284 35.0336C49.0858 35.0336 47.1248 36.9946 47.1248 39.4372Z"/>
</mask>
<path fill-rule="evenodd" clip-rule="evenodd" d="M35.6689 43.8409C33.2263 43.8064 31.2653 41.8455 31.2653 39.4028C31.2653 36.9946 33.2607 34.9992 35.6689 35.0336C38.1116 35.0336 40.0726 36.9946 40.0726 39.4372C40.0726 41.8455 38.1116 43.8409 35.6689 43.8409ZM19.8079 43.8409C17.3997 43.8409 15.4043 41.8455 15.4043 39.4373C15.4043 36.9947 17.3653 35.0337 19.8079 35.0337C22.2505 35.0337 24.2115 36.9947 24.2115 39.4373C24.2115 41.8455 22.2505 43.8065 19.8079 43.8409ZM47.1248 39.4372C47.1248 41.8454 49.0858 43.8408 51.5284 43.8408C53.9711 43.8408 55.9321 41.8454 55.9321 39.4372C55.9321 36.9946 53.9711 35.0336 51.5284 35.0336C49.0858 35.0336 47.1248 36.9946 47.1248 39.4372Z" fill="url(#paint2_linear_462_12780)"/>
<path d="M35.6689 43.8409L35.6642 44.1779H35.6689V43.8409ZM35.6689 35.0336L35.6641 35.3707H35.6689V35.0336ZM19.8079 43.8409V44.178L19.8126 44.1779L19.8079 43.8409ZM30.9283 39.4028C30.9283 42.0325 33.0401 44.1409 35.6642 44.1778L35.6737 43.5039C33.4126 43.472 31.6024 41.6585 31.6024 39.4028H30.9283ZM35.6738 34.6967C33.0747 34.6595 30.9283 36.8095 30.9283 39.4028H31.6024C31.6024 37.1798 33.4467 35.3389 35.6641 35.3706L35.6738 34.6967ZM40.4096 39.4372C40.4096 36.8085 38.2977 34.6966 35.6689 34.6966V35.3707C37.9254 35.3707 39.7355 37.1807 39.7355 39.4372H40.4096ZM35.6689 44.1779C38.2994 44.1779 40.4096 42.0299 40.4096 39.4372H39.7355C39.7355 41.6611 37.9237 43.5038 35.6689 43.5038V44.1779ZM15.0673 39.4373C15.0673 42.0317 17.2136 44.1779 19.8079 44.1779V43.5039C17.5858 43.5039 15.7413 41.6594 15.7413 39.4373H15.0673ZM19.8079 34.6967C17.1792 34.6967 15.0673 36.8086 15.0673 39.4373H15.7413C15.7413 37.1808 17.5514 35.3707 19.8079 35.3707V34.6967ZM24.5485 39.4373C24.5485 36.8086 22.4367 34.6967 19.8079 34.6967V35.3707C22.0644 35.3707 23.8745 37.1808 23.8745 39.4373H24.5485ZM19.8126 44.1779C22.4351 44.141 24.5485 42.0342 24.5485 39.4373H23.8745C23.8745 41.6568 22.066 43.4721 19.8032 43.5039L19.8126 44.1779ZM51.5284 43.5038C49.2737 43.5038 47.4618 41.661 47.4618 39.4372H46.7878C46.7878 42.0299 48.898 44.1778 51.5284 44.1778V43.5038ZM55.595 39.4372C55.595 41.661 53.7832 43.5038 51.5284 43.5038V44.1778C54.1589 44.1778 56.2691 42.0299 56.2691 39.4372H55.595ZM51.5284 35.3706C53.7849 35.3706 55.595 37.1807 55.595 39.4372H56.2691C56.2691 36.8085 54.1572 34.6966 51.5284 34.6966V35.3706ZM47.4618 39.4372C47.4618 37.1807 49.2719 35.3706 51.5284 35.3706V34.6966C48.8997 34.6966 46.7878 36.8085 46.7878 39.4372H47.4618Z" fill="url(#paint3_linear_462_12780)" mask="url(#path-5-inside-2_462_12780)"/>
</g>
<defs>
<filter id="filter0_f_462_12780" x="24.1126" y="21.5579" width="63.4701" height="63.4701" filterUnits="userSpaceOnUse" color-interpolation-filters="sRGB">
<feFlood flood-opacity="0" result="BackgroundImageFix"/>
<feBlend mode="normal" in="SourceGraphic" in2="BackgroundImageFix" result="shape"/>
<feGaussianBlur stdDeviation="7.16148" result="effect1_foregroundBlur_462_12780"/>
</filter>
<filter id="filter1_b_462_12780" x="-19.7285" y="-16.0634" width="110.932" height="110.83" filterUnits="userSpaceOnUse" color-interpolation-filters="sRGB">
<feFlood flood-opacity="0" result="BackgroundImageFix"/>
<feGaussianBlur in="BackgroundImageFix" stdDeviation="10.1103"/>
<feComposite in2="SourceAlpha" operator="in" result="effect1_backgroundBlur_462_12780"/>
<feBlend mode="normal" in="SourceGraphic" in2="effect1_backgroundBlur_462_12780" result="shape"/>
</filter>
<filter id="filter2_bd_462_12780" x="2.76639" y="22.3953" width="65.8032" height="34.0834" filterUnits="userSpaceOnUse" color-interpolation-filters="sRGB">
<feFlood flood-opacity="0" result="BackgroundImageFix"/>
<feGaussianBlur in="BackgroundImageFix" stdDeviation="6.31895"/>
<feComposite in2="SourceAlpha" operator="in" result="effect1_backgroundBlur_462_12780"/>
<feColorMatrix in="SourceAlpha" type="matrix" values="0 0 0 0 0 0 0 0 0 0 0 0 0 0 0 0 0 0 127 0" result="hardAlpha"/>
<feOffset dx="4.21263" dy="4.21263"/>
<feGaussianBlur stdDeviation="4.21263"/>
<feColorMatrix type="matrix" values="0 0 0 0 0.890196 0 0 0 0 0.0235294 0 0 0 0 0.0666667 0 0 0 0.5 0"/>
<feBlend mode="normal" in2="effect1_backgroundBlur_462_12780" result="effect2_dropShadow_462_12780"/>
<feBlend mode="normal" in="SourceGraphic" in2="effect2_dropShadow_462_12780" result="shape"/>
</filter>
<linearGradient id="paint0_linear_462_12780" x1="52.128" y1="56.5893" x2="90.0655" y2="76.0692" gradientUnits="userSpaceOnUse">
<stop stop-color="#F15A29"/>
<stop offset="1" stop-color="#F15A29"/>
</linearGradient>
<linearGradient id="paint1_linear_462_12780" x1="12.2868" y1="13.004" x2="56.0982" y2="67.347" gradientUnits="userSpaceOnUse">
<stop stop-color="white" stop-opacity="0.25"/>
<stop offset="1" stop-color="white" stop-opacity="0"/>
</linearGradient>
<linearGradient id="paint2_linear_462_12780" x1="53.0587" y1="36.6237" x2="8.86138" y2="43.2544" gradientUnits="userSpaceOnUse">
<stop stop-color="white"/>
<stop offset="1" stop-color="white" stop-opacity="0.2"/>
</linearGradient>
<linearGradient id="paint3_linear_462_12780" x1="21.8557" y1="36.0593" x2="23.8124" y2="47.2108" gradientUnits="userSpaceOnUse">
<stop stop-color="white" stop-opacity="0.25"/>
<stop offset="1" stop-color="white" stop-opacity="0"/>
</linearGradient>
</defs>
</svg>
