<svg width="85" height="84" viewBox="0 0 85 84" fill="none" xmlns="http://www.w3.org/2000/svg">
<path d="M71.9453 11.5949L49.1941 5.4987C40.9416 3.28746 34.842 6.83203 32.6235 15.1116L25.1096 43.1537C22.8547 51.569 26.394 57.5799 34.6464 59.7912L57.3977 65.8873C65.7832 68.1342 71.718 64.6619 73.9728 56.2465L81.4867 28.2045C83.7052 19.9249 80.3308 13.8418 71.9453 11.5949Z" fill="url(#paint0_linear_0_27537)"/>
<g opacity="0.5" filter="url(#filter0_f_0_27537)">
<path d="M66.0003 19.2739L50.4996 15.1205C44.8771 13.614 40.7214 16.0289 39.2099 21.6699L34.0907 40.7752C32.5544 46.5087 34.9657 50.6039 40.5882 52.1105L56.0888 56.2639C61.8019 57.7947 65.8454 55.4289 67.3816 49.6955L72.5009 30.5902C74.0124 24.9492 71.7134 20.8047 66.0003 19.2739Z" fill="#F15A29"/>
</g>
<g filter="url(#filter1_b_0_27537)">
<mask id="path-3-outside-1_0_27537" maskUnits="userSpaceOnUse" x="0" y="16.0459" width="67" height="67" fill="black">
<rect fill="white" y="16.0459" width="67" height="67"/>
<path d="M47.3688 17.0459H19.3341C8.37245 17.0459 1 24.7417 1 36.1884V62.6063C1 74.0207 8.37245 81.7165 19.3341 81.7165H47.3688C58.3305 81.7165 65.6706 74.0207 65.6706 62.6063V36.1884C65.6706 24.7417 58.3305 17.0459 47.3688 17.0459Z"/>
</mask>
<path d="M47.3688 17.0459H19.3341C8.37245 17.0459 1 24.7417 1 36.1884V62.6063C1 74.0207 8.37245 81.7165 19.3341 81.7165H47.3688C58.3305 81.7165 65.6706 74.0207 65.6706 62.6063V36.1884C65.6706 24.7417 58.3305 17.0459 47.3688 17.0459Z" fill="#F15A29" fill-opacity="0.35"/>
<path d="M47.3688 17.8378C47.8061 17.8378 48.1607 17.4832 48.1607 17.0459C48.1607 16.6086 47.8061 16.254 47.3688 16.254V17.8378ZM47.3688 16.254C46.9315 16.254 46.5769 16.6086 46.5769 17.0459C46.5769 17.4832 46.9315 17.8378 47.3688 17.8378V16.254ZM47.3688 16.254H19.3341V17.8378H47.3688V16.254ZM19.3341 16.254C13.661 16.254 8.86287 18.2498 5.48456 21.7769C2.10908 25.301 0.208115 30.2934 0.208115 36.1884H1.79188C1.79188 30.6367 3.57714 26.0579 6.62831 22.8724C9.67663 19.6899 14.0455 17.8378 19.3341 17.8378V16.254ZM0.208115 36.1884V62.6063H1.79188V36.1884H0.208115ZM0.208115 62.6063C0.208115 68.4857 2.10944 73.4701 5.48489 76.9899C8.8631 80.5126 13.6611 82.5084 19.3341 82.5084V80.9246C14.0455 80.9246 9.6764 79.0725 6.62798 75.8937C3.57678 72.712 1.79188 68.1413 1.79188 62.6063H0.208115ZM19.3341 82.5084H47.3688V80.9246H19.3341V82.5084ZM47.3688 82.5084C53.042 82.5084 57.8323 80.5125 61.2025 76.9892C64.5698 73.469 66.4625 68.4848 66.4625 62.6063H64.8787C64.8787 68.1423 63.1013 72.7131 60.0581 75.8944C57.0179 79.0726 52.6573 80.9246 47.3688 80.9246V82.5084ZM66.4625 62.6063V36.1884H64.8787V62.6063H66.4625ZM66.4625 36.1884C66.4625 30.2944 64.5702 25.302 61.2029 21.7776C57.8325 18.25 53.042 16.254 47.3688 16.254V17.8378C52.6572 17.8378 57.0177 19.6897 60.0578 22.8717C63.1009 26.0568 64.8787 30.6357 64.8787 36.1884H66.4625Z" fill="url(#paint1_linear_0_27537)" mask="url(#path-3-outside-1_0_27537)"/>
</g>
<g filter="url(#filter2_bd_0_27537)">
<mask id="path-5-inside-2_0_27537" fill="white">
<path d="M29.4973 59.8836C28.773 59.8836 28.0487 59.6087 27.4957 59.0558L19.8226 51.3826C18.7167 50.2768 18.7167 48.4854 19.8226 47.3828C20.9284 46.2769 22.7166 46.2737 23.8224 47.3795L29.4973 53.0544L42.8453 39.7064C43.9512 38.6005 45.7393 38.6005 46.8452 39.7064C47.951 40.8122 47.951 42.6036 46.8452 43.7095L31.4988 59.0558C30.9459 59.6087 30.2216 59.8836 29.4973 59.8836Z"/>
</mask>
<path d="M29.4973 59.8836C28.773 59.8836 28.0487 59.6087 27.4957 59.0558L19.8226 51.3826C18.7167 50.2768 18.7167 48.4854 19.8226 47.3828C20.9284 46.2769 22.7166 46.2737 23.8224 47.3795L29.4973 53.0544L42.8453 39.7064C43.9512 38.6005 45.7393 38.6005 46.8452 39.7064C47.951 40.8122 47.951 42.6036 46.8452 43.7095L31.4988 59.0558C30.9459 59.6087 30.2216 59.8836 29.4973 59.8836Z" fill="url(#paint2_linear_0_27537)"/>
<path d="M19.8226 47.3828L19.9344 47.4949L19.9346 47.4947L19.8226 47.3828ZM29.4973 53.0544L29.3853 53.1664L29.4973 53.2783L29.6093 53.1664L29.4973 53.0544ZM46.8452 43.7095L46.7332 43.5975L46.8452 43.7095ZM31.4988 59.0558L31.6108 59.1678L31.4988 59.0558ZM29.4973 59.7252C28.8131 59.7252 28.1296 59.4657 27.6077 58.9438L27.3837 59.1678C27.9677 59.7517 28.7329 60.042 29.4973 60.042V59.7252ZM27.6077 58.9438L19.9346 51.2706L19.7106 51.4946L27.3837 59.1678L27.6077 58.9438ZM19.9346 51.2706C18.8904 50.2265 18.8907 48.5356 19.9344 47.4949L19.7107 47.2706C18.5427 48.4352 18.5429 50.327 19.7106 51.4946L19.9346 51.2706ZM19.9346 47.4947C20.9788 46.4505 22.6667 46.4477 23.7105 47.4915L23.9344 47.2675C22.7665 46.0996 20.8781 46.1033 19.7106 47.2708L19.9346 47.4947ZM23.7105 47.4915L29.3853 53.1664L29.6093 52.9424L23.9344 47.2675L23.7105 47.4915ZM29.6093 53.1664L42.9573 39.8183L42.7333 39.5944L29.3853 52.9424L29.6093 53.1664ZM42.9573 39.8183C44.0013 38.7743 45.6892 38.7743 46.7332 39.8183L46.9572 39.5944C45.7894 38.4266 43.901 38.4266 42.7333 39.5944L42.9573 39.8183ZM46.7332 39.8183C47.7772 40.8624 47.7772 42.5535 46.7332 43.5975L46.9572 43.8215C48.1249 42.6537 48.1249 40.7621 46.9572 39.5944L46.7332 39.8183ZM46.7332 43.5975L31.3868 58.9438L31.6108 59.1678L46.9572 43.8215L46.7332 43.5975ZM31.3868 58.9438C30.8649 59.4657 30.1815 59.7252 29.4973 59.7252V60.042C30.2617 60.042 31.0269 59.7517 31.6108 59.1678L31.3868 58.9438Z" fill="url(#paint3_linear_0_27537)" fill-opacity="0.5" mask="url(#path-5-inside-2_0_27537)"/>
</g>
<defs>
<filter id="filter0_f_0_27537" x="22.5503" y="3.59477" width="61.4902" height="64.2109" filterUnits="userSpaceOnUse" color-interpolation-filters="sRGB">
<feFlood flood-opacity="0" result="BackgroundImageFix"/>
<feBlend mode="normal" in="SourceGraphic" in2="BackgroundImageFix" result="shape"/>
<feGaussianBlur stdDeviation="5.54319" result="effect1_foregroundBlur_0_27537"/>
</filter>
<filter id="filter1_b_0_27537" x="-18.7972" y="-2.75133" width="104.265" height="104.265" filterUnits="userSpaceOnUse" color-interpolation-filters="sRGB">
<feFlood flood-opacity="0" result="BackgroundImageFix"/>
<feGaussianBlur in="BackgroundImageFix" stdDeviation="9.50262"/>
<feComposite in2="SourceAlpha" operator="in" result="effect1_backgroundBlur_0_27537"/>
<feBlend mode="normal" in="SourceGraphic" in2="effect1_backgroundBlur_0_27537" result="shape"/>
</filter>
<filter id="filter2_bd_0_27537" x="7.11489" y="26.9987" width="52.4382" height="44.7634" filterUnits="userSpaceOnUse" color-interpolation-filters="sRGB">
<feFlood flood-opacity="0" result="BackgroundImageFix"/>
<feGaussianBlur in="BackgroundImageFix" stdDeviation="5.93914"/>
<feComposite in2="SourceAlpha" operator="in" result="effect1_backgroundBlur_0_27537"/>
<feColorMatrix in="SourceAlpha" type="matrix" values="0 0 0 0 0 0 0 0 0 0 0 0 0 0 0 0 0 0 127 0" result="hardAlpha"/>
<feOffset dx="3.95942" dy="3.95942"/>
<feGaussianBlur stdDeviation="3.95942"/>
<feColorMatrix type="matrix" values="0 0 0 0 0.890196 0 0 0 0 0.0235294 0 0 0 0 0.0666667 0 0 0 0.5 0"/>
<feBlend mode="normal" in2="effect1_backgroundBlur_0_27537" result="effect2_dropShadow_0_27537"/>
<feBlend mode="normal" in="SourceGraphic" in2="effect2_dropShadow_0_27537" result="shape"/>
</filter>
<linearGradient id="paint0_linear_0_27537" x1="55.9176" y1="40.2922" x2="15.6728" y2="47.222" gradientUnits="userSpaceOnUse">
<stop stop-color="#F15A29"/>
<stop offset="1" stop-color="#F15A29"/>
</linearGradient>
<linearGradient id="paint1_linear_0_27537" x1="11.2945" y1="24.5801" x2="52.5475" y2="75.6729" gradientUnits="userSpaceOnUse">
<stop stop-color="white" stop-opacity="0.25"/>
<stop offset="1" stop-color="white" stop-opacity="0"/>
</linearGradient>
<linearGradient id="paint2_linear_0_27537" x1="45.6411" y1="42.6703" x2="13.722" y2="44.0913" gradientUnits="userSpaceOnUse">
<stop stop-color="white"/>
<stop offset="1" stop-color="white" stop-opacity="0.2"/>
</linearGradient>
<linearGradient id="paint3_linear_0_27537" x1="22.0828" y1="45.9237" x2="46.4366" y2="46.1072" gradientUnits="userSpaceOnUse">
<stop stop-color="white"/>
<stop offset="1" stop-color="white" stop-opacity="0"/>
</linearGradient>
</defs>
</svg>
