<svg width="90" height="92" viewBox="0 0 90 92" fill="none" xmlns="http://www.w3.org/2000/svg">
<path d="M47.528 10.9606L21.7776 17.8604C12.4373 20.3631 8.46444 27.2893 10.9754 36.6603L19.4797 68.399C22.0319 77.9236 28.9026 81.8125 38.2429 79.3098L63.9933 72.41C73.4842 69.867 77.3363 63.1048 74.7842 53.5802L66.2799 21.8416C63.7689 12.4705 57.0188 8.41754 47.528 10.9606Z" fill="url(#paint0_linear_0_27791)"/>
<g filter="url(#filter0_f_0_27791)">
<rect x="29.9072" y="68.2383" width="41.079" height="34.7862" rx="11.2" transform="rotate(-105 29.9072 68.2383)" fill="#F15A29" fill-opacity="0.5"/>
</g>
<g filter="url(#filter1_b_0_27791)">
<path d="M71.7428 27.3828H45.0841C35.4143 27.3828 29.7842 33.0447 29.7842 42.7463V75.6046C29.7842 85.4652 35.4143 90.9999 45.0841 90.9999H71.7428C81.5685 90.9999 87.0396 85.4652 87.0396 75.6046V42.7463C87.0396 33.0447 81.5685 27.3828 71.7428 27.3828Z" fill="#F15A29" fill-opacity="0.35"/>
<path d="M71.7428 26.9828H45.0841C40.1714 26.9828 36.2338 28.4226 33.5245 31.1443C30.8154 33.8657 29.3842 37.8188 29.3842 42.7463V75.6046C29.3842 80.6101 30.8145 84.5723 33.5251 87.2828C36.2356 89.9934 40.1739 91.3999 45.0841 91.3999H71.7428C76.7295 91.3999 80.6684 89.9942 83.3598 87.2817C86.0507 84.5698 87.4396 80.6071 87.4396 75.6046V42.7463C87.4396 37.8218 86.0499 33.8682 83.3604 31.1454C80.6702 28.4218 76.732 26.9828 71.7428 26.9828Z" stroke="url(#paint1_linear_0_27791)" stroke-width="0.800003" stroke-linecap="round" stroke-linejoin="round"/>
</g>
<g filter="url(#filter2_bd_0_27791)">
<mask id="path-5-inside-1_0_27791" fill="white">
<path fill-rule="evenodd" clip-rule="evenodd" d="M45.941 42.1758V42.2076C44.5701 42.2076 43.46 43.3209 43.46 44.6887C43.46 46.0564 44.5701 47.1697 45.941 47.1697H55.4486C56.8196 47.1697 57.9329 46.0564 57.9329 44.6537C57.9329 43.2891 56.8196 42.1758 55.4486 42.1758H45.941ZM70.8789 61.5473H45.941C44.5701 61.5473 43.46 60.434 43.46 59.0663C43.46 57.6985 44.5701 56.582 45.941 56.582H70.8789C72.2467 56.582 73.36 57.6985 73.36 59.0663C73.36 60.434 72.2467 61.5473 70.8789 61.5473ZM70.8801 76.0809H45.9421C44.9879 76.2081 44.0654 75.731 43.5565 74.9358C43.0476 74.1088 43.0476 73.0591 43.5565 72.2639C44.0654 71.4369 44.9879 70.9915 45.9421 71.087H70.8801C72.1492 71.2142 73.1067 72.2957 73.1067 73.5998C73.1067 74.869 72.1492 75.9537 70.8801 76.0809Z"/>
</mask>
<path fill-rule="evenodd" clip-rule="evenodd" d="M45.941 42.1758V42.2076C44.5701 42.2076 43.46 43.3209 43.46 44.6887C43.46 46.0564 44.5701 47.1697 45.941 47.1697H55.4486C56.8196 47.1697 57.9329 46.0564 57.9329 44.6537C57.9329 43.2891 56.8196 42.1758 55.4486 42.1758H45.941ZM70.8789 61.5473H45.941C44.5701 61.5473 43.46 60.434 43.46 59.0663C43.46 57.6985 44.5701 56.582 45.941 56.582H70.8789C72.2467 56.582 73.36 57.6985 73.36 59.0663C73.36 60.434 72.2467 61.5473 70.8789 61.5473ZM70.8801 76.0809H45.9421C44.9879 76.2081 44.0654 75.731 43.5565 74.9358C43.0476 74.1088 43.0476 73.0591 43.5565 72.2639C44.0654 71.4369 44.9879 70.9915 45.9421 71.087H70.8801C72.1492 71.2142 73.1067 72.2957 73.1067 73.5998C73.1067 74.869 72.1492 75.9537 70.8801 76.0809Z" fill="url(#paint2_linear_0_27791)"/>
<path d="M45.941 42.2076V42.5276H46.261V42.2076H45.941ZM45.941 42.1758V41.8558H45.621V42.1758H45.941ZM45.9421 76.0809V75.7609H45.9209L45.8999 75.7637L45.9421 76.0809ZM70.8801 76.0809V76.4009H70.8961L70.912 76.3993L70.8801 76.0809ZM43.5565 74.9358L43.2839 75.1035L43.287 75.1083L43.5565 74.9358ZM43.5565 72.2639L43.8261 72.4364L43.829 72.4316L43.5565 72.2639ZM45.9421 71.087L45.9103 71.4054L45.9262 71.407H45.9421V71.087ZM70.8801 71.087L70.912 70.7686L70.8961 70.767H70.8801V71.087ZM46.261 42.2076V42.1758H45.621V42.2076H46.261ZM43.78 44.6887C43.78 43.4974 44.7471 42.5276 45.941 42.5276V41.8876C44.3931 41.8876 43.14 43.1444 43.14 44.6887H43.78ZM45.941 46.8497C44.7471 46.8497 43.78 45.88 43.78 44.6887H43.14C43.14 46.2329 44.3931 47.4897 45.941 47.4897V46.8497ZM55.4486 46.8497H45.941V47.4897H55.4486V46.8497ZM57.6129 44.6537C57.6129 45.8824 56.6402 46.8497 55.4486 46.8497V47.4897C56.9989 47.4897 58.2529 46.2305 58.2529 44.6537H57.6129ZM55.4486 42.4958C56.6434 42.4958 57.6129 43.4663 57.6129 44.6537H58.2529C58.2529 43.1118 56.9958 41.8558 55.4486 41.8558V42.4958ZM45.941 42.4958H55.4486V41.8558H45.941V42.4958ZM45.941 61.8673H70.8789V61.2273H45.941V61.8673ZM43.14 59.0663C43.14 60.6105 44.3931 61.8673 45.941 61.8673V61.2273C44.7471 61.2273 43.78 60.2576 43.78 59.0663H43.14ZM45.941 56.262C44.3925 56.262 43.14 57.5226 43.14 59.0663H43.78C43.78 57.8744 44.7476 56.902 45.941 56.902V56.262ZM70.8789 56.262H45.941V56.902H70.8789V56.262ZM73.68 59.0663C73.68 57.5223 72.424 56.262 70.8789 56.262V56.902C72.0694 56.902 73.04 57.8747 73.04 59.0663H73.68ZM70.8789 61.8673C72.4234 61.8673 73.68 60.6108 73.68 59.0663H73.04C73.04 60.2573 72.07 61.2273 70.8789 61.2273V61.8673ZM45.9421 76.4009H70.8801V75.7609H45.9421V76.4009ZM43.287 75.1083C43.857 75.9989 44.8964 76.5432 45.9844 76.3981L45.8999 75.7637C45.0794 75.8731 44.2739 75.4631 43.826 74.7633L43.287 75.1083ZM43.287 72.0914C42.7095 72.9937 42.713 74.1757 43.284 75.1035L43.829 74.7681C43.3821 74.0418 43.3857 73.1244 43.826 72.4364L43.287 72.0914ZM45.974 70.7685C44.8997 70.6611 43.8581 71.1631 43.284 72.0962L43.829 72.4316C44.2727 71.7106 45.0761 71.322 45.9103 71.4054L45.974 70.7685ZM70.8801 70.767H45.9421V71.407H70.8801V70.767ZM73.4267 73.5998C73.4267 72.1374 72.3507 70.9128 70.912 70.7686L70.8481 71.4054C71.9478 71.5156 72.7867 72.454 72.7867 73.5998H73.4267ZM70.912 76.3993C72.3484 76.2553 73.4267 75.0296 73.4267 73.5998H72.7867C72.7867 74.7084 71.95 75.652 70.8481 75.7625L70.912 76.3993Z" fill="url(#paint3_linear_0_27791)" mask="url(#path-5-inside-1_0_27791)"/>
</g>
<defs>
<filter id="filter0_f_0_27791" x="0.189962" y="0.469748" width="82.4043" height="86.8545" filterUnits="userSpaceOnUse" color-interpolation-filters="sRGB">
<feFlood flood-opacity="0" result="BackgroundImageFix"/>
<feBlend mode="normal" in="SourceGraphic" in2="BackgroundImageFix" result="shape"/>
<feGaussianBlur stdDeviation="10.8" result="effect1_foregroundBlur_0_27791"/>
</filter>
<filter id="filter1_b_0_27791" x="9.78431" y="7.38294" width="97.2556" height="103.617" filterUnits="userSpaceOnUse" color-interpolation-filters="sRGB">
<feFlood flood-opacity="0" result="BackgroundImageFix"/>
<feGaussianBlur in="BackgroundImageFix" stdDeviation="9.60003"/>
<feComposite in2="SourceAlpha" operator="in" result="effect1_backgroundBlur_0_27791"/>
<feBlend mode="normal" in="SourceGraphic" in2="effect1_backgroundBlur_0_27791" result="shape"/>
</filter>
<filter id="filter2_bd_0_27791" x="31.1748" y="30.1757" width="54.1856" height="57.9259" filterUnits="userSpaceOnUse" color-interpolation-filters="sRGB">
<feFlood flood-opacity="0" result="BackgroundImageFix"/>
<feGaussianBlur in="BackgroundImageFix" stdDeviation="6.00002"/>
<feComposite in2="SourceAlpha" operator="in" result="effect1_backgroundBlur_0_27791"/>
<feColorMatrix in="SourceAlpha" type="matrix" values="0 0 0 0 0 0 0 0 0 0 0 0 0 0 0 0 0 0 127 0" result="hardAlpha"/>
<feOffset dx="4.00001" dy="4.00001"/>
<feGaussianBlur stdDeviation="4.00001"/>
<feColorMatrix type="matrix" values="0 0 0 0 0.9375 0 0 0 0 0.463437 0 0 0 0 0.359375 0 0 0 0.5 0"/>
<feBlend mode="normal" in2="effect1_backgroundBlur_0_27791" result="effect2_dropShadow_0_27791"/>
<feBlend mode="normal" in="SourceGraphic" in2="effect2_dropShadow_0_27791" result="shape"/>
</filter>
<linearGradient id="paint0_linear_0_27791" x1="48.058" y1="48.1596" x2="12.5322" y2="77.7271" gradientUnits="userSpaceOnUse">
<stop stop-color="#F15A29"/>
<stop offset="1" stop-color="#F15A29"/>
</linearGradient>
<linearGradient id="paint1_linear_0_27791" x1="38.8983" y1="34.7943" x2="80.1679" y2="80.7963" gradientUnits="userSpaceOnUse">
<stop stop-color="white" stop-opacity="0.25"/>
<stop offset="1" stop-color="white" stop-opacity="0"/>
</linearGradient>
<linearGradient id="paint2_linear_0_27791" x1="71.2199" y1="48.3021" x2="37.589" y2="49.2777" gradientUnits="userSpaceOnUse">
<stop stop-color="white"/>
<stop offset="1" stop-color="white" stop-opacity="0.2"/>
</linearGradient>
<linearGradient id="paint3_linear_0_27791" x1="47.9798" y1="46.1282" x2="70.0138" y2="70.409" gradientUnits="userSpaceOnUse">
<stop stop-color="white" stop-opacity="0.25"/>
<stop offset="1" stop-color="white" stop-opacity="0"/>
</linearGradient>
</defs>
</svg>
