<svg width="85" height="84" viewBox="0 0 85 84" fill="none" xmlns="http://www.w3.org/2000/svg">
<path d="M71.7029 13.7771L48.5262 7.56702C40.1194 5.31446 33.9057 8.92526 31.6457 17.3596L23.9913 45.9257C21.6942 54.4983 25.2997 60.6216 33.7065 62.8742L56.8832 69.0843C65.4255 71.3731 71.4713 67.8359 73.7684 59.2633L81.4227 30.6972C83.6827 22.2628 80.2452 16.066 71.7029 13.7771Z" fill="url(#paint0_linear_462_22156)"/>
<g opacity="0.5" filter="url(#filter0_f_462_22156)">
<path d="M65.694 21.5391L49.8456 17.2926C44.097 15.7523 39.8481 18.2214 38.3027 23.9888L33.0686 43.5224C31.4979 49.3844 33.9633 53.5715 39.7119 55.1118L55.5602 59.3583C61.4015 60.9234 65.5356 58.5046 67.1063 52.6426L72.3404 33.109C73.8858 27.3416 71.5352 23.1042 65.694 21.5391Z" fill="#F15A29"/>
</g>
<g filter="url(#filter1_b_462_22156)">
<mask id="path-3-outside-1_462_22156" maskUnits="userSpaceOnUse" x="5.96046e-08" y="12.5713" width="68" height="68" fill="black">
<rect fill="white" x="5.96046e-08" y="12.5713" width="68" height="68"/>
<path fill-rule="evenodd" clip-rule="evenodd" d="M66.8699 46.3375V42.4776C66.97 39.1647 66.4842 35.86 65.4348 32.7153C64.9014 31.1852 64.087 29.7678 63.0331 28.5356C62.7018 28.1465 62.3394 27.7848 61.9495 27.4541C58.5637 24.7913 54.2977 23.4974 49.9997 23.8298H40.1094C37.7775 23.7798 35.579 22.7151 34.0962 20.9086L30.9037 16.4951C29.3989 14.6142 27.1061 13.5349 24.6946 13.5722H17.841C5.53986 13.5722 1.00013 20.7917 1.00013 33.0677V42.3593C1.00003 42.3987 0.999987 42.4382 1 42.4776V59.781C0.999362 61.2397 1.1169 62.6962 1.35147 64.136C1.72036 66.6806 2.59677 69.1255 3.92886 71.3263C4.53567 72.3884 5.27365 73.3704 6.1255 74.2491C10.0408 77.8298 15.2317 79.6935 20.5355 79.4226H47.3052C52.6004 79.6955 57.7831 77.831 61.6859 74.2491C62.548 73.3721 63.2959 72.3901 63.9118 71.3263C65.2518 69.124 66.1473 66.6814 66.5478 64.136C66.758 62.6938 66.8657 61.2384 66.8699 59.781V46.3493C66.87 46.3454 66.8701 46.3414 66.8701 46.3375H66.8699Z"/>
</mask>
<path fill-rule="evenodd" clip-rule="evenodd" d="M66.8699 46.3375V42.4776C66.97 39.1647 66.4842 35.86 65.4348 32.7153C64.9014 31.1852 64.087 29.7678 63.0331 28.5356C62.7018 28.1465 62.3394 27.7848 61.9495 27.4541C58.5637 24.7913 54.2977 23.4974 49.9997 23.8298H40.1094C37.7775 23.7798 35.579 22.7151 34.0962 20.9086L30.9037 16.4951C29.3989 14.6142 27.1061 13.5349 24.6946 13.5722H17.841C5.53986 13.5722 1.00013 20.7917 1.00013 33.0677V42.3593C1.00003 42.3987 0.999987 42.4382 1 42.4776V59.781C0.999362 61.2397 1.1169 62.6962 1.35147 64.136C1.72036 66.6806 2.59677 69.1255 3.92886 71.3263C4.53567 72.3884 5.27365 73.3704 6.1255 74.2491C10.0408 77.8298 15.2317 79.6935 20.5355 79.4226H47.3052C52.6004 79.6955 57.7831 77.831 61.6859 74.2491C62.548 73.3721 63.2959 72.3901 63.9118 71.3263C65.2518 69.124 66.1473 66.6814 66.5478 64.136C66.758 62.6938 66.8657 61.2384 66.8699 59.781V46.3493C66.87 46.3454 66.8701 46.3414 66.8701 46.3375H66.8699Z" fill="#F15A29" fill-opacity="0.4"/>
<path d="M66.8699 46.3375H66.0632C66.0632 46.783 66.4244 47.1442 66.8699 47.1442V46.3375ZM66.8699 42.4776L66.0636 42.4533C66.0634 42.4614 66.0632 42.4695 66.0632 42.4776H66.8699ZM65.4348 32.7153L66.2001 32.4599L66.1965 32.4498L65.4348 32.7153ZM63.0331 28.5356L62.4189 29.0586L62.4201 29.0599L63.0331 28.5356ZM61.9495 27.4541L62.4712 26.8389C62.4636 26.8325 62.4559 26.8262 62.4481 26.8201L61.9495 27.4541ZM49.9997 23.8298V24.6365C50.0205 24.6365 50.0412 24.6357 50.0619 24.6341L49.9997 23.8298ZM40.1094 23.8298L40.0921 24.6363C40.0979 24.6364 40.1037 24.6365 40.1094 24.6365V23.8298ZM34.0962 20.9086L33.4426 21.3814C33.4522 21.3947 33.4622 21.4077 33.4726 21.4204L34.0962 20.9086ZM30.9037 16.4951L31.5574 16.0223C31.5497 16.0117 31.5418 16.0013 31.5336 15.9911L30.9037 16.4951ZM24.6946 13.5722V14.379L24.7071 14.3788L24.6946 13.5722ZM1.00013 42.3593L1.80682 42.3613V42.3593H1.00013ZM1 42.4776H1.80669L1.80669 42.4773L1 42.4776ZM1 59.781L1.80669 59.7813V59.781H1ZM1.35147 64.136L2.14993 64.0203L2.14766 64.0063L1.35147 64.136ZM3.92886 71.3263L4.6293 70.9261C4.62593 70.9202 4.62249 70.9144 4.61897 70.9086L3.92886 71.3263ZM6.1255 74.2491L5.54628 74.8106C5.55754 74.8222 5.56915 74.8335 5.58109 74.8444L6.1255 74.2491ZM20.5355 79.4226V78.6159C20.5217 78.6159 20.508 78.6163 20.4943 78.617L20.5355 79.4226ZM47.3052 79.4226L47.3467 78.617C47.3329 78.6163 47.319 78.6159 47.3052 78.6159V79.4226ZM61.6859 74.2491L62.2313 74.8435C62.2415 74.8341 62.2514 74.8245 62.2611 74.8146L61.6859 74.2491ZM63.9118 71.3263L63.2226 70.907C63.2196 70.912 63.2166 70.917 63.2137 70.9221L63.9118 71.3263ZM66.5478 64.136L67.3447 64.2614L67.346 64.2524L66.5478 64.136ZM66.8699 59.781L67.6766 59.7833V59.781H66.8699ZM66.8699 46.3493L66.0634 46.3321C66.0633 46.3378 66.0632 46.3436 66.0632 46.3493H66.8699ZM66.8701 46.3375H67.6767C67.6767 45.892 67.3156 45.5308 66.8701 45.5308V46.3375ZM67.6766 46.3375V42.4776H66.0632V46.3375H67.6766ZM67.6763 42.502C67.7792 39.0941 67.2795 35.6947 66.2 32.4599L64.6696 32.9707C65.689 36.0253 66.1608 39.2352 66.0636 42.4533L67.6763 42.502ZM66.1965 32.4498C65.6301 30.8249 64.7652 29.3197 63.6462 28.0113L62.4201 29.0599C63.4087 30.2159 64.1727 31.5456 64.6731 32.9808L66.1965 32.4498ZM63.6474 28.0126C63.2877 27.5903 62.8944 27.1977 62.4712 26.8389L61.4277 28.0694C61.7844 28.3719 62.1159 28.7027 62.4189 29.0586L63.6474 28.0126ZM62.4481 26.8201C58.9032 24.032 54.437 22.6775 49.9375 23.0255L50.0619 24.6341C54.1584 24.3173 58.2241 25.5505 61.4508 28.0882L62.4481 26.8201ZM49.9997 23.0231H40.1094V24.6365H49.9997V23.0231ZM40.1267 23.0233C38.0295 22.9783 36.0527 22.0207 34.7197 20.3968L33.4726 21.4204C35.1052 23.4094 37.5255 24.5812 40.0921 24.6363L40.1267 23.0233ZM34.7498 20.4358L31.5574 16.0223L30.2501 16.9679L33.4426 21.3814L34.7498 20.4358ZM31.5336 15.9911C29.8728 13.9152 27.3426 12.7244 24.6821 12.7656L24.7071 14.3788C26.8695 14.3453 28.9251 15.3132 30.2738 16.999L31.5336 15.9911ZM24.6946 12.7655H17.841V14.3789H24.6946V12.7655ZM17.841 12.7655C11.528 12.7655 7.04855 14.6255 4.17782 18.2124C1.33716 21.7618 0.193443 26.8561 0.193443 33.0677H1.80682C1.80682 27.0032 2.93296 22.3499 5.43746 19.2205C7.9119 16.1287 11.8529 14.3789 17.841 14.3789V12.7655ZM0.193443 33.0677V42.3593H1.80682V33.0677H0.193443ZM0.193445 42.3572C0.193342 42.3974 0.193298 42.4377 0.193314 42.478L1.80669 42.4773C1.80668 42.4387 1.80672 42.4 1.80682 42.3613L0.193445 42.3572ZM0.193314 42.4776V59.781H1.80669V42.4776H0.193314ZM0.193314 59.7806C0.192654 61.283 0.313701 62.7829 0.555272 64.2657L2.14766 64.0063C1.9201 62.6095 1.80607 61.1965 1.80669 59.7813L0.193314 59.7806ZM0.553122 64.2518C0.937525 66.9033 1.85075 69.4509 3.23874 71.744L4.61897 70.9086C3.34278 68.8002 2.5032 66.4579 2.14981 64.0203L0.553122 64.2518ZM3.22842 71.7264C3.86875 72.8472 4.64746 73.8834 5.54628 74.8106L6.70471 73.6877C5.89984 72.8574 5.2026 71.9296 4.6293 70.9261L3.22842 71.7264ZM5.58109 74.8444C9.65573 78.5709 15.0576 80.5101 20.5766 80.2282L20.4943 78.617C15.4058 78.8768 10.4258 77.0888 6.66991 73.6539L5.58109 74.8444ZM20.5355 80.2293H47.3052V78.6159H20.5355V80.2293ZM47.2637 80.2282C52.7748 80.5122 58.1689 78.5718 62.2313 74.8435L61.1404 73.6548C57.3972 77.0902 52.4261 78.8787 47.3467 78.617L47.2637 80.2282ZM62.2611 74.8146C63.1708 73.8892 63.96 72.853 64.6099 71.7305L63.2137 70.9221C62.6318 71.9271 61.9252 72.855 61.1106 73.6836L62.2611 74.8146ZM64.6009 71.7456C65.9957 69.4533 66.9278 66.9109 67.3446 64.2614L65.7509 64.0107C65.3668 66.4519 64.5079 68.7946 63.2226 70.907L64.6009 71.7456ZM67.346 64.2524C67.5618 62.7724 67.6723 61.2789 67.6766 59.7833L66.0632 59.7786C66.0591 61.1979 65.9543 62.6151 65.7495 64.0197L67.346 64.2524ZM67.6766 59.781V46.3493H66.0632V59.781H67.6766ZM67.6764 46.3665C67.6767 46.3563 67.6767 46.3466 67.6767 46.3375H66.0634C66.0634 46.3362 66.0634 46.3344 66.0634 46.3321L67.6764 46.3665ZM66.8701 45.5308H66.8699V47.1442H66.8701V45.5308Z" fill="url(#paint1_linear_462_22156)" mask="url(#path-3-outside-1_462_22156)"/>
</g>
<g filter="url(#filter2_bd_462_22156)">
<path d="M50.5933 64.9434H17.4387C15.9343 64.9434 14.7148 63.7263 14.7148 62.2251C14.7148 60.7238 15.9343 59.5068 17.4387 59.5068H50.8569C51.6682 59.516 52.4277 59.9059 52.9071 60.5591C53.3238 61.0452 53.534 61.6744 53.4929 62.3128C53.4701 63.0391 53.1568 63.7261 52.623 64.2203C52.0892 64.7146 51.3794 64.975 50.6519 64.9434H50.5933Z" fill="url(#paint2_linear_462_22156)"/>
<path d="M52.777 60.6545L52.7767 60.6548L52.7846 60.6641C53.174 61.1182 53.3703 61.7061 53.3319 62.3024L53.3318 62.3024L53.3316 62.3077C53.3102 62.9908 53.0155 63.637 52.5134 64.1019C52.0112 64.5669 51.3434 64.8119 50.6589 64.7822L50.6589 64.782H50.6519H50.5933H17.4387C16.0231 64.782 14.8762 63.6369 14.8762 62.2251C14.8762 60.8133 16.0231 59.6682 17.4387 59.6682H50.856C51.6162 59.6771 52.3279 60.0425 52.777 60.6545Z" stroke="url(#paint3_linear_462_22156)" stroke-width="0.322676"/>
</g>
<defs>
<filter id="filter0_f_462_22156" x="20.5032" y="4.74341" width="64.3999" height="67.1802" filterUnits="userSpaceOnUse" color-interpolation-filters="sRGB">
<feFlood flood-opacity="0" result="BackgroundImageFix"/>
<feBlend mode="normal" in="SourceGraphic" in2="BackgroundImageFix" result="shape"/>
<feGaussianBlur stdDeviation="6.05017" result="effect1_foregroundBlur_462_22156"/>
</filter>
<filter id="filter1_b_462_22156" x="-11.907" y="0.664304" width="91.6968" height="91.6919" filterUnits="userSpaceOnUse" color-interpolation-filters="sRGB">
<feFlood flood-opacity="0" result="BackgroundImageFix"/>
<feGaussianBlur in="BackgroundImageFix" stdDeviation="6.05017"/>
<feComposite in2="SourceAlpha" operator="in" result="effect1_backgroundBlur_462_22156"/>
<feBlend mode="normal" in="SourceGraphic" in2="effect1_backgroundBlur_462_22156" result="shape"/>
</filter>
<filter id="filter2_bd_462_22156" x="2.6145" y="47.4065" width="62.9839" height="29.6401" filterUnits="userSpaceOnUse" color-interpolation-filters="sRGB">
<feFlood flood-opacity="0" result="BackgroundImageFix"/>
<feGaussianBlur in="BackgroundImageFix" stdDeviation="6.05017"/>
<feComposite in2="SourceAlpha" operator="in" result="effect1_backgroundBlur_462_22156"/>
<feColorMatrix in="SourceAlpha" type="matrix" values="0 0 0 0 0 0 0 0 0 0 0 0 0 0 0 0 0 0 127 0" result="hardAlpha"/>
<feOffset dx="4.03345" dy="4.03345"/>
<feGaussianBlur stdDeviation="4.03345"/>
<feColorMatrix type="matrix" values="0 0 0 0 0.976471 0 0 0 0 0.435294 0 0 0 0 0.352941 0 0 0 0.5 0"/>
<feBlend mode="normal" in2="effect1_backgroundBlur_462_22156" result="effect2_dropShadow_462_22156"/>
<feBlend mode="normal" in="SourceGraphic" in2="effect2_dropShadow_462_22156" result="shape"/>
</filter>
<linearGradient id="paint0_linear_462_22156" x1="55.3755" y1="43.0108" x2="14.378" y2="50.0703" gradientUnits="userSpaceOnUse">
<stop stop-color="#F15A29"/>
<stop offset="1" stop-color="#F15A29"/>
</linearGradient>
<linearGradient id="paint1_linear_462_22156" x1="11.4875" y1="21.2461" x2="53.5096" y2="73.2957" gradientUnits="userSpaceOnUse">
<stop stop-color="white" stop-opacity="0.25"/>
<stop offset="1" stop-color="white" stop-opacity="0"/>
</linearGradient>
<linearGradient id="paint2_linear_462_22156" x1="50.7483" y1="60.489" x2="9.7192" y2="70.0276" gradientUnits="userSpaceOnUse">
<stop stop-color="white"/>
<stop offset="1" stop-color="white" stop-opacity="0.2"/>
</linearGradient>
<linearGradient id="paint3_linear_462_22156" x1="20.8885" y1="60.1405" x2="21.6821" y2="67.1491" gradientUnits="userSpaceOnUse">
<stop stop-color="white" stop-opacity="0.25"/>
<stop offset="1" stop-color="white" stop-opacity="0"/>
</linearGradient>
</defs>
</svg>
