<svg width="88" height="85" viewBox="0 0 88 85" fill="none" xmlns="http://www.w3.org/2000/svg">
<g filter="url(#filter0_b_462_22172)">
<path d="M53.6396 14.406C50.3259 14.3721 47.0466 14.3043 43.7673 14.3043V13.6605C43.7328 8.57738 39.487 4.40925 34.2747 4.37536H30.8574C29.8218 4.37536 28.9589 3.56207 28.9589 2.54545C28.9589 1.15607 27.8198 0.00390625 26.37 0.00390625C24.9547 0.00390625 23.7811 1.15607 23.7811 2.54545C23.7811 6.34082 26.9568 9.45845 30.8574 9.45845H34.2747C36.622 9.45845 38.5896 11.3561 38.5896 13.6944V14.2704C33.895 14.2704 29.2695 14.3382 24.7476 14.406C12.7351 14.406 4.00195 22.9456 4.00195 34.7383V49.886C4.00195 61.6787 12.7351 70.2183 24.7131 70.2183C29.5112 70.32 34.3783 70.3539 39.2109 70.3539C44.0435 70.3539 48.8416 70.32 53.6396 70.2183C65.6176 70.2183 74.3508 61.6787 74.3508 49.886V34.7383C74.3508 22.9456 65.6176 14.406 53.6396 14.406Z" fill="url(#paint0_linear_462_22172)"/>
</g>
<g opacity="0.5" filter="url(#filter1_f_462_22172)">
<path d="M50.2177 25.2578H27.6507C19.427 25.2578 14.7676 28.6911 14.7676 34.7508V51.3636C14.7676 57.4233 19.427 60.8566 27.6507 60.8566H50.2177C58.4415 60.8566 63.0794 57.4233 63.0794 51.3636V34.7508C63.0794 28.6911 58.4415 25.2578 50.2177 25.2578Z" fill="#F15A29"/>
</g>
<g filter="url(#filter2_b_462_22172)">
<mask id="path-3-outside-1_462_22172" maskUnits="userSpaceOnUse" x="16.5605" y="27.8174" width="72" height="58" fill="black">
<rect fill="white" x="16.5605" y="27.8174" width="72" height="58"/>
<path fill-rule="evenodd" clip-rule="evenodd" d="M63.1203 28.9096C64.2108 28.9245 65.3039 28.9395 66.4008 28.9508C78.1864 28.9508 86.7793 37.3531 86.7793 48.9563V63.8604C86.7793 75.4636 78.1864 83.866 66.4008 83.866C61.6798 83.966 56.9588 83.9993 52.2039 83.9993C47.4489 83.9993 42.66 83.966 37.939 83.866C26.1534 83.866 17.5605 75.4636 17.5605 63.8604V48.9563C17.5605 37.3531 26.1535 28.9508 37.9729 28.9508C42.4222 28.8841 46.9734 28.8174 51.5925 28.8174C53.2907 28.8174 54.9889 28.8174 56.6871 28.8507C58.8282 28.8507 60.9693 28.8801 63.1203 28.9096ZM48.197 58.8937H44.6308V62.428C44.6308 63.795 43.476 64.9287 42.0835 64.9287C40.657 64.9287 39.5362 63.795 39.5362 62.428V58.8937H35.936C34.5435 58.8937 33.3887 57.7934 33.3887 56.393C33.3887 55.0259 34.5435 53.8923 35.936 53.8923H39.5362V50.3913C39.5362 49.0243 40.657 47.8906 42.0835 47.8906C43.476 47.8906 44.6308 49.0243 44.6308 50.3913V53.8923H48.197C49.5895 53.8923 50.7443 55.0259 50.7443 56.393C50.7443 57.7934 49.5895 58.8937 48.197 58.8937ZM62.633 53.2595H62.9726C64.3652 53.2595 65.5199 52.1592 65.5199 50.7588C65.5199 49.3918 64.3652 48.2581 62.9726 48.2581H62.633C61.2065 48.2581 60.0857 49.3918 60.0857 50.7588C60.0857 52.1592 61.2065 53.2595 62.633 53.2595ZM68.4402 64.7285H68.7798C70.1724 64.7285 71.3272 63.6282 71.3272 62.2278C71.3272 60.8607 70.1724 59.7271 68.7798 59.7271H68.4402C67.0137 59.7271 65.8929 60.8607 65.8929 62.2278C65.8929 63.6282 67.0137 64.7285 68.4402 64.7285Z"/>
</mask>
<path fill-rule="evenodd" clip-rule="evenodd" d="M63.1203 28.9096C64.2108 28.9245 65.3039 28.9395 66.4008 28.9508C78.1864 28.9508 86.7793 37.3531 86.7793 48.9563V63.8604C86.7793 75.4636 78.1864 83.866 66.4008 83.866C61.6798 83.966 56.9588 83.9993 52.2039 83.9993C47.4489 83.9993 42.66 83.966 37.939 83.866C26.1534 83.866 17.5605 75.4636 17.5605 63.8604V48.9563C17.5605 37.3531 26.1535 28.9508 37.9729 28.9508C42.4222 28.8841 46.9734 28.8174 51.5925 28.8174C53.2907 28.8174 54.9889 28.8174 56.6871 28.8507C58.8282 28.8507 60.9693 28.8801 63.1203 28.9096ZM48.197 58.8937H44.6308V62.428C44.6308 63.795 43.476 64.9287 42.0835 64.9287C40.657 64.9287 39.5362 63.795 39.5362 62.428V58.8937H35.936C34.5435 58.8937 33.3887 57.7934 33.3887 56.393C33.3887 55.0259 34.5435 53.8923 35.936 53.8923H39.5362V50.3913C39.5362 49.0243 40.657 47.8906 42.0835 47.8906C43.476 47.8906 44.6308 49.0243 44.6308 50.3913V53.8923H48.197C49.5895 53.8923 50.7443 55.0259 50.7443 56.393C50.7443 57.7934 49.5895 58.8937 48.197 58.8937ZM62.633 53.2595H62.9726C64.3652 53.2595 65.5199 52.1592 65.5199 50.7588C65.5199 49.3918 64.3652 48.2581 62.9726 48.2581H62.633C61.2065 48.2581 60.0857 49.3918 60.0857 50.7588C60.0857 52.1592 61.2065 53.2595 62.633 53.2595ZM68.4402 64.7285H68.7798C70.1724 64.7285 71.3272 63.6282 71.3272 62.2278C71.3272 60.8607 70.1724 59.7271 68.7798 59.7271H68.4402C67.0137 59.7271 65.8929 60.8607 65.8929 62.2278C65.8929 63.6282 67.0137 64.7285 68.4402 64.7285Z" fill="#F15A29" fill-opacity="0.35"/>
<path d="M66.4008 28.9508L66.3922 29.7983H66.4008V28.9508ZM63.1203 28.9096L63.1087 29.7571L63.1203 28.9096ZM66.4008 83.866V83.0184C66.3949 83.0184 66.3889 83.0184 66.3829 83.0186L66.4008 83.866ZM37.939 83.866L37.9569 83.0186C37.9509 83.0184 37.945 83.0184 37.939 83.0184V83.866ZM37.9729 28.9508V29.7984L37.9856 29.7982L37.9729 28.9508ZM56.6871 28.8507L56.6705 29.6981C56.676 29.6983 56.6816 29.6983 56.6871 29.6983V28.8507ZM44.6308 58.8937V58.0461C44.1627 58.0461 43.7832 58.4256 43.7832 58.8937H44.6308ZM39.5362 58.8937H40.3838C40.3838 58.4256 40.0043 58.0461 39.5362 58.0461V58.8937ZM39.5362 53.8923V54.7399C40.0043 54.7399 40.3838 54.3604 40.3838 53.8923H39.5362ZM44.6308 53.8923H43.7832C43.7832 54.3604 44.1627 54.7399 44.6308 54.7399V53.8923ZM66.4095 28.1032C65.3143 28.092 64.2227 28.077 63.1319 28.0621L63.1087 29.7571C64.199 29.772 65.2935 29.7871 66.3922 29.7983L66.4095 28.1032ZM87.6269 48.9563C87.6269 36.8694 78.6387 28.1032 66.4008 28.1032V29.7983C77.734 29.7983 85.9317 37.8368 85.9317 48.9563H87.6269ZM87.6269 63.8604V48.9563H85.9317V63.8604H87.6269ZM66.4008 84.7135C78.6387 84.7135 87.6269 75.9474 87.6269 63.8604H85.9317C85.9317 74.9799 77.734 83.0184 66.4008 83.0184V84.7135ZM52.2039 84.8469C56.9626 84.8469 61.69 84.8135 66.4188 84.7134L66.3829 83.0186C61.6697 83.1184 56.955 83.1517 52.2039 83.1517V84.8469ZM37.921 84.7134C42.6499 84.8135 47.4452 84.8469 52.2039 84.8469V83.1517C47.4526 83.1517 42.67 83.1184 37.9569 83.0186L37.921 84.7134ZM16.713 63.8604C16.713 75.9474 25.7011 84.7135 37.939 84.7135V83.0184C26.6058 83.0184 18.4081 74.9799 18.4081 63.8604H16.713ZM16.713 48.9563V63.8604H18.4081V48.9563H16.713ZM37.9729 28.1032C25.7021 28.1032 16.713 36.8684 16.713 48.9563H18.4081C18.4081 37.8377 26.6048 29.7983 37.9729 29.7983V28.1032ZM51.5925 27.9698C46.9661 27.9698 42.4089 28.0366 37.9602 28.1033L37.9856 29.7982C42.4356 29.7315 46.9807 29.665 51.5925 29.665V27.9698ZM56.7038 28.0033C54.9959 27.9698 53.2893 27.9698 51.5925 27.9698V29.665C53.2921 29.665 54.982 29.665 56.6705 29.6981L56.7038 28.0033ZM63.1319 28.0621C60.9819 28.0326 58.835 28.0031 56.6871 28.0031V29.6983C58.8214 29.6983 60.9567 29.7276 63.1087 29.7571L63.1319 28.0621ZM44.6308 59.7413H48.197V58.0461H44.6308V59.7413ZM45.4784 62.428V58.8937H43.7832V62.428H45.4784ZM42.0835 65.7763C43.9293 65.7763 45.4784 64.2778 45.4784 62.428H43.7832C43.7832 63.3122 43.0227 64.0811 42.0835 64.0811V65.7763ZM38.6886 62.428C38.6886 64.2705 40.1963 65.7763 42.0835 65.7763V64.0811C41.1177 64.0811 40.3838 63.3196 40.3838 62.428H38.6886ZM38.6886 58.8937V62.428H40.3838V58.8937H38.6886ZM35.936 59.7413H39.5362V58.0461H35.936V59.7413ZM32.5411 56.393C32.5411 58.2834 34.0976 59.7413 35.936 59.7413V58.0461C34.9893 58.0461 34.2363 57.3033 34.2363 56.393H32.5411ZM35.936 53.0447C34.0902 53.0447 32.5411 54.5431 32.5411 56.393H34.2363C34.2363 55.5087 34.9967 54.7399 35.936 54.7399V53.0447ZM39.5362 53.0447H35.936V54.7399H39.5362V53.0447ZM38.6886 50.3913V53.8923H40.3838V50.3913H38.6886ZM42.0835 47.043C40.1963 47.043 38.6886 48.5488 38.6886 50.3913H40.3838C40.3838 49.4998 41.1177 48.7382 42.0835 48.7382V47.043ZM45.4784 50.3913C45.4784 48.5415 43.9293 47.043 42.0835 47.043V48.7382C43.0227 48.7382 43.7832 49.5071 43.7832 50.3913H45.4784ZM45.4784 53.8923V50.3913H43.7832V53.8923H45.4784ZM48.197 53.0447H44.6308V54.7399H48.197V53.0447ZM51.5919 56.393C51.5919 54.5431 50.0428 53.0447 48.197 53.0447V54.7399C49.1363 54.7399 49.8967 55.5087 49.8967 56.393H51.5919ZM48.197 59.7413C50.0354 59.7413 51.5919 58.2834 51.5919 56.393H49.8967C49.8967 57.3033 49.1437 58.0461 48.197 58.0461V59.7413ZM62.9726 52.4119H62.633V54.1071H62.9726V52.4119ZM64.6723 50.7588C64.6723 51.6691 63.9193 52.4119 62.9726 52.4119V54.1071C64.811 54.1071 66.3675 52.6493 66.3675 50.7588H64.6723ZM62.9726 49.1057C63.9119 49.1057 64.6723 49.8746 64.6723 50.7588H66.3675C66.3675 48.909 64.8184 47.4106 62.9726 47.4106V49.1057ZM62.633 49.1057H62.9726V47.4106H62.633V49.1057ZM60.9333 50.7588C60.9333 49.8673 61.6672 49.1057 62.633 49.1057V47.4106C60.7458 47.4106 59.2381 48.9163 59.2381 50.7588H60.9333ZM62.633 52.4119C61.6598 52.4119 60.9333 51.6764 60.9333 50.7588H59.2381C59.2381 52.642 60.7532 54.1071 62.633 54.1071V52.4119ZM68.7798 63.8809H68.4402V65.5761H68.7798V63.8809ZM70.4796 62.2278C70.4796 63.1381 69.7265 63.8809 68.7798 63.8809V65.5761C70.6182 65.5761 72.1747 64.1182 72.1747 62.2278H70.4796ZM68.7798 60.5747C69.7191 60.5747 70.4796 61.3435 70.4796 62.2278H72.1747C72.1747 60.3779 70.6257 58.8795 68.7798 58.8795V60.5747ZM68.4402 60.5747H68.7798V58.8795H68.4402V60.5747ZM66.7405 62.2278C66.7405 61.3362 67.4744 60.5747 68.4402 60.5747V58.8795C66.553 58.8795 65.0453 60.3852 65.0453 62.2278H66.7405ZM68.4402 63.8809C67.467 63.8809 66.7405 63.1454 66.7405 62.2278H65.0453C65.0453 64.111 66.5604 65.5761 68.4402 65.5761V63.8809Z" fill="url(#paint1_linear_462_22172)" mask="url(#path-3-outside-1_462_22172)"/>
</g>
<g filter="url(#filter3_bd_462_22172)">
<mask id="path-5-inside-2_462_22172" fill="white">
<path fill-rule="evenodd" clip-rule="evenodd" d="M62.6176 53.2778H62.9573C64.3498 53.2778 65.5046 52.1774 65.5046 50.7771C65.5046 49.41 64.3498 48.2764 62.9573 48.2764H62.6176C61.1911 48.2764 60.0703 49.41 60.0703 50.7771C60.0703 52.1774 61.1911 53.2778 62.6176 53.2778ZM68.4265 64.75H68.7661C70.1587 64.75 71.3134 63.6497 71.3134 62.2493C71.3134 60.8823 70.1587 59.7486 68.7661 59.7486H68.4265C67 59.7486 65.8792 60.8823 65.8792 62.2493C65.8792 63.6497 67 64.75 68.4265 64.75Z"/>
</mask>
<path fill-rule="evenodd" clip-rule="evenodd" d="M62.6176 53.2778H62.9573C64.3498 53.2778 65.5046 52.1774 65.5046 50.7771C65.5046 49.41 64.3498 48.2764 62.9573 48.2764H62.6176C61.1911 48.2764 60.0703 49.41 60.0703 50.7771C60.0703 52.1774 61.1911 53.2778 62.6176 53.2778ZM68.4265 64.75H68.7661C70.1587 64.75 71.3134 63.6497 71.3134 62.2493C71.3134 60.8823 70.1587 59.7486 68.7661 59.7486H68.4265C67 59.7486 65.8792 60.8823 65.8792 62.2493C65.8792 63.6497 67 64.75 68.4265 64.75Z" fill="url(#paint2_linear_462_22172)"/>
<path d="M62.9573 52.9387H62.6176V53.6168H62.9573V52.9387ZM65.1655 50.7771C65.1655 51.9814 64.1714 52.9387 62.9573 52.9387V53.6168C64.5281 53.6168 65.8436 52.3735 65.8436 50.7771H65.1655ZM62.9573 48.6154C64.1685 48.6154 65.1655 49.6031 65.1655 50.7771H65.8436C65.8436 49.2169 64.5311 47.9373 62.9573 47.9373V48.6154ZM62.6176 48.6154H62.9573V47.9373H62.6176V48.6154ZM60.4093 50.7771C60.4093 49.6002 61.3754 48.6154 62.6176 48.6154V47.9373C61.0068 47.9373 59.7313 49.2198 59.7313 50.7771H60.4093ZM62.6176 52.9387C61.3724 52.9387 60.4093 51.9843 60.4093 50.7771H59.7313C59.7313 52.3706 61.0098 53.6168 62.6176 53.6168V52.9387ZM68.7661 64.411H68.4265V65.089H68.7661V64.411ZM70.9744 62.2493C70.9744 63.4537 69.9803 64.411 68.7661 64.411V65.089C70.337 65.089 71.6525 63.8457 71.6525 62.2493H70.9744ZM68.7661 60.0877C69.9773 60.0877 70.9744 61.0754 70.9744 62.2493H71.6525C71.6525 60.6892 70.34 59.4096 68.7661 59.4096V60.0877ZM68.4265 60.0877H68.7661V59.4096H68.4265V60.0877ZM66.2182 62.2493C66.2182 61.0725 67.1843 60.0877 68.4265 60.0877V59.4096C66.8157 59.4096 65.5402 60.6921 65.5402 62.2493H66.2182ZM68.4265 64.411C67.1813 64.411 66.2182 63.4566 66.2182 62.2493H65.5402C65.5402 63.8428 66.8187 65.089 68.4265 65.089V64.411Z" fill="url(#paint3_linear_462_22172)" mask="url(#path-5-inside-2_462_22172)"/>
</g>
<g filter="url(#filter4_bd_462_22172)">
<mask id="path-7-inside-3_462_22172" fill="white">
<path d="M48.1833 58.9122H44.6171V62.4465C44.6171 63.8136 43.4623 64.9472 42.0698 64.9472C40.6433 64.9472 39.5225 63.8136 39.5225 62.4465V58.9122H35.9223C34.5298 58.9122 33.375 57.8119 33.375 56.4115C33.375 55.0445 34.5298 53.9108 35.9223 53.9108H39.5225V50.4099C39.5225 49.0428 40.6433 47.9092 42.0698 47.9092C43.4623 47.9092 44.6171 49.0428 44.6171 50.4099V53.9108H48.1833C49.5758 53.9108 50.7306 55.0445 50.7306 56.4115C50.7306 57.8119 49.5758 58.9122 48.1833 58.9122Z"/>
</mask>
<path d="M48.1833 58.9122H44.6171V62.4465C44.6171 63.8136 43.4623 64.9472 42.0698 64.9472C40.6433 64.9472 39.5225 63.8136 39.5225 62.4465V58.9122H35.9223C34.5298 58.9122 33.375 57.8119 33.375 56.4115C33.375 55.0445 34.5298 53.9108 35.9223 53.9108H39.5225V50.4099C39.5225 49.0428 40.6433 47.9092 42.0698 47.9092C43.4623 47.9092 44.6171 49.0428 44.6171 50.4099V53.9108H48.1833C49.5758 53.9108 50.7306 55.0445 50.7306 56.4115C50.7306 57.8119 49.5758 58.9122 48.1833 58.9122Z" fill="url(#paint4_linear_462_22172)"/>
<path d="M44.6171 58.9122V58.5732H44.2781V58.9122H44.6171ZM39.5225 58.9122H39.8615V58.5732H39.5225V58.9122ZM39.5225 53.9108V54.2499H39.8615V53.9108H39.5225ZM44.6171 53.9108H44.2781V54.2499H44.6171V53.9108ZM48.1833 58.5732H44.6171V59.2513H48.1833V58.5732ZM44.2781 58.9122V62.4465H44.9561V58.9122H44.2781ZM44.2781 62.4465C44.2781 63.6205 43.281 64.6082 42.0698 64.6082V65.2863C43.6436 65.2863 44.9561 64.0067 44.9561 62.4465H44.2781ZM42.0698 64.6082C40.8276 64.6082 39.8615 63.6234 39.8615 62.4465H39.1835C39.1835 64.0038 40.459 65.2863 42.0698 65.2863V64.6082ZM39.8615 62.4465V58.9122H39.1835V62.4465H39.8615ZM39.5225 58.5732H35.9223V59.2513H39.5225V58.5732ZM35.9223 58.5732C34.7081 58.5732 33.714 57.6159 33.714 56.4115H33.036C33.036 58.008 34.3514 59.2513 35.9223 59.2513V58.5732ZM33.714 56.4115C33.714 55.2376 34.7111 54.2499 35.9223 54.2499V53.5718C34.3485 53.5718 33.036 54.8514 33.036 56.4115H33.714ZM35.9223 54.2499H39.5225V53.5718H35.9223V54.2499ZM39.8615 53.9108V50.4099H39.1835V53.9108H39.8615ZM39.8615 50.4099C39.8615 49.233 40.8276 48.2482 42.0698 48.2482V47.5701C40.459 47.5701 39.1835 48.8526 39.1835 50.4099H39.8615ZM42.0698 48.2482C43.281 48.2482 44.2781 49.2359 44.2781 50.4099H44.9561C44.9561 48.8497 43.6436 47.5701 42.0698 47.5701V48.2482ZM44.2781 50.4099V53.9108H44.9561V50.4099H44.2781ZM44.6171 54.2499H48.1833V53.5718H44.6171V54.2499ZM48.1833 54.2499C49.3945 54.2499 50.3916 55.2376 50.3916 56.4115H51.0697C51.0697 54.8514 49.7572 53.5718 48.1833 53.5718V54.2499ZM50.3916 56.4115C50.3916 57.6159 49.3975 58.5732 48.1833 58.5732V59.2513C49.7542 59.2513 51.0697 58.008 51.0697 56.4115H50.3916Z" fill="url(#paint5_linear_462_22172)" mask="url(#path-7-inside-3_462_22172)"/>
</g>
<defs>
<filter id="filter0_b_462_22172" x="-7.01663" y="-11.0147" width="92.3868" height="92.3868" filterUnits="userSpaceOnUse" color-interpolation-filters="sRGB">
<feFlood flood-opacity="0" result="BackgroundImageFix"/>
<feGaussianBlur in="BackgroundImageFix" stdDeviation="5.50929"/>
<feComposite in2="SourceAlpha" operator="in" result="effect1_backgroundBlur_462_22172"/>
<feBlend mode="normal" in="SourceGraphic" in2="effect1_backgroundBlur_462_22172" result="shape"/>
</filter>
<filter id="filter1_f_462_22172" x="0.358667" y="10.8489" width="77.1303" height="64.4165" filterUnits="userSpaceOnUse" color-interpolation-filters="sRGB">
<feFlood flood-opacity="0" result="BackgroundImageFix"/>
<feBlend mode="normal" in="SourceGraphic" in2="BackgroundImageFix" result="shape"/>
<feGaussianBlur stdDeviation="7.20446" result="effect1_foregroundBlur_462_22172"/>
</filter>
<filter id="filter2_b_462_22172" x="-3.6291" y="7.62774" width="111.598" height="97.5609" filterUnits="userSpaceOnUse" color-interpolation-filters="sRGB">
<feFlood flood-opacity="0" result="BackgroundImageFix"/>
<feGaussianBlur in="BackgroundImageFix" stdDeviation="10.171"/>
<feComposite in2="SourceAlpha" operator="in" result="effect1_backgroundBlur_462_22172"/>
<feBlend mode="normal" in="SourceGraphic" in2="effect1_backgroundBlur_462_22172" result="shape"/>
</filter>
<filter id="filter3_bd_462_22172" x="47.3566" y="35.5626" width="36.6697" height="41.9011" filterUnits="userSpaceOnUse" color-interpolation-filters="sRGB">
<feFlood flood-opacity="0" result="BackgroundImageFix"/>
<feGaussianBlur in="BackgroundImageFix" stdDeviation="6.35687"/>
<feComposite in2="SourceAlpha" operator="in" result="effect1_backgroundBlur_462_22172"/>
<feColorMatrix in="SourceAlpha" type="matrix" values="0 0 0 0 0 0 0 0 0 0 0 0 0 0 0 0 0 0 127 0" result="hardAlpha"/>
<feOffset dx="4.23792" dy="4.23792"/>
<feGaussianBlur stdDeviation="4.23792"/>
<feColorMatrix type="matrix" values="0 0 0 0 1 0 0 0 0 0.321569 0 0 0 0 0.54902 0 0 0 0.5 0"/>
<feBlend mode="normal" in2="effect1_backgroundBlur_462_22172" result="effect2_dropShadow_462_22172"/>
<feBlend mode="normal" in="SourceGraphic" in2="effect2_dropShadow_462_22172" result="shape"/>
</filter>
<filter id="filter4_bd_462_22172" x="20.6613" y="35.1954" width="42.783" height="42.4656" filterUnits="userSpaceOnUse" color-interpolation-filters="sRGB">
<feFlood flood-opacity="0" result="BackgroundImageFix"/>
<feGaussianBlur in="BackgroundImageFix" stdDeviation="6.35687"/>
<feComposite in2="SourceAlpha" operator="in" result="effect1_backgroundBlur_462_22172"/>
<feColorMatrix in="SourceAlpha" type="matrix" values="0 0 0 0 0 0 0 0 0 0 0 0 0 0 0 0 0 0 127 0" result="hardAlpha"/>
<feOffset dx="4.23792" dy="4.23792"/>
<feGaussianBlur stdDeviation="4.23792"/>
<feColorMatrix type="matrix" values="0 0 0 0 1 0 0 0 0 0.321569 0 0 0 0 0.54902 0 0 0 0.5 0"/>
<feBlend mode="normal" in2="effect1_backgroundBlur_462_22172" result="effect2_dropShadow_462_22172"/>
<feBlend mode="normal" in="SourceGraphic" in2="effect2_dropShadow_462_22172" result="shape"/>
</filter>
<linearGradient id="paint0_linear_462_22172" x1="44.3554" y1="39.8898" x2="-5.17094" y2="65.2816" gradientUnits="userSpaceOnUse">
<stop stop-color="#F15A29"/>
<stop offset="1" stop-color="#F15A29"/>
</linearGradient>
<linearGradient id="paint1_linear_462_22172" x1="28.579" y1="35.2462" x2="61.3552" y2="86.1662" gradientUnits="userSpaceOnUse">
<stop stop-color="white" stop-opacity="0.25"/>
<stop offset="1" stop-color="white" stop-opacity="0"/>
</linearGradient>
<linearGradient id="paint2_linear_462_22172" x1="70.5163" y1="51.2512" x2="57.9854" y2="51.53" gradientUnits="userSpaceOnUse">
<stop stop-color="white"/>
<stop offset="1" stop-color="white" stop-opacity="0.2"/>
</linearGradient>
<linearGradient id="paint3_linear_462_22172" x1="61.86" y1="50.1956" x2="72.4597" y2="59.1553" gradientUnits="userSpaceOnUse">
<stop stop-color="white" stop-opacity="0.25"/>
<stop offset="1" stop-color="white" stop-opacity="0"/>
</linearGradient>
<linearGradient id="paint4_linear_462_22172" x1="49.5001" y1="50.9859" x2="30.1684" y2="51.628" gradientUnits="userSpaceOnUse">
<stop stop-color="white"/>
<stop offset="1" stop-color="white" stop-opacity="0.2"/>
</linearGradient>
<linearGradient id="paint5_linear_462_22172" x1="36.1377" y1="49.8941" x2="46.9622" y2="63.5504" gradientUnits="userSpaceOnUse">
<stop stop-color="white" stop-opacity="0.25"/>
<stop offset="1" stop-color="white" stop-opacity="0"/>
</linearGradient>
</defs>
</svg>
