<svg width="84" height="84" viewBox="0 0 84 84" fill="none" xmlns="http://www.w3.org/2000/svg">
<g filter="url(#filter0_b_0_27543)">
<path d="M54.5647 39.3987C54.0094 38.5159 53.2203 37.6332 52.1974 37.0741C51.3791 36.6622 50.853 35.9854 50.3854 35.1909C48.8949 32.6604 49.7716 29.3353 52.2559 27.8347C55.1785 26.1574 56.1137 22.4205 54.4186 19.5074L52.4604 16.0353C50.7946 13.1222 47.1413 12.0923 44.2479 13.799C41.676 15.2114 38.3735 14.2698 36.8829 11.7686C36.4153 10.9447 36.1523 10.062 36.2107 9.17924C36.2984 8.03167 35.9477 6.94294 35.4216 6.0602C34.3403 4.23585 32.3821 3 30.2194 3H26.0985C23.965 3.05885 22.0068 4.23585 20.9255 6.0602C20.3702 6.94294 20.0487 8.03167 20.1072 9.17924C20.1656 10.062 19.9026 10.9447 19.435 11.7686C17.9444 14.2698 14.6419 15.2114 12.0992 13.799C9.17659 12.0923 5.55256 13.1222 3.85744 16.0353L1.89929 19.5074C0.233407 22.4205 1.16864 26.1574 4.06203 27.8347C6.54624 29.3353 7.42303 32.6604 5.96172 35.1909C5.46488 35.9854 4.93881 36.6622 4.12048 37.0741C3.12679 37.6332 2.25001 38.5159 1.78239 39.3987C0.701025 41.223 0.759477 43.5182 1.84084 45.4308L3.85744 48.9618C4.93881 50.845 6.95541 52.022 9.05969 52.022C10.0534 52.022 11.2224 51.7277 12.1577 51.1392C12.8883 50.639 13.7651 50.4625 14.7296 50.4625C17.6229 50.4625 20.0487 52.9047 20.1072 55.8178C20.1072 59.2017 22.796 61.8499 26.1862 61.8499H30.1609C33.5219 61.8499 36.2107 59.2017 36.2107 55.8178C36.2984 52.9047 38.7242 50.4625 41.6176 50.4625C42.5528 50.4625 43.4296 50.639 44.1895 51.1392C45.1247 51.7277 46.2645 52.022 47.2874 52.022C49.3625 52.022 51.3791 50.845 52.4604 48.9618L54.5063 45.4308C55.5584 43.4593 55.6461 41.223 54.5647 39.3987" fill="url(#paint0_linear_0_27543)"/>
</g>
<g opacity="0.5" filter="url(#filter1_f_0_27543)">
<path d="M41.964 36.1799C41.6777 35.7256 41.2708 35.2712 40.7434 34.9835C40.3214 34.7714 40.0502 34.4231 39.8091 34.0142C39.0405 32.7117 39.4926 31.0003 40.7735 30.2279C42.2805 29.3646 42.7627 27.4411 41.8887 25.9418L40.879 24.1546C40.02 22.6553 38.1363 22.1252 36.6444 23.0036C35.3183 23.7306 33.6154 23.2459 32.8469 21.9586C32.6057 21.5345 32.4701 21.0802 32.5003 20.6258C32.5455 20.0351 32.3646 19.4748 32.0934 19.0204C31.5358 18.0814 30.5261 17.4453 29.411 17.4453H27.2861C26.1861 17.4756 25.1764 18.0814 24.6188 19.0204C24.3325 19.4748 24.1667 20.0351 24.1969 20.6258C24.227 21.0802 24.0914 21.5345 23.8502 21.9586C23.0817 23.2459 21.3788 23.7306 20.0678 23.0036C18.5608 22.1252 16.6921 22.6553 15.8181 24.1546L14.8084 25.9418C13.9495 27.4411 14.4317 29.3646 15.9236 30.2279C17.2045 31.0003 17.6566 32.7117 16.9031 34.0142C16.6469 34.4231 16.3757 34.7714 15.9537 34.9835C15.4414 35.2712 14.9893 35.7256 14.7481 36.1799C14.1906 37.1189 14.2207 38.3003 14.7783 39.2847L15.8181 41.1021C16.3757 42.0714 17.4155 42.6772 18.5005 42.6772C19.0129 42.6772 19.6157 42.5258 20.0979 42.2229C20.4746 41.9654 20.9267 41.8745 21.424 41.8745C22.9159 41.8745 24.1667 43.1316 24.1969 44.631C24.1969 46.3727 25.5833 47.7357 27.3314 47.7357H29.3808C31.1138 47.7357 32.5003 46.3727 32.5003 44.631C32.5455 43.1316 33.7963 41.8745 35.2882 41.8745C35.7704 41.8745 36.2225 41.9654 36.6143 42.2229C37.0965 42.5258 37.6842 42.6772 38.2117 42.6772C39.2816 42.6772 40.3214 42.0714 40.879 41.1021L41.9339 39.2847C42.4764 38.27 42.5216 37.1189 41.964 36.1799" fill="#F15A29"/>
</g>
<g filter="url(#filter2_b_0_27543)">
<mask id="path-3-outside-1_0_27543" maskUnits="userSpaceOnUse" x="16.1309" y="9.78906" width="68" height="73" fill="black">
<rect fill="white" x="16.1309" y="9.78906" width="68" height="73"/>
<path d="M82.0641 54.5032C81.391 53.443 80.4344 52.3828 79.1944 51.7114C78.2024 51.2167 77.5647 50.4039 76.9978 49.4497C75.1909 46.4106 76.2538 42.4173 79.2652 40.615C82.8082 38.6007 83.9419 34.1127 81.887 30.6141L79.5133 26.4442C77.4938 22.9456 73.0652 21.7088 69.5577 23.7584C66.4399 25.4547 62.4365 24.3238 60.6296 21.32C60.0627 20.3305 59.7438 19.2704 59.8147 18.2102C59.921 16.832 59.4958 15.5245 58.8581 14.4643C57.5472 12.2733 55.1735 10.7891 52.5518 10.7891H47.5563C44.9699 10.8597 42.5962 12.2733 41.2853 14.4643C40.6122 15.5245 40.2225 16.832 40.2933 18.2102C40.3642 19.2704 40.0453 20.3305 39.4784 21.32C37.6716 24.3238 33.6681 25.4547 30.5858 23.7584C27.0428 21.7088 22.6496 22.9456 20.5948 26.4442L18.221 30.6141C16.2016 34.1127 17.3353 38.6007 20.8428 40.615C23.8542 42.4173 24.9171 46.4106 23.1457 49.4497C22.5434 50.4039 21.9056 51.2167 20.9136 51.7114C19.709 52.3828 18.6462 53.443 18.0793 54.5032C16.7684 56.6942 16.8393 59.4506 18.1502 61.7476L20.5948 65.9883C21.9056 68.25 24.3502 69.6635 26.9011 69.6635C28.1057 69.6635 29.5229 69.3101 30.6566 68.6034C31.5423 68.0026 32.6052 67.7906 33.7744 67.7906C37.2818 67.7906 40.2225 70.7237 40.2933 74.2222C40.2933 78.2862 43.5528 81.4667 47.6625 81.4667H52.4809C56.5552 81.4667 59.8147 78.2862 59.8147 74.2222C59.921 70.7237 62.8616 67.7906 66.3691 67.7906C67.5028 67.7906 68.5657 68.0026 69.4868 68.6034C70.6206 69.3101 72.0023 69.6635 73.2423 69.6635C75.7578 69.6635 78.2024 68.25 79.5133 65.9883L81.9933 61.7476C83.2687 59.3799 83.375 56.6942 82.0641 54.5032"/>
</mask>
<path d="M82.0641 54.5032C81.391 53.443 80.4344 52.3828 79.1944 51.7114C78.2024 51.2167 77.5647 50.4039 76.9978 49.4497C75.1909 46.4106 76.2538 42.4173 79.2652 40.615C82.8082 38.6007 83.9419 34.1127 81.887 30.6141L79.5133 26.4442C77.4938 22.9456 73.0652 21.7088 69.5577 23.7584C66.4399 25.4547 62.4365 24.3238 60.6296 21.32C60.0627 20.3305 59.7438 19.2704 59.8147 18.2102C59.921 16.832 59.4958 15.5245 58.8581 14.4643C57.5472 12.2733 55.1735 10.7891 52.5518 10.7891H47.5563C44.9699 10.8597 42.5962 12.2733 41.2853 14.4643C40.6122 15.5245 40.2225 16.832 40.2933 18.2102C40.3642 19.2704 40.0453 20.3305 39.4784 21.32C37.6716 24.3238 33.6681 25.4547 30.5858 23.7584C27.0428 21.7088 22.6496 22.9456 20.5948 26.4442L18.221 30.6141C16.2016 34.1127 17.3353 38.6007 20.8428 40.615C23.8542 42.4173 24.9171 46.4106 23.1457 49.4497C22.5434 50.4039 21.9056 51.2167 20.9136 51.7114C19.709 52.3828 18.6462 53.443 18.0793 54.5032C16.7684 56.6942 16.8393 59.4506 18.1502 61.7476L20.5948 65.9883C21.9056 68.25 24.3502 69.6635 26.9011 69.6635C28.1057 69.6635 29.5229 69.3101 30.6566 68.6034C31.5423 68.0026 32.6052 67.7906 33.7744 67.7906C37.2818 67.7906 40.2225 70.7237 40.2933 74.2222C40.2933 78.2862 43.5528 81.4667 47.6625 81.4667H52.4809C56.5552 81.4667 59.8147 78.2862 59.8147 74.2222C59.921 70.7237 62.8616 67.7906 66.3691 67.7906C67.5028 67.7906 68.5657 68.0026 69.4868 68.6034C70.6206 69.3101 72.0023 69.6635 73.2423 69.6635C75.7578 69.6635 78.2024 68.25 79.5133 65.9883L81.9933 61.7476C83.2687 59.3799 83.375 56.6942 82.0641 54.5032" fill="#F15A29" fill-opacity="0.4"/>
<path d="M81.7551 54.6994C81.8635 54.8701 82.0897 54.9206 82.2604 54.8122C82.431 54.7038 82.4816 54.4776 82.3732 54.3069L81.7551 54.6994ZM79.1944 51.7114L79.3688 51.3893L79.3578 51.3838L79.1944 51.7114ZM76.9978 49.4497L77.3125 49.2627L77.3124 49.2626L76.9978 49.4497ZM79.2652 40.615L79.0843 40.2967L79.0773 40.3009L79.2652 40.615ZM81.887 30.6141L81.5688 30.7953L81.5713 30.7995L81.887 30.6141ZM79.5133 26.4442L79.8314 26.2631L79.8303 26.2611L79.5133 26.4442ZM69.5577 23.7584L69.7327 24.0801L69.7424 24.0745L69.5577 23.7584ZM60.6296 21.32L60.3119 21.502L60.3159 21.5087L60.6296 21.32ZM59.8147 18.2102L59.4497 18.1821L59.4495 18.1858L59.8147 18.2102ZM58.8581 14.4643L58.544 14.6522L58.5444 14.653L58.8581 14.4643ZM47.5563 10.7891V10.4229L47.5463 10.4231L47.5563 10.7891ZM41.2853 14.4643L41.5945 14.6606L41.5995 14.6522L41.2853 14.4643ZM40.2933 18.2102L39.9277 18.229L39.9281 18.2346L40.2933 18.2102ZM39.4784 21.32L39.7922 21.5088L39.7961 21.502L39.4784 21.32ZM30.5858 23.7584L30.4024 24.0753L30.4093 24.0791L30.5858 23.7584ZM20.5948 26.4442L20.2791 26.2587L20.2766 26.2631L20.5948 26.4442ZM18.221 30.6141L18.5381 30.7971L18.5392 30.7952L18.221 30.6141ZM20.8428 40.615L21.0308 40.3009L21.0251 40.2976L20.8428 40.615ZM23.1457 49.4497L23.4554 49.6452L23.4619 49.6341L23.1457 49.4497ZM20.9136 51.7114L20.7502 51.3838C20.7452 51.3863 20.7403 51.3889 20.7354 51.3917L20.9136 51.7114ZM18.0793 54.5032L18.3934 54.6911C18.3965 54.6861 18.3994 54.681 18.4021 54.6758L18.0793 54.5032ZM18.1502 61.7476L17.8322 61.9291L17.833 61.9305L18.1502 61.7476ZM20.5948 65.9883L20.2776 66.1711L20.278 66.1719L20.5948 65.9883ZM30.6566 68.6034L30.8504 68.9142L30.8621 68.9063L30.6566 68.6034ZM40.2933 74.2222H40.6595L40.6593 74.2148L40.2933 74.2222ZM59.8147 74.2222L59.4486 74.2111V74.2222H59.8147ZM69.4868 68.6034L69.2868 68.91L69.2932 68.914L69.4868 68.6034ZM79.5133 65.9883L79.1972 65.8035L79.1965 65.8047L79.5133 65.9883ZM81.9933 61.7476L82.3095 61.9325L82.3156 61.9212L81.9933 61.7476ZM82.3783 54.3152C82.2745 54.1417 82.0497 54.0852 81.8762 54.189C81.7027 54.2928 81.6462 54.5176 81.75 54.6911L82.3783 54.3152ZM82.3732 54.3069C81.6776 53.2115 80.6792 52.0991 79.3687 51.3895L79.0201 52.0333C80.1896 52.6666 81.1044 53.6745 81.7551 54.6994L82.3732 54.3069ZM79.3578 51.3838C78.4592 50.9357 77.8662 50.1947 77.3125 49.2627L76.6831 49.6367C77.2631 50.613 77.9455 51.4976 79.031 52.039L79.3578 51.3838ZM77.3124 49.2626C75.6109 46.4007 76.6111 42.6301 79.4532 40.9291L79.0773 40.3009C75.8965 42.2045 74.7709 46.4204 76.6831 49.6368L77.3124 49.2626ZM79.4462 40.9332C83.1713 38.8154 84.3582 34.0987 82.2026 30.4287L81.5713 30.7995C83.5256 34.1267 82.445 38.3861 79.0843 40.2968L79.4462 40.9332ZM82.2051 30.433L79.8314 26.2631L79.1951 26.6253L81.5689 30.7952L82.2051 30.433ZM79.8303 26.2611C77.7118 22.5911 73.0599 21.2879 69.373 23.4423L69.7424 24.0745C73.0705 22.1296 77.2758 23.3002 79.1962 26.6272L79.8303 26.2611ZM69.3827 23.4368C66.4394 25.0382 62.6504 23.9694 60.9433 21.1313L60.3159 21.5087C62.2225 24.6783 66.4404 25.8711 69.7326 24.08L69.3827 23.4368ZM60.9472 21.1381C60.4058 20.193 60.1151 19.2044 60.18 18.2346L59.4495 18.1858C59.3726 19.3364 59.7196 20.4681 60.3119 21.502L60.9472 21.1381ZM60.1797 18.2384C60.2931 16.7676 59.8391 15.3849 59.1718 14.2756L58.5444 14.653C59.1526 15.664 59.5489 16.8964 59.4497 18.1821L60.1797 18.2384ZM59.1723 14.2763C57.8013 11.9849 55.3135 10.423 52.5518 10.423V11.1551C55.0335 11.1551 57.2932 12.5617 58.544 14.6522L59.1723 14.2763ZM52.5518 10.423H47.5563V11.1551H52.5518V10.423ZM47.5463 10.4231C44.8334 10.4973 42.3456 11.9791 40.9712 14.2763L41.5995 14.6522C42.8468 12.5674 45.1065 11.2222 47.5663 11.155L47.5463 10.4231ZM40.9763 14.2681C40.2652 15.388 39.8527 16.7701 39.9277 18.229L40.6589 18.1914C40.5922 16.8939 40.9592 15.6609 41.5944 14.6605L40.9763 14.2681ZM39.9281 18.2346C39.9929 19.2044 39.7022 20.193 39.1608 21.1381L39.7961 21.502C40.3884 20.4681 40.7355 19.3364 40.6586 18.1858L39.9281 18.2346ZM39.1647 21.1313C37.4568 23.9706 33.6682 25.0369 30.7622 23.4377L30.4093 24.0791C33.668 25.8725 37.8863 24.677 39.7921 21.5087L39.1647 21.1313ZM30.7691 23.4415C27.0469 21.2882 22.4329 22.5918 20.2791 26.2588L20.9104 26.6296C22.8664 23.2994 27.0388 22.1293 30.4024 24.0753L30.7691 23.4415ZM20.2766 26.2631L17.9029 30.433L18.5392 30.7952L20.9129 26.6253L20.2766 26.2631ZM17.904 30.4311C15.7865 34.0994 16.9718 38.8141 20.6605 40.9325L21.0251 40.2976C17.6988 38.3873 16.6166 34.126 18.5381 30.7971L17.904 30.4311ZM20.6548 40.9291C23.497 42.6301 24.4982 46.4023 22.8294 49.2654L23.4619 49.6341C25.336 46.4189 24.2115 42.2045 21.0308 40.3009L20.6548 40.9291ZM22.8361 49.2543C22.2432 50.1936 21.6498 50.9352 20.7502 51.3838L21.077 52.039C22.1614 51.4982 22.8435 50.6141 23.4552 49.6451L22.8361 49.2543ZM20.7354 51.3917C19.4761 52.0936 18.3599 53.2021 17.7565 54.3306L18.4021 54.6758C18.9325 53.6839 19.9419 52.6721 21.0919 52.0312L20.7354 51.3917ZM17.7652 54.3152C16.3795 56.6313 16.4628 59.5295 17.8322 61.9291L18.4681 61.5662C17.2157 59.3717 17.1574 56.7571 18.3934 54.6911L17.7652 54.3152ZM17.833 61.9305L20.2776 66.1711L20.9119 65.8055L18.4673 61.5648L17.833 61.9305ZM20.278 66.1719C21.6533 68.5446 24.2175 70.0296 26.9011 70.0296V69.2974C24.483 69.2974 22.158 67.9554 20.9115 65.8047L20.278 66.1719ZM26.9011 70.0296C28.168 70.0296 29.6534 69.6602 30.8503 68.914L30.4629 68.2927C29.3924 68.9601 28.0435 69.2974 26.9011 69.2974V70.0296ZM30.8621 68.9063C31.6651 68.3616 32.6463 68.1566 33.7744 68.1566V67.4245C32.5641 67.4245 31.4195 67.6436 30.4511 68.3004L30.8621 68.9063ZM33.7744 68.1566C37.0791 68.1566 39.8604 70.9269 39.9273 74.2296L40.6593 74.2148C40.5845 70.5205 37.4846 67.4245 33.7744 67.4245V68.1566ZM39.9272 74.2222C39.9272 78.495 43.3573 81.8328 47.6625 81.8328V81.1006C43.7482 81.1006 40.6594 78.0774 40.6594 74.2222H39.9272ZM47.6625 81.8328H52.4809V81.1006H47.6625V81.8328ZM52.4809 81.8328C56.7519 81.8328 60.1808 78.4939 60.1808 74.2222H59.4486C59.4486 78.0785 56.3586 81.1006 52.4809 81.1006V81.8328ZM60.1806 74.2333C60.2811 70.9269 63.0651 68.1566 66.3691 68.1566V67.4245C62.6581 67.4245 59.5609 70.5205 59.4488 74.2111L60.1806 74.2333ZM66.3691 68.1566C67.4585 68.1566 68.4442 68.3604 69.2869 68.91L69.6868 68.2967C68.6872 67.6448 67.5471 67.4245 66.3691 67.4245V68.1566ZM69.2932 68.914C70.4893 69.6597 71.9391 70.0296 73.2423 70.0296V69.2974C72.0655 69.2974 70.7518 68.9606 69.6805 68.2927L69.2932 68.914ZM73.2423 70.0296C75.8915 70.0296 78.4552 68.5437 79.83 66.1719L79.1965 65.8047C77.9495 67.9562 75.624 69.2974 73.2423 69.2974V70.0296ZM79.8293 66.1731L82.3093 61.9324L81.6773 61.5628L79.1973 65.8035L79.8293 66.1731ZM82.3156 61.9212C83.6411 59.4606 83.7666 56.6356 82.3783 54.3152L81.75 54.6911C82.9834 56.7527 82.8964 59.2992 81.671 61.574L82.3156 61.9212Z" fill="url(#paint1_linear_0_27543)" mask="url(#path-3-outside-1_0_27543)"/>
</g>
<g filter="url(#filter3_bd_0_27543)">
<path d="M50.1156 55.8531C44.5532 55.8531 40.0537 51.4358 40.0537 45.8876C40.0537 40.3394 44.5532 35.8867 50.1156 35.8867C55.6779 35.8867 60.0711 40.3394 60.0711 45.8876C60.0711 51.4358 55.6779 55.8531 50.1156 55.8531Z" fill="url(#paint2_linear_0_27543)"/>
<path d="M50.1156 55.6833C44.645 55.6833 40.2235 51.34 40.2235 45.8876C40.2235 40.4344 44.6458 36.0565 50.1156 36.0565C55.583 36.0565 59.9013 40.432 59.9013 45.8876C59.9013 51.3424 55.5837 55.6833 50.1156 55.6833Z" stroke="url(#paint3_linear_0_27543)" stroke-width="0.339603"/>
</g>
<defs>
<filter id="filter0_b_0_27543" x="-10.0371" y="-8.0371" width="76.4111" height="80.9243" filterUnits="userSpaceOnUse" color-interpolation-filters="sRGB">
<feFlood flood-opacity="0" result="BackgroundImageFix"/>
<feGaussianBlur in="BackgroundImageFix" stdDeviation="5.51855"/>
<feComposite in2="SourceAlpha" operator="in" result="effect1_backgroundBlur_0_27543"/>
<feBlend mode="normal" in="SourceGraphic" in2="effect1_backgroundBlur_0_27543" result="shape"/>
</filter>
<filter id="filter1_f_0_27543" x="0.760602" y="3.86119" width="55.1858" height="57.4588" filterUnits="userSpaceOnUse" color-interpolation-filters="sRGB">
<feFlood flood-opacity="0" result="BackgroundImageFix"/>
<feBlend mode="normal" in="SourceGraphic" in2="BackgroundImageFix" result="shape"/>
<feGaussianBlur stdDeviation="6.79206" result="effect1_foregroundBlur_0_27543"/>
</filter>
<filter id="filter2_b_0_27543" x="-3.61154" y="-9.95333" width="107.354" height="112.162" filterUnits="userSpaceOnUse" color-interpolation-filters="sRGB">
<feFlood flood-opacity="0" result="BackgroundImageFix"/>
<feGaussianBlur in="BackgroundImageFix" stdDeviation="10.1881"/>
<feComposite in2="SourceAlpha" operator="in" result="effect1_backgroundBlur_0_27543"/>
<feBlend mode="normal" in="SourceGraphic" in2="effect1_backgroundBlur_0_27543" result="shape"/>
</filter>
<filter id="filter3_bd_0_27543" x="27.3186" y="23.1516" width="45.4878" height="45.4365" filterUnits="userSpaceOnUse" color-interpolation-filters="sRGB">
<feFlood flood-opacity="0" result="BackgroundImageFix"/>
<feGaussianBlur in="BackgroundImageFix" stdDeviation="6.36756"/>
<feComposite in2="SourceAlpha" operator="in" result="effect1_backgroundBlur_0_27543"/>
<feColorMatrix in="SourceAlpha" type="matrix" values="0 0 0 0 0 0 0 0 0 0 0 0 0 0 0 0 0 0 127 0" result="hardAlpha"/>
<feOffset dx="4.24504" dy="4.24504"/>
<feGaussianBlur stdDeviation="4.24504"/>
<feColorMatrix type="matrix" values="0 0 0 0 0.890196 0 0 0 0 0.0235294 0 0 0 0 0.0666667 0 0 0 0.4 0"/>
<feBlend mode="normal" in2="effect1_backgroundBlur_0_27543" result="effect2_dropShadow_0_27543"/>
<feBlend mode="normal" in="SourceGraphic" in2="effect2_dropShadow_0_27543" result="shape"/>
</filter>
<linearGradient id="paint0_linear_0_27543" x1="32.1685" y1="36.3658" x2="-7.29646" y2="55.0477" gradientUnits="userSpaceOnUse">
<stop stop-color="#F15A29"/>
<stop offset="1" stop-color="#F15A29"/>
</linearGradient>
<linearGradient id="paint1_linear_0_27543" x1="27.6161" y1="19.0231" x2="80.5443" y2="77.6296" gradientUnits="userSpaceOnUse">
<stop stop-color="white" stop-opacity="0.25"/>
<stop offset="1" stop-color="white" stop-opacity="0"/>
</linearGradient>
<linearGradient id="paint2_linear_0_27543" x1="58.6519" y1="39.4923" x2="36.3545" y2="40.2211" gradientUnits="userSpaceOnUse">
<stop stop-color="white"/>
<stop offset="1" stop-color="white" stop-opacity="0.2"/>
</linearGradient>
<linearGradient id="paint3_linear_0_27543" x1="43.2402" y1="38.2128" x2="55.9697" y2="54.019" gradientUnits="userSpaceOnUse">
<stop stop-color="white" stop-opacity="0.25"/>
<stop offset="1" stop-color="white" stop-opacity="0"/>
</linearGradient>
</defs>
</svg>
