<svg width="63" height="58" viewBox="0 0 63 58" fill="none" xmlns="http://www.w3.org/2000/svg">
<g id="Iconly/Glass/Graph">
<g id="Graph">
<g id="Bg">
<path id="Fill 10" d="M46.0095 25.5047C46.0095 37.3818 36.3818 47.0095 24.5047 47.0095C12.6277 47.0095 3 37.3818 3 25.5047C3 13.6298 12.6277 4 24.5047 4C36.3818 4 46.0095 13.6298 46.0095 25.5047Z" fill="url(#paint0_linear_689_12185)"/>
<g id="Fill 11" opacity="0.5" filter="url(#filter0_f_689_12185)">
<path d="M33.9693 22.2698C33.9693 28.6689 28.7822 33.856 22.3831 33.856C15.984 33.856 10.7969 28.6689 10.7969 22.2698C10.7969 15.8719 15.984 10.6836 22.3831 10.6836C28.7822 10.6836 33.9693 15.8719 33.9693 22.2698Z" fill="#F15A29"/>
</g>
</g>
<g id="Icon">
<g id="Fill 9" filter="url(#filter1_b_689_12185)">
<path d="M10.8968 32.3546C10.8968 20.4776 20.5245 10.8499 32.4015 10.8499C44.2786 10.8499 53.9063 20.4776 53.9063 32.3546C53.9063 44.2296 44.2786 53.8594 32.4015 53.8594C20.5245 53.8594 10.8968 44.2296 10.8968 32.3546Z" fill="#F15A29" fill-opacity="0.35"/>
<path d="M32.4015 10.5866C20.379 10.5866 10.6335 20.3321 10.6335 32.3546C10.6335 44.375 20.379 54.1227 32.4015 54.1227C44.424 54.1227 54.1696 44.375 54.1696 32.3546C54.1696 20.3322 44.424 10.5866 32.4015 10.5866Z" stroke="url(#paint1_linear_689_12185)" stroke-width="0.526646" stroke-linecap="round" stroke-linejoin="round"/>
</g>
<g id="Graph - Bd" filter="url(#filter2_bd_689_12185)">
<path d="M35.8589 7.58897C35.2633 7.50127 34.658 7.64352 34.1763 7.98436C33.6946 8.3252 33.3762 8.83664 33.2911 9.40589L33.2565 9.74122L32.5866 30.2242C32.5141 30.8984 32.7424 31.5731 33.2152 32.0827C33.688 32.5923 34.3616 32.8894 35.0705 32.9012L56.4582 33.7281C57.054 33.7523 57.633 33.5485 58.0674 33.1617C58.5017 32.7749 58.7555 32.2371 58.7726 31.6672C58.7921 31.597 58.7996 31.5242 58.7948 31.4516C58.1129 19.2983 48.4669 9.2626 35.8589 7.58897Z" fill="url(#paint2_linear_689_12185)"/>
</g>
<g id="Ellipse 227" filter="url(#filter3_bd_689_12185)">
<circle cx="31.9639" cy="32.9678" r="3.68653" fill="url(#paint3_linear_689_12185)"/>
<circle cx="31.9639" cy="32.9678" r="3.5812" stroke="url(#paint4_linear_689_12185)" stroke-width="0.210659"/>
</g>
</g>
</g>
</g>
<defs>
<filter id="filter0_f_689_12185" x="0.790591" y="0.67731" width="43.1844" height="43.1849" filterUnits="userSpaceOnUse" color-interpolation-filters="sRGB">
<feFlood flood-opacity="0" result="BackgroundImageFix"/>
<feBlend mode="normal" in="SourceGraphic" in2="BackgroundImageFix" result="shape"/>
<feGaussianBlur stdDeviation="5.00314" result="effect1_foregroundBlur_689_12185"/>
</filter>
<filter id="filter1_b_689_12185" x="-2.26842" y="-2.31627" width="69.3415" height="69.3418" filterUnits="userSpaceOnUse" color-interpolation-filters="sRGB">
<feFlood flood-opacity="0" result="BackgroundImageFix"/>
<feGaussianBlur in="BackgroundImageFix" stdDeviation="6.31976"/>
<feComposite in2="SourceAlpha" operator="in" result="effect1_backgroundBlur_689_12185"/>
<feBlend mode="normal" in="SourceGraphic" in2="effect1_backgroundBlur_689_12185" result="shape"/>
</filter>
<filter id="filter2_bd_689_12185" x="24.6745" y="-0.335977" width="42.0221" height="41.9657" filterUnits="userSpaceOnUse" color-interpolation-filters="sRGB">
<feFlood flood-opacity="0" result="BackgroundImageFix"/>
<feGaussianBlur in="BackgroundImageFix" stdDeviation="3.94985"/>
<feComposite in2="SourceAlpha" operator="in" result="effect1_backgroundBlur_689_12185"/>
<feColorMatrix in="SourceAlpha" type="matrix" values="0 0 0 0 0 0 0 0 0 0 0 0 0 0 0 0 0 0 127 0" result="hardAlpha"/>
<feOffset dx="-1.57994" dy="2.63323"/>
<feGaussianBlur stdDeviation="2.63323"/>
<feColorMatrix type="matrix" values="0 0 0 0 1 0 0 0 0 0.52549 0 0 0 0 0.137255 0 0 0 0.3 0"/>
<feBlend mode="normal" in2="effect1_backgroundBlur_689_12185" result="effect2_dropShadow_689_12185"/>
<feBlend mode="normal" in="SourceGraphic" in2="effect2_dropShadow_689_12185" result="shape"/>
</filter>
<filter id="filter3_bd_689_12185" x="20.3776" y="21.3816" width="23.1744" height="23.1724" filterUnits="userSpaceOnUse" color-interpolation-filters="sRGB">
<feFlood flood-opacity="0" result="BackgroundImageFix"/>
<feGaussianBlur in="BackgroundImageFix" stdDeviation="3.94985"/>
<feComposite in2="SourceAlpha" operator="in" result="effect1_backgroundBlur_689_12185"/>
<feColorMatrix in="SourceAlpha" type="matrix" values="0 0 0 0 0 0 0 0 0 0 0 0 0 0 0 0 0 0 127 0" result="hardAlpha"/>
<feOffset dx="2.63323" dy="2.63323"/>
<feGaussianBlur stdDeviation="2.63323"/>
<feColorMatrix type="matrix" values="0 0 0 0 1 0 0 0 0 0.52549 0 0 0 0 0.137255 0 0 0 0.5 0"/>
<feBlend mode="normal" in2="effect1_backgroundBlur_689_12185" result="effect2_dropShadow_689_12185"/>
<feBlend mode="normal" in="SourceGraphic" in2="effect2_dropShadow_689_12185" result="shape"/>
</filter>
<linearGradient id="paint0_linear_689_12185" x1="27.6711" y1="28.3848" x2="-2.60786" y2="43.9089" gradientUnits="userSpaceOnUse">
<stop stop-color="#F15A29"/>
<stop offset="1" stop-color="#F15A29"/>
</linearGradient>
<linearGradient id="paint1_linear_689_12185" x1="54.0317" y1="54.1518" x2="8.5005" y2="15.5891" gradientUnits="userSpaceOnUse">
<stop stop-color="white" stop-opacity="0.4"/>
<stop offset="1" stop-color="white" stop-opacity="0"/>
</linearGradient>
<linearGradient id="paint2_linear_689_12185" x1="58.581" y1="14.5188" x2="12.282" y2="7.89526" gradientUnits="userSpaceOnUse">
<stop stop-color="white" stop-opacity="0.2"/>
<stop offset="1" stop-color="white"/>
</linearGradient>
<linearGradient id="paint3_linear_689_12185" x1="35.1277" y1="30.6127" x2="22.6583" y2="30.1646" gradientUnits="userSpaceOnUse">
<stop stop-color="white"/>
<stop offset="1" stop-color="white" stop-opacity="0.2"/>
</linearGradient>
<linearGradient id="paint4_linear_689_12185" x1="29.451" y1="30.1402" x2="34.1542" y2="35.9653" gradientUnits="userSpaceOnUse">
<stop stop-color="white" stop-opacity="0.25"/>
<stop offset="1" stop-color="white" stop-opacity="0"/>
</linearGradient>
</defs>
</svg>
