<svg width="84" height="84" viewBox="0 0 84 84" fill="none" xmlns="http://www.w3.org/2000/svg">
<path d="M41.5612 8.03948L15.104 15.1287C5.46262 17.7121 1.46357 24.6379 4.04673 34.2784L11.1285 60.7079C13.7117 70.3484 20.6379 74.3468 30.2793 71.7634L56.7365 64.6743C66.3779 62.0908 70.3518 55.1718 67.7686 45.5313L60.6868 19.1017C58.1037 9.46122 51.2026 5.45607 41.5612 8.03948Z" fill="url(#paint0_linear_0_27777)"/>
<g opacity="0.5" filter="url(#filter0_f_0_27777)">
<path d="M39.8866 19.7447L22.3993 24.4305C16.0266 26.138 13.3367 30.5415 14.9617 36.6061L19.4167 53.2322C21.0417 59.2968 25.573 61.7654 31.9456 60.0578L49.4329 55.3721C55.8056 53.6646 58.4788 49.2655 56.8539 43.2009L52.3989 26.5748C50.7739 20.5103 46.2592 18.0372 39.8866 19.7447Z" fill="#F15A29"/>
</g>
<g filter="url(#filter1_b_0_27777)">
<path d="M59.9888 21.9453H34.5716C24.6333 21.9453 17.9492 28.9226 17.9492 39.3006V63.252C17.9492 73.6007 24.6333 80.5779 34.5716 80.5779H59.9888C69.927 80.5779 76.5819 73.6007 76.5819 63.252V39.3006C76.5819 28.9226 69.927 21.9453 59.9888 21.9453Z" fill="#F15A29" fill-opacity="0.35"/>
<path d="M59.9888 21.5491H34.5716C29.5063 21.5491 25.2433 23.3294 22.2474 26.4571C19.253 29.5834 17.553 34.0257 17.553 39.3006V63.252C17.553 68.5125 19.2531 72.9475 22.2476 76.07C25.2434 79.1939 29.5063 80.9742 34.5716 80.9742H59.9888C65.0542 80.9742 69.3099 79.1938 72.2985 76.0696C75.2856 72.9469 76.9781 68.512 76.9781 63.252V39.3006C76.9781 34.0262 75.2857 29.5839 72.2987 26.4575C69.3101 23.3294 65.0542 21.5491 59.9888 21.5491Z" stroke="url(#paint1_linear_0_27777)" stroke-width="0.792455" stroke-linecap="round" stroke-linejoin="round"/>
</g>
<g filter="url(#filter2_b_0_27777)">
<path d="M79.6925 17.6406C77.3134 17.6406 75.3848 19.5692 75.3848 21.9483C75.3848 24.3274 77.3134 26.256 79.6925 26.256C82.0715 26.256 84.0002 24.3274 84.0002 21.9483C84.0002 20.8059 83.5463 19.7102 82.7385 18.9023C81.9306 18.0945 80.8349 17.6406 79.6925 17.6406Z" fill="url(#paint2_linear_0_27777)"/>
</g>
<g filter="url(#filter3_bd_0_27777)">
<path d="M62.6028 46.0726L54.2246 56.8839C53.8721 57.3538 53.3435 57.6604 52.76 57.7332C52.1766 57.806 51.5886 57.6388 51.1312 57.27L43.0881 50.9634L35.8443 60.3332C35.3197 61.1662 34.298 61.5405 33.3584 61.2439C32.4188 60.9473 31.7983 60.0546 31.8485 59.0719C31.8442 58.5857 32.0081 58.1128 32.3126 57.7334L40.9743 46.5617C41.3225 46.0955 41.8442 45.7891 42.4214 45.7116C42.9986 45.6341 43.5828 45.7921 44.042 46.1498L52.085 52.4822L59.1484 43.3955C59.488 42.927 60.0033 42.616 60.5765 42.5336C61.1498 42.4511 61.7321 42.6042 62.1903 42.9579C63.137 43.6983 63.32 45.0573 62.6028 46.0211V46.0726Z" fill="url(#paint3_linear_0_27777)"/>
<path d="M54.0993 56.7868L54.0993 56.7868L54.0978 56.7888C53.7712 57.2243 53.2812 57.5084 52.7404 57.5759C52.1996 57.6434 51.6546 57.4884 51.2306 57.1466L51.2289 57.1453L43.1859 50.8387L43.0604 50.7402L42.9628 50.8665L35.7189 60.2363L35.7142 60.2423L35.7102 60.2488C35.224 61.0207 34.2771 61.3677 33.4061 61.0927C32.5352 60.8178 31.9603 59.9905 32.0068 59.08L32.0071 59.08L32.007 59.0705C32.003 58.6208 32.1546 58.1835 32.4362 57.8325L32.4362 57.8326L32.4378 57.8305L41.0995 46.6588L41.0995 46.6588L41.1012 46.6566C41.424 46.2246 41.9074 45.9406 42.4425 45.8687C42.9774 45.7969 43.5188 45.9432 43.9443 46.2747C43.9444 46.2747 43.9445 46.2748 43.9446 46.2749L51.9869 52.6067L52.1122 52.7053L52.2101 52.5794L59.2735 43.4928L59.2736 43.4929L59.2767 43.4885C59.5911 43.0548 60.0682 42.7668 60.5991 42.6904C61.1299 42.6141 61.6689 42.7558 62.0931 43.0831C62.9717 43.7706 63.1413 45.032 62.4756 45.9265L62.4443 45.9686V46.0184L54.0993 56.7868Z" stroke="url(#paint4_linear_0_27777)" stroke-width="0.316982"/>
</g>
<defs>
<filter id="filter0_f_0_27777" x="1.02631" y="5.74458" width="69.7638" height="68.3136" filterUnits="userSpaceOnUse" color-interpolation-filters="sRGB">
<feFlood flood-opacity="0" result="BackgroundImageFix"/>
<feBlend mode="normal" in="SourceGraphic" in2="BackgroundImageFix" result="shape"/>
<feGaussianBlur stdDeviation="6.73587" result="effect1_foregroundBlur_0_27777"/>
</filter>
<filter id="filter1_b_0_27777" x="-1.86169" y="2.13391" width="98.2546" height="98.2556" filterUnits="userSpaceOnUse" color-interpolation-filters="sRGB">
<feFlood flood-opacity="0" result="BackgroundImageFix"/>
<feGaussianBlur in="BackgroundImageFix" stdDeviation="9.50946"/>
<feComposite in2="SourceAlpha" operator="in" result="effect1_backgroundBlur_0_27777"/>
<feBlend mode="normal" in="SourceGraphic" in2="effect1_backgroundBlur_0_27777" result="shape"/>
</filter>
<filter id="filter2_b_0_27777" x="63.4979" y="5.7538" width="32.3889" height="32.3889" filterUnits="userSpaceOnUse" color-interpolation-filters="sRGB">
<feFlood flood-opacity="0" result="BackgroundImageFix"/>
<feGaussianBlur in="BackgroundImageFix" stdDeviation="5.94341"/>
<feComposite in2="SourceAlpha" operator="in" result="effect1_backgroundBlur_0_27777"/>
<feBlend mode="normal" in="SourceGraphic" in2="effect1_backgroundBlur_0_27777" result="shape"/>
</filter>
<filter id="filter3_bd_0_27777" x="19.9589" y="30.6249" width="54.968" height="42.6067" filterUnits="userSpaceOnUse" color-interpolation-filters="sRGB">
<feFlood flood-opacity="0" result="BackgroundImageFix"/>
<feGaussianBlur in="BackgroundImageFix" stdDeviation="5.94341"/>
<feComposite in2="SourceAlpha" operator="in" result="effect1_backgroundBlur_0_27777"/>
<feColorMatrix in="SourceAlpha" type="matrix" values="0 0 0 0 0 0 0 0 0 0 0 0 0 0 0 0 0 0 127 0" result="hardAlpha"/>
<feOffset dx="3.96227" dy="3.96227"/>
<feGaussianBlur stdDeviation="3.96227"/>
<feColorMatrix type="matrix" values="0 0 0 0 1 0 0 0 0 0.321569 0 0 0 0 0.54902 0 0 0 0.5 0"/>
<feBlend mode="normal" in2="effect1_backgroundBlur_0_27777" result="effect2_dropShadow_0_27777"/>
<feBlend mode="normal" in="SourceGraphic" in2="effect2_dropShadow_0_27777" result="shape"/>
</filter>
<linearGradient id="paint0_linear_0_27777" x1="41.0937" y1="42.58" x2="6.6985" y2="73.7092" gradientUnits="userSpaceOnUse">
<stop stop-color="#F15A29"/>
<stop offset="1" stop-color="#F15A29"/>
</linearGradient>
<linearGradient id="paint1_linear_0_27777" x1="27.2826" y1="28.7761" x2="64.684" y2="75.0986" gradientUnits="userSpaceOnUse">
<stop stop-color="white" stop-opacity="0.25"/>
<stop offset="1" stop-color="white" stop-opacity="0"/>
</linearGradient>
<linearGradient id="paint2_linear_0_27777" x1="80.3267" y1="22.5253" x2="74.2614" y2="25.6349" gradientUnits="userSpaceOnUse">
<stop stop-color="#F15A29"/>
<stop offset="1" stop-color="#F15A29"/>
</linearGradient>
<linearGradient id="paint3_linear_0_27777" x1="60.8287" y1="45.9126" x2="26.145" y2="47.7857" gradientUnits="userSpaceOnUse">
<stop stop-color="white"/>
<stop offset="1" stop-color="white" stop-opacity="0.2"/>
</linearGradient>
<linearGradient id="paint4_linear_0_27777" x1="36.8114" y1="44.7058" x2="46.4921" y2="64.5656" gradientUnits="userSpaceOnUse">
<stop stop-color="white" stop-opacity="0.25"/>
<stop offset="1" stop-color="white" stop-opacity="0"/>
</linearGradient>
</defs>
</svg>
