<svg width="84" height="84" viewBox="0 0 84 84" fill="none" xmlns="http://www.w3.org/2000/svg">
<g filter="url(#filter0_b_462_22138)">
<path d="M76.409 38.1645C75.5955 37.2113 74.615 36.417 73.542 35.773C71.1885 34.3374 68.4251 33.7429 65.6693 34.0527C65.5867 33.8435 65.4619 33.6275 65.3521 33.4252C65.2443 33.2194 65.0903 32.7823 64.9168 32.4932L64.4441 31.8163C64.2163 31.4251 63.9426 31.0758 63.6392 30.7295C63.6246 30.6768 63.595 30.6104 63.5464 30.5373L63.446 30.4771C62.6462 29.5321 61.7212 28.7225 60.6692 28.0472L60.4822 27.935C60.006 27.6492 59.5122 27.3968 58.9925 27.1797L58.7885 27.0572C58.2385 26.8174 57.6586 26.6313 57.0634 26.5053C49.4727 24.7738 43.0776 30.3034 41.3863 37.4763C40.6284 41.2057 40.7068 45.0484 41.6087 48.7099C43.0042 53.8959 44.9338 58.8935 47.377 63.6443L47.6548 64.1835L48.234 64.1818C53.5723 64.0781 58.8699 63.4179 64.062 62.2088C67.7328 61.2916 71.1693 59.5353 74.0869 57.1021C79.589 52.2163 81.4608 43.972 76.409 38.1645Z" fill="url(#paint0_linear_462_22138)"/>
</g>
<g opacity="0.5" filter="url(#filter1_f_462_22138)">
<path d="M65.2533 40.7318C64.74 40.1303 64.1213 39.6291 63.4441 39.2227C61.959 38.3168 60.2152 37.9416 58.4762 38.1371C58.424 38.0051 58.3453 37.8688 58.276 37.7411C58.208 37.6112 58.1108 37.3354 58.0013 37.153L57.703 36.7258C57.5593 36.479 57.3865 36.2585 57.1951 36.04C57.1859 36.0067 57.1672 35.9649 57.1365 35.9187L57.0732 35.8807C56.5685 35.2844 55.9847 34.7735 55.3209 34.3474L55.2029 34.2766C54.9024 34.0962 54.5908 33.9369 54.2628 33.8L54.1341 33.7227C53.787 33.5713 53.4211 33.4539 53.0455 33.3744C48.2555 32.2818 44.2199 35.7711 43.1526 40.2976C42.6743 42.6509 42.7238 45.0758 43.2929 47.3864C44.1736 50.659 45.3912 53.8127 46.933 56.8106L47.1083 57.1508L47.4738 57.1498C50.8425 57.0843 54.1854 56.6677 57.4619 55.9047C59.7783 55.3259 61.9469 54.2177 63.788 52.6822C67.2601 49.5991 68.4412 44.3966 65.2533 40.7318Z" fill="#F15A29"/>
</g>
<g filter="url(#filter2_b_462_22138)">
<path d="M71.6407 20.7735C71.4431 20.5794 71.2119 20.4236 70.9632 20.3026C70.4172 20.0322 69.7972 19.9549 69.1966 20.0766C69.1743 20.0321 69.1427 19.987 69.1145 19.9446C69.0868 19.9014 69.0444 19.8081 69.0006 19.7478L68.8835 19.608C68.8257 19.5263 68.7587 19.4547 68.6852 19.3843C68.6809 19.373 68.6731 19.359 68.661 19.3438L68.6377 19.3325C68.4433 19.14 68.224 18.9797 67.9793 18.8514L67.9359 18.8303C67.8256 18.7767 67.7119 18.7307 67.5933 18.693L67.546 18.67C67.4203 18.6278 67.289 18.5981 67.1555 18.5819C65.4508 18.3479 64.1501 19.6893 63.9169 21.3013C63.8224 22.1371 63.9142 22.9815 64.1838 23.7701C64.5916 24.8848 65.1133 25.9476 65.7434 26.9462L65.815 27.0595L65.9425 27.0479C67.1157 26.9215 68.2692 26.6734 69.3889 26.3065C70.1792 26.0334 70.9017 25.5801 71.4968 24.9878C72.6134 23.8054 72.8656 21.9541 71.6407 20.7735Z" fill="url(#paint1_linear_462_22138)"/>
</g>
<g filter="url(#filter3_b_462_22138)">
<mask id="path-4-outside-1_462_22138" maskUnits="userSpaceOnUse" x="-1.15393" y="7.82575" width="68.8414" height="66.3966" fill="black">
<rect fill="white" x="-1.15393" y="7.82575" width="68.8414" height="66.3966"/>
<path d="M44.9361 11.9478C43.1291 11.6703 41.289 11.7274 39.49 12.0388C35.522 12.6961 31.9028 14.6732 29.1541 17.6419C28.8635 17.4896 28.5198 17.37 28.2056 17.2511C27.8904 17.1265 27.3036 16.7905 26.8365 16.6365L25.6692 16.3393C25.0447 16.1243 24.4093 15.9994 23.7442 15.906C23.6778 15.8617 23.5819 15.8166 23.4585 15.7822L23.2903 15.8113C21.5061 15.5298 19.7126 15.5172 17.9071 15.7739L17.5934 15.8282C16.7951 15.9663 16.009 16.1582 15.2281 16.4137L14.886 16.4729C14.0499 16.7321 13.2319 17.0792 12.4545 17.5074C2.41943 22.8295 0.625796 35.0326 5.59426 44.5678C8.31156 49.4096 12.0608 53.5796 16.5469 56.7645C23.0313 61.1628 29.9261 64.8442 37.153 67.7633L37.9737 68.094L38.612 67.5401C44.4098 62.3376 49.6322 56.5593 54.215 50.275C57.3955 45.7633 59.5175 40.548 60.4211 35.0795C61.842 24.4385 56.0517 13.5479 44.9361 11.9478Z"/>
</mask>
<path d="M44.9361 11.9478C43.1291 11.6703 41.289 11.7274 39.49 12.0388C35.522 12.6961 31.9028 14.6732 29.1541 17.6419C28.8635 17.4896 28.5198 17.37 28.2056 17.2511C27.8904 17.1265 27.3036 16.7905 26.8365 16.6365L25.6692 16.3393C25.0447 16.1243 24.4093 15.9994 23.7442 15.906C23.6778 15.8617 23.5819 15.8166 23.4585 15.7822L23.2903 15.8113C21.5061 15.5298 19.7126 15.5172 17.9071 15.7739L17.5934 15.8282C16.7951 15.9663 16.009 16.1582 15.2281 16.4137L14.886 16.4729C14.0499 16.7321 13.2319 17.0792 12.4545 17.5074C2.41943 22.8295 0.625796 35.0326 5.59426 44.5678C8.31156 49.4096 12.0608 53.5796 16.5469 56.7645C23.0313 61.1628 29.9261 64.8442 37.153 67.7633L37.9737 68.094L38.612 67.5401C44.4098 62.3376 49.6322 56.5593 54.215 50.275C57.3955 45.7633 59.5175 40.548 60.4211 35.0795C61.842 24.4385 56.0517 13.5479 44.9361 11.9478Z" fill="#F15A29" fill-opacity="0.35"/>
<path d="M39.49 12.0388L39.5987 12.695L39.6034 12.6942L39.49 12.0388ZM29.1541 17.6419L28.8454 18.2311C29.1115 18.3706 29.4381 18.3143 29.6422 18.0938L29.1541 17.6419ZM28.2056 17.2511L27.9611 17.8698L27.9702 17.8733L28.2056 17.2511ZM26.8365 16.6365L27.0448 16.0048C27.0302 16 27.0155 15.9956 27.0006 15.9919L26.8365 16.6365ZM25.6692 16.3393L25.4527 16.9682C25.4699 16.9742 25.4874 16.9794 25.5051 16.9839L25.6692 16.3393ZM23.7442 15.906L23.375 16.4593C23.4582 16.5148 23.5527 16.5508 23.6517 16.5647L23.7442 15.906ZM23.4585 15.7822L23.6372 15.1415C23.5421 15.115 23.4423 15.1099 23.3451 15.1268L23.4585 15.7822ZM23.2903 15.8113L23.1866 16.4684C23.2586 16.4797 23.3319 16.4792 23.4037 16.4667L23.2903 15.8113ZM17.9071 15.7739L17.8134 15.1153C17.8068 15.1163 17.8002 15.1173 17.7936 15.1185L17.9071 15.7739ZM15.2281 16.4137L15.3415 17.0691C15.3732 17.0636 15.4044 17.0559 15.435 17.0459L15.2281 16.4137ZM14.886 16.4729L14.7725 15.8175C14.7443 15.8224 14.7164 15.8291 14.689 15.8376L14.886 16.4729ZM12.4545 17.5074L12.7662 18.0951L12.7754 18.0901L12.4545 17.5074ZM5.59426 44.5678L5.00436 44.8752C5.00754 44.8813 5.01082 44.8874 5.01419 44.8934L5.59426 44.5678ZM16.5469 56.7645L16.1618 57.3069C16.1657 57.3096 16.1696 57.3123 16.1735 57.315L16.5469 56.7645ZM37.153 67.7633L36.9038 68.38L36.9043 68.3802L37.153 67.7633ZM37.9737 68.094L37.7251 68.711C37.9567 68.8043 38.221 68.7601 38.4096 68.5964L37.9737 68.094ZM38.612 67.5401L39.048 68.0426L39.0562 68.0352L38.612 67.5401ZM54.215 50.275L54.7525 50.667L54.7587 50.6583L54.215 50.275ZM60.4211 35.0795L61.0774 35.188C61.0785 35.1812 61.0795 35.1744 61.0805 35.1676L60.4211 35.0795ZM45.0371 11.2904C43.1497 11.0005 41.2366 11.0614 39.3766 11.3833L39.6034 12.6942C41.3415 12.3934 43.1086 12.3401 44.8352 12.6053L45.0371 11.2904ZM39.3813 11.3825C35.2644 12.0645 31.5127 14.1155 28.6661 17.19L29.6422 18.0938C32.2929 15.2309 35.7796 13.3276 39.5987 12.695L39.3813 11.3825ZM29.4629 17.0528C29.126 16.8762 28.7275 16.7374 28.4409 16.629L27.9702 17.8733C28.312 18.0026 28.601 18.103 28.8454 18.2311L29.4629 17.0528ZM28.45 16.6325C28.3237 16.5826 28.1388 16.4879 27.8688 16.3566C27.6246 16.2379 27.3253 16.0973 27.0448 16.0048L26.6281 17.2682C26.8149 17.3298 27.0425 17.4341 27.2872 17.5531C27.5061 17.6595 27.7722 17.7951 27.9611 17.8697L28.45 16.6325ZM27.0006 15.9919L25.8333 15.6947L25.5051 16.9839L26.6724 17.2811L27.0006 15.9919ZM25.8857 15.7103C25.2052 15.4761 24.5237 15.3437 23.8367 15.2473L23.6517 16.5647C24.295 16.655 24.8841 16.7726 25.4527 16.9682L25.8857 15.7103ZM24.1134 15.3527C23.9788 15.2629 23.8161 15.1914 23.6372 15.1415L23.2797 16.4229C23.3123 16.432 23.3368 16.4412 23.3535 16.4487C23.3708 16.4563 23.3773 16.4608 23.375 16.4593L24.1134 15.3527ZM23.3451 15.1268L23.1768 15.1559L23.4037 16.4667L23.5719 16.4376L23.3451 15.1268ZM23.3939 15.1543C21.5438 14.8624 19.6839 14.8494 17.8134 15.1153L18.0007 16.4324C19.7414 16.185 21.4683 16.1973 23.1866 16.4684L23.3939 15.1543ZM17.7936 15.1185L17.48 15.1727L17.7069 16.4836L18.0205 16.4293L17.7936 15.1185ZM17.48 15.1727C16.6518 15.3161 15.8344 15.5154 15.0212 15.7815L15.435 17.0459C16.1837 16.8009 16.9385 16.6166 17.7069 16.4836L17.48 15.1727ZM15.1147 15.7583L14.7725 15.8175L14.9994 17.1283L15.3415 17.0691L15.1147 15.7583ZM14.689 15.8376C13.8099 16.1101 12.9505 16.4749 12.1336 16.9248L12.7754 18.0901C13.5134 17.6836 14.2899 17.3541 15.083 17.1082L14.689 15.8376ZM12.1428 16.9198C1.69571 22.4604 -0.0821896 35.1133 5.00436 44.8752L6.18415 44.2605C1.33378 34.9519 3.14315 23.1986 12.7661 18.0951L12.1428 16.9198ZM5.01419 44.8934C7.77941 49.8206 11.595 54.0647 16.1618 57.3069L16.9319 56.2221C12.5265 53.0944 8.84371 48.9987 6.17432 44.2423L5.01419 44.8934ZM16.1735 57.315C22.6966 61.7396 29.633 65.4432 36.9038 68.38L37.4021 67.1465C30.2192 64.2452 23.366 60.5861 16.9203 56.214L16.1735 57.315ZM36.9043 68.3802L37.7251 68.711L38.2223 67.477L37.4016 67.1463L36.9043 68.3802ZM38.4096 68.5964L39.0479 68.0425L38.176 67.0377L37.5377 67.5916L38.4096 68.5964ZM39.0562 68.0352C44.8885 62.8017 50.1422 56.9888 54.7524 50.6669L53.6776 49.8831C49.1222 56.1297 43.931 61.8735 38.1677 67.0451L39.0562 68.0352ZM54.7587 50.6583C57.9977 46.0635 60.1577 40.754 61.0774 35.188L59.7649 34.9711C58.8774 40.3419 56.7933 45.4631 53.6713 49.8918L54.7587 50.6583ZM61.0805 35.1676C62.5343 24.2796 56.612 12.9566 45.0309 11.2894L44.8414 12.6062C55.4914 14.1393 61.1497 24.5975 59.7618 34.9915L61.0805 35.1676Z" fill="url(#paint2_linear_462_22138)" mask="url(#path-4-outside-1_462_22138)"/>
</g>
<g filter="url(#filter4_bd_462_22138)">
<path d="M52.502 28.6918C52.6242 29.9069 51.7887 31.0176 50.6251 31.2513C49.9875 31.2999 49.3399 31.1213 48.8569 30.7057C48.3739 30.2901 48.0681 29.694 48.0093 29.0318L47.994 28.9434C47.6491 26.9505 46.1146 25.3631 44.1686 24.9952C42.8976 24.7776 42.0434 23.5746 42.2353 22.3081C42.4558 21.0366 43.6297 20.1845 44.8683 20.3842C48.7908 21.1443 51.8376 24.3434 52.4433 28.3525L52.502 28.6918Z" fill="url(#paint3_linear_462_22138)"/>
<path d="M48.1418 29.02L48.1422 29.02L48.1404 29.0091L48.1251 28.9207C47.771 26.8749 46.1956 25.2431 44.1933 24.8644L44.1933 24.8644L44.1911 24.864C42.9929 24.6589 42.1863 23.5247 42.3667 22.3294C42.5756 21.1287 43.6822 20.3289 44.845 20.5152C48.7104 21.2651 51.7144 24.4187 52.3118 28.3724L52.3117 28.3724L52.3122 28.3752L52.3701 28.7098C52.4826 29.8521 51.6978 30.8959 50.6069 31.1192C50.0021 31.1635 49.3943 30.9925 48.9437 30.6049C48.4875 30.2124 48.1976 29.6486 48.1418 29.02Z" stroke="url(#paint4_linear_462_22138)" stroke-width="0.266069"/>
</g>
<defs>
<filter id="filter0_b_462_22138" x="32.2219" y="17.5383" width="55.7847" height="55.2926" filterUnits="userSpaceOnUse" color-interpolation-filters="sRGB">
<feFlood flood-opacity="0" result="BackgroundImageFix"/>
<feGaussianBlur in="BackgroundImageFix" stdDeviation="4.32363"/>
<feComposite in2="SourceAlpha" operator="in" result="effect1_backgroundBlur_462_22138"/>
<feBlend mode="normal" in="SourceGraphic" in2="effect1_backgroundBlur_462_22138" result="shape"/>
</filter>
<filter id="filter1_f_462_22138" x="30.8531" y="21.1997" width="48.2353" height="47.9238" filterUnits="userSpaceOnUse" color-interpolation-filters="sRGB">
<feFlood flood-opacity="0" result="BackgroundImageFix"/>
<feBlend mode="normal" in="SourceGraphic" in2="BackgroundImageFix" result="shape"/>
<feGaussianBlur stdDeviation="5.98656" result="effect1_foregroundBlur_462_22138"/>
</filter>
<filter id="filter2_b_462_22138" x="55.2336" y="9.90841" width="25.8668" height="25.7984" filterUnits="userSpaceOnUse" color-interpolation-filters="sRGB">
<feFlood flood-opacity="0" result="BackgroundImageFix"/>
<feGaussianBlur in="BackgroundImageFix" stdDeviation="4.32363"/>
<feComposite in2="SourceAlpha" operator="in" result="effect1_backgroundBlur_462_22138"/>
<feBlend mode="normal" in="SourceGraphic" in2="effect1_backgroundBlur_462_22138" result="shape"/>
</filter>
<filter id="filter3_b_462_22138" x="-13.7005" y="-4.86065" width="90.9615" height="89.5836" filterUnits="userSpaceOnUse" color-interpolation-filters="sRGB">
<feFlood flood-opacity="0" result="BackgroundImageFix"/>
<feGaussianBlur in="BackgroundImageFix" stdDeviation="7.98208"/>
<feComposite in2="SourceAlpha" operator="in" result="effect1_backgroundBlur_462_22138"/>
<feBlend mode="normal" in="SourceGraphic" in2="effect1_backgroundBlur_462_22138" result="shape"/>
</filter>
<filter id="filter4_bd_462_22138" x="32.2314" y="10.3779" width="30.2599" height="30.8585" filterUnits="userSpaceOnUse" color-interpolation-filters="sRGB">
<feFlood flood-opacity="0" result="BackgroundImageFix"/>
<feGaussianBlur in="BackgroundImageFix" stdDeviation="4.9888"/>
<feComposite in2="SourceAlpha" operator="in" result="effect1_backgroundBlur_462_22138"/>
<feColorMatrix in="SourceAlpha" type="matrix" values="0 0 0 0 0 0 0 0 0 0 0 0 0 0 0 0 0 0 127 0" result="hardAlpha"/>
<feOffset dx="3.32587" dy="3.32587"/>
<feGaussianBlur stdDeviation="3.32587"/>
<feColorMatrix type="matrix" values="0 0 0 0 1 0 0 0 0 0.321569 0 0 0 0 0.54902 0 0 0 0.5 0"/>
<feBlend mode="normal" in2="effect1_backgroundBlur_462_22138" result="effect2_dropShadow_462_22138"/>
<feBlend mode="normal" in="SourceGraphic" in2="effect2_dropShadow_462_22138" result="shape"/>
</filter>
<linearGradient id="paint0_linear_462_22138" x1="58.505" y1="51.6646" x2="27.5032" y2="50.2481" gradientUnits="userSpaceOnUse">
<stop stop-color="#F15A29"/>
<stop offset="1" stop-color="#F15A29"/>
</linearGradient>
<linearGradient id="paint1_linear_462_22138" x1="67.9609" y1="24.0929" x2="61.1082" y2="24.3824" gradientUnits="userSpaceOnUse">
<stop stop-color="#F15A29"/>
<stop offset="1" stop-color="#F15A29"/>
</linearGradient>
<linearGradient id="paint2_linear_462_22138" x1="10.1713" y1="23.6122" x2="52.0155" y2="62.2144" gradientUnits="userSpaceOnUse">
<stop stop-color="white" stop-opacity="0.25"/>
<stop offset="1" stop-color="white" stop-opacity="0"/>
</linearGradient>
<linearGradient id="paint3_linear_462_22138" x1="50.5897" y1="21.4341" x2="40.5846" y2="23.4271" gradientUnits="userSpaceOnUse">
<stop stop-color="white"/>
<stop offset="1" stop-color="white" stop-opacity="0.2"/>
</linearGradient>
<linearGradient id="paint4_linear_462_22138" x1="43.5178" y1="21.8898" x2="52.3668" y2="27.8583" gradientUnits="userSpaceOnUse">
<stop stop-color="white" stop-opacity="0.25"/>
<stop offset="1" stop-color="white" stop-opacity="0"/>
</linearGradient>
</defs>
</svg>
