<svg width="104" height="99" viewBox="0 0 104 99" fill="none" xmlns="http://www.w3.org/2000/svg">
<path d="M55.8072 18.1057L41.8979 21.8327C38.6524 22.7024 37.0296 23.1372 35.9586 24.1012C35.0169 24.9489 34.3679 26.0731 34.1046 27.3125C33.8052 28.722 34.24 30.3448 35.1097 33.5903L44.1166 67.2045C44.9862 70.45 45.421 72.0728 46.3851 73.1437C47.2329 74.0853 48.357 74.7343 49.5963 74.9978C51.003 75.2979 52.6257 74.8631 55.8654 73.995L77.9059 68.0893C81.1456 67.2212 82.7655 66.7872 83.8336 65.8239C84.777 64.9748 85.4261 63.8505 85.6905 62.6119C85.9899 61.2024 85.5566 59.5854 84.6886 56.3457L77.8526 30.8336M55.8072 18.1057C56.6383 17.8924 57.1685 17.7845 57.7016 17.7689C58.3316 17.7554 58.9588 17.8359 59.5629 18.0156C60.2445 18.2181 60.8801 18.5851 62.1485 19.3198L73.6334 25.9482C74.9047 26.6822 75.5367 27.047 76.0528 27.5361C76.5113 27.9723 76.8938 28.4723 77.1971 29.0247C77.4473 29.4949 77.6226 30.0101 77.8526 30.8336M55.8072 18.1057L57.9813 26.2195C58.8509 29.465 59.2857 31.0878 60.2498 32.1587C61.0976 33.1003 62.2217 33.7493 63.4611 34.0128C64.8677 34.313 66.4904 33.8781 69.7302 33.0101L77.8526 30.8336" fill="url(#paint0_linear_462_24594)"/>
<g filter="url(#filter0_bd_462_24594)">
<mask id="path-2-outside-1_462_24594" maskUnits="userSpaceOnUse" x="8.25215" y="22.2596" width="56.9946" height="65.4799" fill="black">
<rect fill="white" x="8.25215" y="22.2596" width="56.9946" height="65.4799"/>
<path d="M46.6353 29.696L32.726 25.969C29.4805 25.0994 27.8577 24.6646 26.4482 24.964C25.2088 25.2272 24.0846 25.8763 23.2369 26.818C22.2729 27.889 21.8381 29.5118 20.9685 32.7573L11.9616 66.3715C11.0919 69.617 10.6571 71.2398 10.9565 72.6493C11.2199 73.8886 11.869 75.0127 12.8105 75.8605C13.8786 76.8238 15.5014 77.2586 18.7411 78.1267L40.7816 84.0324C44.0213 84.9005 45.6412 85.3346 47.0478 85.0344C48.2893 84.7707 49.4136 84.1216 50.2619 83.1811C51.226 82.1102 51.6593 80.4932 52.5273 77.2535L59.3633 51.7414M46.6353 29.696C47.4618 29.9268 47.9748 30.0984 48.4443 30.3516C48.9966 30.6549 49.4996 31.0381 49.9329 31.4958C50.422 32.012 50.7889 32.6476 51.52 33.9181L58.152 45.4009C58.886 46.6722 59.2509 47.3042 59.4534 47.9858C59.6324 48.5928 59.7136 49.2171 59.7 49.8471C59.6816 50.3794 59.5759 50.9132 59.3633 51.7414M46.6353 29.696L44.4613 37.8098C43.5916 41.0553 43.1568 42.6781 43.4562 44.0876C43.7197 45.3269 44.3687 46.4511 45.3102 47.2989C46.3783 48.2621 48.0011 48.697 51.2408 49.565L59.3633 51.7414"/>
</mask>
<path d="M46.6353 29.696L32.726 25.969C29.4805 25.0994 27.8577 24.6646 26.4482 24.964C25.2088 25.2272 24.0846 25.8763 23.2369 26.818C22.2729 27.889 21.8381 29.5118 20.9685 32.7573L11.9616 66.3715C11.0919 69.617 10.6571 71.2398 10.9565 72.6493C11.2199 73.8886 11.869 75.0127 12.8105 75.8605C13.8786 76.8238 15.5014 77.2586 18.7411 78.1267L40.7816 84.0324C44.0213 84.9005 45.6412 85.3346 47.0478 85.0344C48.2893 84.7707 49.4136 84.1216 50.2619 83.1811C51.226 82.1102 51.6593 80.4932 52.5273 77.2535L59.3633 51.7414M46.6353 29.696C47.4618 29.9268 47.9748 30.0984 48.4443 30.3516C48.9966 30.6549 49.4996 31.0381 49.9329 31.4958C50.422 32.012 50.7889 32.6476 51.52 33.9181L58.152 45.4009C58.886 46.6722 59.2509 47.3042 59.4534 47.9858C59.6324 48.5928 59.7136 49.2171 59.7 49.8471C59.6816 50.3794 59.5759 50.9132 59.3633 51.7414M46.6353 29.696L44.4613 37.8098C43.5916 41.0553 43.1568 42.6781 43.4562 44.0876C43.7197 45.3269 44.3687 46.4511 45.3102 47.2989C46.3783 48.2621 48.0011 48.697 51.2408 49.565L59.3633 51.7414" fill="url(#paint1_linear_462_24594)"/>
<path d="M46.6353 29.696L32.726 25.969C29.4805 25.0994 27.8577 24.6646 26.4482 24.964C25.2088 25.2272 24.0846 25.8763 23.2369 26.818C22.2729 27.889 21.8381 29.5118 20.9685 32.7573L11.9616 66.3715C11.0919 69.617 10.6571 71.2398 10.9565 72.6493C11.2199 73.8886 11.869 75.0127 12.8105 75.8605C13.8786 76.8238 15.5014 77.2586 18.7411 78.1267L40.7816 84.0324C44.0213 84.9005 45.6412 85.3346 47.0478 85.0344C48.2893 84.7707 49.4136 84.1216 50.2619 83.1811C51.226 82.1102 51.6593 80.4932 52.5273 77.2535L59.3633 51.7414M46.6353 29.696C47.4618 29.9268 47.9748 30.0984 48.4443 30.3516C48.9966 30.6549 49.4996 31.0381 49.9329 31.4958C50.422 32.012 50.7889 32.6476 51.52 33.9181L58.152 45.4009C58.886 46.6722 59.2509 47.3042 59.4534 47.9858C59.6324 48.5928 59.7136 49.2171 59.7 49.8471C59.6816 50.3794 59.5759 50.9132 59.3633 51.7414M46.6353 29.696L44.4613 37.8098C43.5916 41.0553 43.1568 42.6781 43.4562 44.0876C43.7197 45.3269 44.3687 46.4511 45.3102 47.2989C46.3783 48.2621 48.0011 48.697 51.2408 49.565L59.3633 51.7414" fill="#F15A29" fill-opacity="0.4"/>
<path d="M46.6353 29.696L46.9043 28.7328L46.8942 28.7301L46.6353 29.696ZM26.4482 24.964L26.656 25.9422L26.656 25.9422L26.4482 24.964ZM23.2369 26.818L23.9802 27.487L23.9802 27.487L23.2369 26.818ZM10.9565 72.6493L9.97832 72.857L9.97836 72.8572L10.9565 72.6493ZM12.8105 75.8605L13.4803 75.1179L13.4797 75.1174L12.8105 75.8605ZM47.0478 85.0344L46.8401 84.0562L46.8391 84.0564L47.0478 85.0344ZM50.2619 83.1811L51.0045 83.8509L51.0052 83.8502L50.2619 83.1811ZM59.3633 51.7414L60.3292 52.0003L60.3319 51.9901L59.3633 51.7414ZM48.4443 30.3516L48.9257 29.475L48.9189 29.4714L48.4443 30.3516ZM49.9329 31.4958L49.2066 32.1833L49.207 32.1836L49.9329 31.4958ZM51.52 33.9181L50.6533 34.4169L50.6541 34.4183L51.52 33.9181ZM58.152 45.4009L59.0181 44.9009L59.018 44.9008L58.152 45.4009ZM59.4534 47.9858L60.4125 47.703L60.412 47.701L59.4534 47.9858ZM59.7 49.8471L60.6995 49.8816L60.6998 49.8685L59.7 49.8471ZM43.4562 44.0876L42.478 44.2954L42.4781 44.2955L43.4562 44.0876ZM45.3102 47.2989L45.98 46.5563L45.9794 46.5557L45.3102 47.2989ZM46.8942 28.7301L32.9848 25.0031L32.4672 26.935L46.3765 30.662L46.8942 28.7301ZM32.9848 25.0031C31.378 24.5726 30.115 24.2333 29.0779 24.0443C28.0293 23.8532 27.1257 23.7978 26.2405 23.9858L26.656 25.9422C27.1803 25.8308 27.7928 25.8431 28.7193 26.0119C29.6574 26.1829 30.8285 26.4959 32.4672 26.935L32.9848 25.0031ZM26.2405 23.9858C24.7944 24.2929 23.4827 25.0502 22.4937 26.149L23.9802 27.487C24.6865 26.7023 25.6233 26.1615 26.656 25.9422L26.2405 23.9858ZM22.4937 26.149C21.8883 26.8216 21.4845 27.6319 21.1257 28.6356C20.7708 29.6282 20.4331 30.8916 20.0025 32.4984L21.9344 33.0161C22.3735 31.3774 22.688 30.2067 23.0089 29.3088C23.326 28.422 23.6216 27.8854 23.9802 27.487L22.4937 26.149ZM20.0025 32.4984L10.9956 66.1127L12.9275 66.6303L21.9344 33.0161L20.0025 32.4984ZM10.9956 66.1127C10.5651 67.7195 10.2259 68.9825 10.0369 70.0196C9.84574 71.0682 9.7903 71.9718 9.97832 72.857L11.9347 72.4415C11.8233 71.9172 11.8356 71.3047 12.0044 70.3782C12.1754 69.4401 12.4884 68.269 12.9275 66.6303L10.9956 66.1127ZM9.97836 72.8572C10.2857 74.3031 11.0429 75.6146 12.1414 76.6037L13.4797 75.1174C12.695 74.4109 12.1542 73.4741 11.9346 72.4413L9.97836 72.8572ZM12.1408 76.6032C12.8122 77.2087 13.6222 77.6124 14.6247 77.9709C15.6164 78.3255 16.8784 78.6629 18.4823 79.0926L18.9999 77.1608C17.3641 76.7225 16.1949 76.4084 15.2982 76.0877C14.4124 75.771 13.8769 75.4757 13.4803 75.1179L12.1408 76.6032ZM18.4823 79.0926L40.5228 84.9984L41.0404 83.0665L18.9999 77.1608L18.4823 79.0926ZM40.5228 84.9984C42.1267 85.4281 43.3876 85.7668 44.4229 85.9553C45.4699 86.146 46.3724 86.201 47.2565 86.0124L46.8391 84.0564C46.3166 84.1679 45.7058 84.156 44.7812 83.9877C43.8451 83.8172 42.6762 83.5048 41.0404 83.0665L40.5228 84.9984ZM47.2555 86.0126C48.7035 85.7051 50.015 84.9479 51.0045 83.8509L49.5194 82.5113C48.8123 83.2953 47.8751 83.8364 46.8401 84.0562L47.2555 86.0126ZM51.0052 83.8502C51.6104 83.1778 52.0138 82.3693 52.3722 81.3674C52.7265 80.3768 53.0635 79.1162 53.4933 77.5123L51.5614 76.9947C51.1231 78.6305 50.8094 79.7982 50.489 80.6938C50.1728 81.578 49.8776 82.1135 49.5187 82.5121L51.0052 83.8502ZM53.4933 77.5123L60.3292 52.0003L58.3973 51.4826L51.5614 76.9947L53.4933 77.5123ZM46.3664 30.6592C47.1844 30.8876 47.6052 31.0352 47.9697 31.2318L48.9189 29.4714C48.3445 29.1617 47.7391 28.966 46.9043 28.7329L46.3664 30.6592ZM47.963 31.2281C48.4282 31.4836 48.8476 31.804 49.2066 32.1833L50.6591 30.8084C50.1516 30.2722 49.5651 29.8261 48.9256 29.475L47.963 31.2281ZM49.207 32.1836C49.5957 32.5938 49.8991 33.1062 50.6533 34.4169L52.3868 33.4194C51.6788 32.1891 51.2483 31.4302 50.6588 30.808L49.207 32.1836ZM50.6541 34.4183L57.2861 45.901L59.018 44.9008L52.386 33.418L50.6541 34.4183ZM57.286 45.9009C58.0436 47.213 58.3337 47.7282 58.4948 48.2705L60.412 47.701C60.1681 46.8801 59.7285 46.1314 59.0181 44.9009L57.286 45.9009ZM58.4942 48.2686C58.6435 48.775 58.7116 49.2965 58.7003 49.8256L60.6998 49.8685C60.7155 49.1377 60.6212 48.4106 60.4125 47.703L58.4942 48.2686ZM58.7006 49.8125C58.6862 50.2311 58.6039 50.6778 58.3947 51.4928L60.3319 51.9901C60.5478 51.1487 60.6771 50.5277 60.6994 49.8816L58.7006 49.8125ZM45.6694 29.4372L43.4953 37.551L45.4272 38.0686L47.6013 29.9549L45.6694 29.4372ZM43.4953 37.551C43.0648 39.1578 42.7256 40.4208 42.5366 41.4579C42.3454 42.5065 42.29 43.4102 42.478 44.2954L44.4344 43.8798C44.323 43.3555 44.3353 42.743 44.5041 41.8165C44.6751 40.8784 44.9881 39.7073 45.4272 38.0686L43.4953 37.551ZM42.4781 44.2955C42.7854 45.7414 43.5426 47.0529 44.6411 48.042L45.9794 46.5557C45.1947 45.8492 44.6539 44.9124 44.4344 43.8797L42.4781 44.2955ZM44.6405 48.0415C45.312 48.647 46.1219 49.0508 47.1244 49.4093C48.1161 49.7638 49.3781 50.1012 50.982 50.531L51.4996 48.5991C49.8638 48.1608 48.6946 47.8467 47.7979 47.526C46.9121 47.2093 46.3766 46.914 45.98 46.5563L44.6405 48.0415ZM50.982 50.531L59.1044 52.7074L59.6221 50.7755L51.4996 48.5991L50.982 50.531Z" fill="url(#paint2_linear_462_24594)" mask="url(#path-2-outside-1_462_24594)"/>
</g>
<defs>
<filter id="filter0_bd_462_24594" x="-10.5129" y="3.49393" width="91.5922" height="103.011" filterUnits="userSpaceOnUse" color-interpolation-filters="sRGB">
<feFlood flood-opacity="0" result="BackgroundImageFix"/>
<feGaussianBlur in="BackgroundImageFix" stdDeviation="10.1881"/>
<feComposite in2="SourceAlpha" operator="in" result="effect1_backgroundBlur_462_24594"/>
<feColorMatrix in="SourceAlpha" type="matrix" values="0 0 0 0 0 0 0 0 0 0 0 0 0 0 0 0 0 0 127 0" result="hardAlpha"/>
<feOffset dx="4.24504" dy="4.24504"/>
<feGaussianBlur stdDeviation="4.24504"/>
<feColorMatrix type="matrix" values="0 0 0 0 0.890196 0 0 0 0 0.0235294 0 0 0 0 0.0666667 0 0 0 0.4 0"/>
<feBlend mode="normal" in2="effect1_backgroundBlur_462_24594" result="effect2_dropShadow_462_24594"/>
<feBlend mode="normal" in="SourceGraphic" in2="effect2_dropShadow_462_24594" result="shape"/>
</filter>
<linearGradient id="paint0_linear_462_24594" x1="63.8201" y1="47.6548" x2="36.0255" y2="68.4028" gradientUnits="userSpaceOnUse">
<stop stop-color="#F15A29"/>
<stop offset="1" stop-color="#F15A29"/>
</linearGradient>
<linearGradient id="paint1_linear_462_24594" x1="58.6219" y1="43.0031" x2="13.1058" y2="32.0359" gradientUnits="userSpaceOnUse">
<stop stop-color="white"/>
<stop offset="1" stop-color="white" stop-opacity="0.2"/>
</linearGradient>
<linearGradient id="paint2_linear_462_24594" x1="28.2828" y1="31.2915" x2="53.5165" y2="73.1698" gradientUnits="userSpaceOnUse">
<stop stop-color="white" stop-opacity="0.25"/>
<stop offset="1" stop-color="white" stop-opacity="0"/>
</linearGradient>
</defs>
</svg>
