<svg width="1440" height="82" viewBox="0 0 1440 82" fill="none" xmlns="http://www.w3.org/2000/svg">
<g opacity="0.2">
<mask id="path-1-outside-1_462_18100" maskUnits="userSpaceOnUse" x="-7" y="0" width="1455" height="165" fill="black">
<rect fill="white" x="-7" width="1455" height="165"/>
<path d="M-6 5.4043H124.947V50.5215H84.2344V159.447H34.7129V50.5215H-6V5.4043ZM195.201 118.734H270.074V159.447H145.787V5.4043H267.818V46.1172H195.201V62.6602H250.201V100.043H195.201V118.734ZM371.158 92.3086L360.201 53.8516L349.137 92.3086H371.158ZM382.223 129.799H338.18L329.371 159.447H276.627L332.701 5.4043H387.701L443.775 159.447H390.924L382.223 129.799ZM582.457 76.9473L545.074 124.213L507.584 76.9473V159.447H458.17V5.4043H502.105L545.074 60.4043L587.936 5.4043H631.979V159.447H582.457V76.9473ZM665.064 5.4043H788.17V48.373H714.479V68.1387H770.66V111H714.479V159.447H665.064V5.4043ZM858.316 56C851.083 63.2331 847.467 72.0775 847.467 82.5332C847.467 92.9173 851.083 101.726 858.316 108.959C865.621 116.192 874.466 119.809 884.85 119.809C895.305 119.809 904.15 116.192 911.383 108.959C918.688 101.726 922.34 92.9173 922.34 82.5332C922.34 72.0775 918.688 63.2331 911.383 56C904.15 48.6953 895.305 45.043 884.85 45.043C874.466 45.043 865.621 48.6953 858.316 56ZM946.725 25.0625C963.482 41.0326 971.861 60.1536 971.861 82.4258C971.861 104.698 963.482 123.855 946.725 139.896C930.038 155.867 909.449 163.852 884.957 163.852C860.465 163.852 839.84 155.867 823.082 139.896C806.396 123.855 798.053 104.698 798.053 82.4258C798.053 60.1536 806.396 41.0326 823.082 25.0625C839.84 9.02083 860.465 1 884.957 1C909.449 1 930.038 9.02083 946.725 25.0625ZM996.139 159.447V5.4043H1071.98C1089.31 5.4043 1103.35 10.668 1114.09 21.1953C1124.9 31.651 1130.31 44.7207 1130.31 60.4043C1130.31 66.5631 1129.45 72.3281 1127.73 77.6992C1126.08 83.0703 1124.08 87.403 1121.71 90.6973C1119.35 93.9915 1116.99 96.8203 1114.62 99.1836C1112.33 101.547 1110.29 103.158 1108.5 104.018L1106.14 105.521L1135.79 159.447H1084.12L1061.02 115.404H1045.55V159.447H996.139ZM1077.56 68.5684C1079.71 66.5631 1080.79 63.8776 1080.79 60.5117C1080.79 57.0742 1079.71 54.3887 1077.56 52.4551C1075.49 50.4499 1072.52 49.4473 1068.65 49.4473H1045.55V71.4688H1068.65C1072.44 71.4688 1075.42 70.502 1077.56 68.5684ZM1208.4 55.8926C1201.1 63.054 1197.45 71.9342 1197.45 82.5332C1197.45 93.0605 1201.1 101.905 1208.4 109.066C1215.78 116.228 1224.98 119.809 1236.01 119.809C1240.24 119.809 1244.43 119.236 1248.58 118.09C1252.81 116.944 1256.35 115.476 1259.21 113.686C1262.08 111.895 1264.59 110.141 1266.73 108.422C1268.95 106.632 1270.67 105.163 1271.89 104.018L1273.39 102.299L1302.4 133.021C1301.83 133.881 1300.93 135.027 1299.71 136.459C1298.57 137.82 1295.88 140.29 1291.66 143.871C1287.43 147.38 1282.92 150.495 1278.12 153.217C1273.39 155.938 1267.09 158.373 1259.21 160.521C1251.34 162.742 1243.24 163.852 1234.94 163.852C1210.45 163.852 1189.82 155.867 1173.06 139.896C1156.38 123.855 1148.03 104.698 1148.03 82.4258C1148.03 60.1536 1156.38 41.0326 1173.06 25.0625C1189.82 9.02083 1210.45 1 1234.94 1C1243.32 1 1251.34 2.07422 1259 4.22266C1266.66 6.37109 1273 8.94922 1278.01 11.957C1283.03 14.9648 1287.43 17.9727 1291.23 20.9805C1295.02 23.9883 1297.82 26.5664 1299.61 28.7148L1301.97 31.8301L1272.32 62.6602C1271.89 62.2305 1271.28 61.6217 1270.49 60.834C1269.78 59.9746 1268.2 58.5423 1265.77 56.5371C1263.4 54.4603 1260.9 52.6699 1258.25 51.166C1255.6 49.5905 1252.23 48.194 1248.15 46.9766C1244.14 45.6875 1240.09 45.043 1236.01 45.043C1224.98 45.043 1215.78 48.6595 1208.4 55.8926ZM1371.69 118.734H1446.56V159.447H1322.27V5.4043H1444.3V46.1172H1371.69V62.6602H1426.69V100.043H1371.69V118.734Z"/>
</mask>
<path d="M-6 5.4043H124.947V50.5215H84.2344V159.447H34.7129V50.5215H-6V5.4043ZM195.201 118.734H270.074V159.447H145.787V5.4043H267.818V46.1172H195.201V62.6602H250.201V100.043H195.201V118.734ZM371.158 92.3086L360.201 53.8516L349.137 92.3086H371.158ZM382.223 129.799H338.18L329.371 159.447H276.627L332.701 5.4043H387.701L443.775 159.447H390.924L382.223 129.799ZM582.457 76.9473L545.074 124.213L507.584 76.9473V159.447H458.17V5.4043H502.105L545.074 60.4043L587.936 5.4043H631.979V159.447H582.457V76.9473ZM665.064 5.4043H788.17V48.373H714.479V68.1387H770.66V111H714.479V159.447H665.064V5.4043ZM858.316 56C851.083 63.2331 847.467 72.0775 847.467 82.5332C847.467 92.9173 851.083 101.726 858.316 108.959C865.621 116.192 874.466 119.809 884.85 119.809C895.305 119.809 904.15 116.192 911.383 108.959C918.688 101.726 922.34 92.9173 922.34 82.5332C922.34 72.0775 918.688 63.2331 911.383 56C904.15 48.6953 895.305 45.043 884.85 45.043C874.466 45.043 865.621 48.6953 858.316 56ZM946.725 25.0625C963.482 41.0326 971.861 60.1536 971.861 82.4258C971.861 104.698 963.482 123.855 946.725 139.896C930.038 155.867 909.449 163.852 884.957 163.852C860.465 163.852 839.84 155.867 823.082 139.896C806.396 123.855 798.053 104.698 798.053 82.4258C798.053 60.1536 806.396 41.0326 823.082 25.0625C839.84 9.02083 860.465 1 884.957 1C909.449 1 930.038 9.02083 946.725 25.0625ZM996.139 159.447V5.4043H1071.98C1089.31 5.4043 1103.35 10.668 1114.09 21.1953C1124.9 31.651 1130.31 44.7207 1130.31 60.4043C1130.31 66.5631 1129.45 72.3281 1127.73 77.6992C1126.08 83.0703 1124.08 87.403 1121.71 90.6973C1119.35 93.9915 1116.99 96.8203 1114.62 99.1836C1112.33 101.547 1110.29 103.158 1108.5 104.018L1106.14 105.521L1135.79 159.447H1084.12L1061.02 115.404H1045.55V159.447H996.139ZM1077.56 68.5684C1079.71 66.5631 1080.79 63.8776 1080.79 60.5117C1080.79 57.0742 1079.71 54.3887 1077.56 52.4551C1075.49 50.4499 1072.52 49.4473 1068.65 49.4473H1045.55V71.4688H1068.65C1072.44 71.4688 1075.42 70.502 1077.56 68.5684ZM1208.4 55.8926C1201.1 63.054 1197.45 71.9342 1197.45 82.5332C1197.45 93.0605 1201.1 101.905 1208.4 109.066C1215.78 116.228 1224.98 119.809 1236.01 119.809C1240.24 119.809 1244.43 119.236 1248.58 118.09C1252.81 116.944 1256.35 115.476 1259.21 113.686C1262.08 111.895 1264.59 110.141 1266.73 108.422C1268.95 106.632 1270.67 105.163 1271.89 104.018L1273.39 102.299L1302.4 133.021C1301.83 133.881 1300.93 135.027 1299.71 136.459C1298.57 137.82 1295.88 140.29 1291.66 143.871C1287.43 147.38 1282.92 150.495 1278.12 153.217C1273.39 155.938 1267.09 158.373 1259.21 160.521C1251.34 162.742 1243.24 163.852 1234.94 163.852C1210.45 163.852 1189.82 155.867 1173.06 139.896C1156.38 123.855 1148.03 104.698 1148.03 82.4258C1148.03 60.1536 1156.38 41.0326 1173.06 25.0625C1189.82 9.02083 1210.45 1 1234.94 1C1243.32 1 1251.34 2.07422 1259 4.22266C1266.66 6.37109 1273 8.94922 1278.01 11.957C1283.03 14.9648 1287.43 17.9727 1291.23 20.9805C1295.02 23.9883 1297.82 26.5664 1299.61 28.7148L1301.97 31.8301L1272.32 62.6602C1271.89 62.2305 1271.28 61.6217 1270.49 60.834C1269.78 59.9746 1268.2 58.5423 1265.77 56.5371C1263.4 54.4603 1260.9 52.6699 1258.25 51.166C1255.6 49.5905 1252.23 48.194 1248.15 46.9766C1244.14 45.6875 1240.09 45.043 1236.01 45.043C1224.98 45.043 1215.78 48.6595 1208.4 55.8926ZM1371.69 118.734H1446.56V159.447H1322.27V5.4043H1444.3V46.1172H1371.69V62.6602H1426.69V100.043H1371.69V118.734Z" stroke="white" stroke-width="2" mask="url(#path-1-outside-1_462_18100)"/>
</g>
</svg>
