<svg width="116" height="20" viewBox="0 0 116 20" fill="none" xmlns="http://www.w3.org/2000/svg">
<path d="M2 9.9991C2 15.7205 6.49977 20 12.4433 20C14.5558 20 16.386 19.5431 17.972 18.4199V14.6808C16.4212 15.6813 14.3562 16.3287 12.409 16.3287C8.64108 16.3287 5.82844 13.6907 5.82844 9.9991C5.82844 6.30745 8.64108 3.66953 12.409 3.66953C14.3562 3.66953 16.4212 4.31648 17.972 5.31738V1.58014C16.386 0.457336 14.5558 0 12.4433 0C6.49977 0 2 4.2772 2 9.9991ZM91.5792 4.88397C87.3242 4.88397 83.8736 8.27585 83.8736 12.4411C83.8736 16.6063 87.3246 20 91.5792 20C95.8339 20 99.2844 16.6086 99.2844 12.4433C99.2844 8.2781 95.833 4.88623 91.5792 4.88623M91.5792 16.9061C89.1097 16.9061 87.1463 14.9129 87.1463 12.4433C87.1463 9.97381 89.1097 7.98059 91.5792 7.98059C94.0488 7.98059 96.0117 9.97427 96.0117 12.4433C96.0117 14.9124 94.0479 16.9061 91.5792 16.9061ZM111.548 5.1842L105.15 14.5824V5.18194H101.929V19.7007H105.202L111.594 10.3282V19.7007H114.867V5.18194L111.548 5.1842ZM32.6614 12.0542C33.465 11.5779 34.2384 10.4772 34.2384 9.25734C34.2384 6.907 32.4533 5.18149 30.014 5.18149H21.8424V19.7002H30.3391C32.777 19.7002 34.6235 17.9449 34.6235 15.5354C34.6235 13.8993 33.6415 12.5901 32.6596 12.0546M25.1151 8.03612H29.5079C30.3409 8.03612 30.9657 8.63115 30.9657 9.43567C30.9657 10.2402 30.3409 10.8352 29.5079 10.8352H25.1151V8.03612ZM29.716 16.8447H25.1151V13.6907H29.716C30.6682 13.6907 31.3521 14.3747 31.3521 15.2673C31.3521 16.1598 30.6682 16.8447 29.716 16.8447ZM42.5892 5.18194C39.7034 5.18194 37.5327 7.3535 37.5327 10.1801C37.5327 12.474 38.9955 14.3449 41.1133 14.944L37.1449 19.7007H41.3679L45.1643 15.1485H46.9797V19.7007H50.2524V5.18194H42.5892ZM43.0357 8.03612H46.9815V12.2907H43.0357C41.7264 12.2907 40.8045 11.3088 40.8045 10.1788C40.8045 8.98826 41.7269 8.03612 43.0357 8.03612ZM71.5634 5.18014H68.2907V19.7007H71.5634V13.8099H77.9562V19.7007H81.2289V5.18194H77.9562V10.9539H71.5634V5.18014ZM53.4889 18.8546V15.6429C54.7661 16.312 56.3282 16.9038 58.1138 16.9038C60.284 16.9038 61.6537 16.256 61.6537 15.1034C61.6537 14.0749 60.4573 13.6808 58.9336 13.6808H56.4366V10.8248H58.9336C60.4853 10.8248 61.354 10.2551 61.354 9.4754C61.354 8.33183 59.9828 7.97878 58.3977 7.97878C56.5657 7.97878 55.0786 8.50971 53.8637 9.10068V5.98555C55.1237 5.36524 56.7928 4.88217 58.8704 4.88217C62.0384 4.88217 64.6131 6.56749 64.6131 8.89074C64.6131 10.5842 63.6199 11.6262 62.8239 11.9774C63.8465 12.4596 65.0018 13.6619 65.0018 15.3991C65.0018 18.1228 62.3869 19.9959 58.5589 19.9959C56.363 19.9959 54.7558 19.521 53.4889 18.8528" fill="white" fill-opacity="0.15"/>
<path d="M108.127 4.39721C110.642 4.39721 112.56 2.84145 112.768 0.559736L110.146 0.232422C110.146 1.21888 109.252 1.97644 108.127 1.97644C107.001 1.97644 106.108 1.21933 106.108 0.232422L103.486 0.559736C103.694 2.84145 105.612 4.39721 108.127 4.39721" fill="white" fill-opacity="0.15"/>
</svg>
