<svg width="232" height="40" viewBox="0 0 232 40" fill="none" xmlns="http://www.w3.org/2000/svg">
<path fill-rule="evenodd" clip-rule="evenodd" d="M166.231 31.0449H161.269V28.3705H157.606C153.471 28.3705 147.918 26.9751 147.918 18.2542C147.918 9.53325 153.471 7.78906 157.606 7.78906H170.72C172.965 7.78906 179.463 9.24745 179.463 18.2542C179.463 25.2309 175.328 28.3705 170.72 28.3705H166.231V31.0449ZM166.23 24.0687V11.8594H169.774C172.137 11.8594 174.5 13.6036 174.5 17.6733C174.5 21.7431 172.728 24.0687 169.774 24.0687H166.23ZM161.145 11.8594V24.0687H157.601C154.647 24.0687 152.875 21.7431 152.875 17.6733C152.875 13.6036 155.238 11.8594 157.601 11.8594H161.145Z" fill="white" fill-opacity="0.15"/>
<path fill-rule="evenodd" clip-rule="evenodd" d="M194.232 10.6992C202.266 10.6992 206.401 12.4434 206.401 21.1643C206.401 27.5597 203.458 31.2806 194.822 31.2806C186.67 31.2806 183.008 29.3039 183.008 21.1643C183.008 11.713 188.324 10.6992 194.232 10.6992ZM194.586 15C199.784 15 201.32 16.5117 201.32 20.5815C201.32 26.9768 198.367 26.9768 194.231 26.9768C190.096 26.9768 187.852 25.814 187.852 20.5815C187.852 16.9307 189.387 15 194.586 15Z" fill="white" fill-opacity="0.15"/>
<path d="M209.707 31.046V10.9297H214.905V18.6042H225.302V10.9297H230.383V31.046H225.302V22.9064H214.905V31.046H209.707Z" fill="white" fill-opacity="0.15"/>
<path d="M113.894 31.0469H108.695V14.1864C108.695 12.4422 109.96 11.0469 111.531 11.0469H127.008V15.2329H113.894V31.0469Z" fill="white" fill-opacity="0.15"/>
<path fill-rule="evenodd" clip-rule="evenodd" d="M148.273 31.0462L139.884 13.023C139.864 12.9891 139.842 12.9533 139.819 12.9159C139.325 12.0954 138.342 10.4648 135.867 10.4648C133.436 10.4648 132.428 11.8837 131.819 12.7403C131.746 12.8439 131.678 12.9393 131.614 13.023L123.344 31.0462H128.66L130.433 26.7439H141.066L142.838 31.0462H148.273ZM132.203 22.7886H139.292L136.338 15.9281C136.338 15.9281 136.092 15.2305 135.748 15.2305C135.403 15.2305 135.039 15.742 135.039 15.9281L132.203 22.7886Z" fill="white" fill-opacity="0.15"/>
<path d="M56.1174 31.0481H51.2734V11.2807C51.2734 8.95512 53.1638 7.21094 55.9993 7.21094C58.8348 7.21094 60.3313 9.92412 60.7251 11.2807L67.4595 26.0481L73.8394 11.2807C74.4301 9.92412 75.4934 7.21094 79.0378 7.21094C81.9915 7.21094 83.6455 9.53652 83.6455 11.2807V31.0481H78.4471V13.0249C78.4471 13.0249 71.949 28.1412 71.2402 29.304C70.5313 30.4668 69.3498 31.2807 67.4595 31.2807C65.5691 31.2807 64.0726 29.8854 63.6788 29.304L56.1174 13.0249V31.0481Z" fill="white" fill-opacity="0.15"/>
<path d="M105.389 15.2341V10.6992H90.2662C89.0847 10.6992 87.3125 12.1402 87.3125 13.6062V28.1411C87.3125 29.3039 88.494 30.8155 89.6754 30.8155H105.389V26.6294H92.2746V22.7922H105.034V18.7225H92.2746V15.2341H105.389Z" fill="white" fill-opacity="0.15"/>
<path fill-rule="evenodd" clip-rule="evenodd" d="M20.3212 0V20.0002H17.1313C16.4788 20.0002 15.9498 20.5208 15.9498 21.163V39.5361C6.8277 37.568 0 29.5687 0 20C0 8.9543 9.0981 0 20.3212 0C20.3212 0 20.3212 0 20.3212 0ZM22.6841 0.133764V21.163C22.6841 21.8052 22.1552 22.3258 21.5027 22.3258H18.3127V39.9035C18.9734 39.9673 19.6434 40 20.3212 40C31.5442 40 40.6423 31.0457 40.6423 20C40.6423 9.74094 32.794 1.286 22.6841 0.133764ZM16.2452 16.6279C17.648 16.6279 18.7853 15.5086 18.7853 14.1279C18.7853 12.7472 17.648 11.6279 16.2452 11.6279C14.8423 11.6279 13.705 12.7472 13.705 14.1279C13.705 15.5086 14.8423 16.6279 16.2452 16.6279ZM24.9289 28.547C24.9289 29.9277 23.7917 31.047 22.3888 31.047C20.9859 31.047 19.8486 29.9277 19.8486 28.547C19.8486 27.1663 20.9859 26.047 22.3888 26.047C23.7917 26.047 24.9289 27.1663 24.9289 28.547ZM28.4142 31.047C29.8171 31.047 30.9544 29.9277 30.9544 28.547C30.9544 27.1663 29.8171 26.047 28.4142 26.047C27.0113 26.047 25.8741 27.1663 25.8741 28.547C25.8741 29.9277 27.0113 31.047 28.4142 31.047ZM36.9798 28.547C36.9798 29.9277 35.8425 31.047 34.4396 31.047C33.0368 31.047 31.8995 29.9277 31.8995 28.547C31.8995 27.1663 33.0368 26.047 34.4396 26.047C35.8425 26.047 36.9798 27.1663 36.9798 28.547Z" fill="white" fill-opacity="0.15"/>
</svg>
