<svg width="108" height="20" viewBox="0 0 108 20" fill="none" xmlns="http://www.w3.org/2000/svg">
<path fill-rule="evenodd" clip-rule="evenodd" d="M6.27147 4.26296C5.34195 5.11546 4.7015 6.35044 4.9346 8.05991C5.27663 10.5681 6.69829 11.6776 8.21081 12.0112C9.86703 12.3765 11.6421 11.8183 12.5531 10.8465C13.0982 10.2651 14.0114 10.2357 14.5928 10.7807C15.1742 11.3258 15.2037 12.239 14.6586 12.8204C12.9722 14.6192 10.1217 15.388 7.58924 14.8295C4.91307 14.2392 2.58292 12.1741 2.07506 8.44985C1.69772 5.68267 2.78887 3.54101 4.32077 2.13603C5.79432 0.784568 7.73085 0.0585938 9.27685 0.0585938C10.808 0.0585938 11.9766 0.408378 12.8861 0.907671C13.7302 1.37105 14.2942 1.93721 14.6302 2.27447C14.6488 2.29314 14.6667 2.3111 14.6839 2.32831C15.2475 2.89184 15.2475 3.8055 14.6839 4.36903C14.1204 4.93256 13.2067 4.93256 12.6432 4.36903L12.6238 4.34962C12.286 4.01175 11.9731 3.69871 11.4973 3.43754C11.0312 3.18165 10.3431 2.9446 9.27685 2.9446C8.51404 2.9446 7.25933 3.35694 6.27147 4.26296Z" fill="white" fill-opacity="0.15"/>
<path fill-rule="evenodd" clip-rule="evenodd" d="M2.83984 18.6435C2.83984 17.8944 3.44714 17.2871 4.19627 17.2871H14.0664C14.8155 17.2871 15.4228 17.8944 15.4228 18.6435C15.4228 19.3927 14.8155 20 14.0664 20H4.19627C3.44714 20 2.83984 19.3927 2.83984 18.6435Z" fill="white" fill-opacity="0.15"/>
<path fill-rule="evenodd" clip-rule="evenodd" d="M19.2766 8.94664C20.986 8.94704 22.4159 8.95277 23.6103 8.95756C25.7291 8.96605 27.1063 8.97157 27.9866 8.93906C28.6254 8.91546 29.2517 8.87195 29.7245 8.67137C30.0243 8.54417 30.3412 8.32496 30.5583 7.95693C30.752 7.62844 30.7874 7.30612 30.8005 7.16205C31.1757 3.03492 27.4743 0 23.7063 0C20.1282 0 16.4336 3.0359 16.4336 7.56134C16.4336 12.1031 20.1452 15.065 23.7063 15.065C25.3309 15.065 26.58 14.7393 27.4461 14.3928C27.8778 14.2201 28.2117 14.0434 28.4478 13.9017C28.5659 13.8309 28.6596 13.7688 28.729 13.7202C28.7637 13.6959 28.7924 13.675 28.815 13.658C28.8263 13.6495 28.8361 13.642 28.8443 13.6356L28.8556 13.6268L28.8604 13.623L28.8626 13.6213L28.8637 13.6204C28.8642 13.62 28.8647 13.6196 28.0353 12.583L28.8647 13.6196C29.4372 13.1616 29.53 12.3262 29.072 11.7537C28.6177 11.1858 27.7921 11.0899 27.22 11.5353C27.2177 11.537 27.2132 11.5403 27.2064 11.545C27.1856 11.5596 27.1441 11.5876 27.0818 11.625C26.9571 11.6998 26.7499 11.8116 26.46 11.9276C25.8832 12.1583 24.9678 12.4098 23.7063 12.4098C21.8633 12.4098 19.8841 11.0987 19.2766 8.94664ZM23.7063 2.65513C21.8425 2.65513 19.8128 4.04668 19.2442 6.29151C21.0445 6.29184 22.5182 6.29783 23.727 6.30275C25.7737 6.31107 27.0611 6.31631 27.8886 6.28574C27.9869 6.28211 28.0743 6.27797 28.1516 6.2736C27.9464 4.31757 26.034 2.65513 23.7063 2.65513ZM28.1562 6.92166C28.1552 6.93322 28.1547 6.93041 28.1567 6.91647C28.1566 6.9182 28.1564 6.91993 28.1562 6.92166Z" fill="white" fill-opacity="0.15"/>
<path fill-rule="evenodd" clip-rule="evenodd" d="M45.425 8.94664C47.1344 8.94704 48.5644 8.95277 49.7587 8.95756C51.8775 8.96605 53.2548 8.97157 54.135 8.93906C54.7738 8.91546 55.4001 8.87195 55.8729 8.67137C56.1727 8.54417 56.4896 8.32496 56.7067 7.95693C56.9004 7.62844 56.9358 7.30612 56.9489 7.16205C57.3241 3.03492 53.6227 0 49.8548 0C46.2767 0 42.582 3.0359 42.582 7.56134C42.582 12.1031 46.2937 15.065 49.8548 15.065C51.4793 15.065 52.7284 14.7393 53.5946 14.3928C54.0262 14.2201 54.3601 14.0434 54.5962 13.9017C54.7143 13.8309 54.808 13.7688 54.8774 13.7202C54.9122 13.6959 54.9408 13.675 54.9634 13.658C54.9747 13.6495 54.9845 13.642 54.9928 13.6356L55.0041 13.6268L55.0089 13.623L55.0111 13.6213L55.0121 13.6204C55.0126 13.62 55.0131 13.6196 54.1838 12.583L55.0131 13.6196C55.5856 13.1616 55.6785 12.3262 55.2204 11.7537C54.7661 11.1858 53.9405 11.0899 53.3685 11.5353C53.3661 11.537 53.3616 11.5403 53.3548 11.545C53.3341 11.5596 53.2925 11.5876 53.2302 11.625C53.1056 11.6998 52.8984 11.8116 52.6085 11.9276C52.0316 12.1583 51.1162 12.4098 49.8548 12.4098C48.0117 12.4098 46.0326 11.0987 45.425 8.94664ZM49.8548 2.65513C47.9909 2.65513 45.9612 4.04668 45.3927 6.29151C47.1929 6.29184 48.6666 6.29783 49.8755 6.30275C51.9222 6.31107 53.2096 6.31631 54.037 6.28574C54.1354 6.28211 54.2227 6.27797 54.3001 6.2736C54.0949 4.31757 52.1824 2.65513 49.8548 2.65513ZM54.3047 6.92166C54.3036 6.93322 54.3032 6.93041 54.3051 6.91647C54.305 6.9182 54.3048 6.91993 54.3047 6.92166Z" fill="white" fill-opacity="0.15"/>
<path fill-rule="evenodd" clip-rule="evenodd" d="M77.343 8.94664C79.0524 8.94704 80.4823 8.95277 81.6767 8.95756C83.7955 8.96605 85.1727 8.97157 86.053 8.93906C86.6918 8.91546 87.3181 8.87195 87.7909 8.67137C88.0907 8.54417 88.4076 8.32496 88.6247 7.95693C88.8184 7.62844 88.8538 7.30612 88.8669 7.16205C89.2421 3.03492 85.5407 0 81.7727 0C78.1946 0 74.5 3.0359 74.5 7.56134C74.5 12.1031 78.2116 15.065 81.7727 15.065C83.3973 15.065 84.6464 14.7393 85.5125 14.3928C85.9442 14.2201 86.2781 14.0434 86.5142 13.9017C86.6323 13.8309 86.726 13.7688 86.7954 13.7202C86.8301 13.6959 86.8588 13.675 86.8814 13.658C86.8927 13.6495 86.9025 13.642 86.9108 13.6356L86.922 13.6268L86.9268 13.623L86.929 13.6213L86.9301 13.6204C86.9306 13.62 86.9311 13.6196 86.1018 12.583L86.9311 13.6196C87.5036 13.1616 87.5964 12.3262 87.1384 11.7537C86.6841 11.1858 85.8585 11.0899 85.2864 11.5353C85.2841 11.537 85.2796 11.5403 85.2728 11.545C85.252 11.5596 85.2105 11.5876 85.1482 11.625C85.0236 11.6998 84.8163 11.8116 84.5265 11.9276C83.9496 12.1583 83.0342 12.4098 81.7727 12.4098C79.9297 12.4098 77.9505 11.0987 77.343 8.94664ZM81.7727 2.65513C79.9089 2.65513 77.8792 4.04668 77.3107 6.29151C79.1109 6.29184 80.5846 6.29783 81.7935 6.30275C83.8401 6.31107 85.1275 6.31631 85.955 6.28574C86.0533 6.28211 86.1407 6.27797 86.218 6.2736C86.0128 4.31757 84.1004 2.65513 81.7727 2.65513ZM86.2226 6.92166C86.2216 6.93322 86.2211 6.93041 86.2231 6.91647C86.223 6.9182 86.2228 6.91993 86.2226 6.92166Z" fill="white" fill-opacity="0.15"/>
<path fill-rule="evenodd" clip-rule="evenodd" d="M105.442 0.280131C106.01 0.478212 106.391 1.01389 106.391 1.6154V13.448C106.391 14.229 105.758 14.8621 104.977 14.8621C104.196 14.8621 103.563 14.229 103.563 13.448V5.67014L99.8504 10.3448C99.5842 10.68 99.1805 10.8766 98.7524 10.8794C98.3244 10.8823 97.9181 10.6911 97.6474 10.3595L93.7502 5.58452V13.448C93.7502 14.229 93.117 14.8621 92.336 14.8621C91.555 14.8621 90.9219 14.229 90.9219 13.448V1.6154C90.9219 1.01737 91.2981 0.483988 91.8614 0.283277C92.4247 0.0825658 93.0534 0.257919 93.4316 0.721224L98.7279 7.21036L103.869 0.735966C104.243 0.264921 104.874 0.08205 105.442 0.280131Z" fill="white" fill-opacity="0.15"/>
<path fill-rule="evenodd" clip-rule="evenodd" d="M61.3786 0.443487C61.6438 0.178283 62.0035 0.0292945 62.3786 0.0292969H70.9211C71.2962 0.029289 71.6559 0.178275 71.9211 0.443479C72.1863 0.708684 72.3353 1.06838 72.3353 1.44344V13.3915C72.3353 14.1725 71.7022 14.8057 70.9212 14.8057C70.1402 14.8057 69.507 14.1725 69.507 13.3915V2.85758H63.7927V8.83162C63.7927 10.583 63.2264 12.0934 62.1851 13.1747C61.145 14.2549 59.7267 14.8057 58.2227 14.8057C57.4417 14.8057 56.8086 14.1725 56.8086 13.3915C56.8086 12.6105 57.4417 11.9774 58.2227 11.9774C59.0276 11.9774 59.6872 11.6912 60.1478 11.2129C60.6072 10.7358 60.9644 9.9662 60.9644 8.83162V1.44344C60.9644 1.06838 61.1134 0.70869 61.3786 0.443487Z" fill="white" fill-opacity="0.15"/>
<path fill-rule="evenodd" clip-rule="evenodd" d="M30.6328 1.55911C30.6328 0.794041 31.253 0.173828 32.0181 0.173828H41.3688C42.1338 0.173828 42.754 0.794041 42.754 1.55911C42.754 2.32418 42.1338 2.94439 41.3688 2.94439H38.0787V13.5072C38.0787 14.2723 37.4585 14.8925 36.6934 14.8925C35.9284 14.8925 35.3081 14.2723 35.3081 13.5072V2.94439H32.0181C31.253 2.94439 30.6328 2.32418 30.6328 1.55911Z" fill="white" fill-opacity="0.15"/>
</svg>
