<svg width="136" height="20" viewBox="0 0 136 20" fill="none" xmlns="http://www.w3.org/2000/svg">
<path d="M34.709 9.27789C34.709 7.02411 35.2048 5.29192 36.1965 4.08132C37.1881 2.85783 38.6048 2.24609 40.4465 2.24609C41.4124 2.24609 42.2559 2.41352 42.9771 2.74837C43.6984 3.08321 44.2972 3.55973 44.7737 4.17791C45.2502 4.79609 45.6044 5.53661 45.8362 6.39949C46.068 7.26237 46.184 8.22183 46.184 9.27789C46.184 11.5317 45.6817 13.2703 44.6771 14.4938C43.6855 15.7044 42.2753 16.3097 40.4465 16.3097C39.4677 16.3097 38.6177 16.1423 37.8965 15.8074C37.1753 15.4726 36.5764 14.9961 36.0999 14.3779C35.6363 13.7597 35.2885 13.0192 35.0567 12.1563C34.8249 11.2934 34.709 10.334 34.709 9.27789ZM37.4908 9.27789C37.4908 9.96047 37.5487 10.5915 37.6647 11.1711C37.7806 11.7377 37.9544 12.2271 38.1862 12.6392C38.4309 13.0514 38.74 13.3733 39.1135 13.6052C39.487 13.837 39.9313 13.9529 40.4465 13.9529C41.3866 13.9529 42.1143 13.5858 42.6294 12.8517C43.1446 12.1177 43.4021 10.9264 43.4021 9.27789C43.4021 8.62108 43.3442 8.00934 43.2283 7.44267C43.1252 6.876 42.9578 6.38017 42.726 5.95517C42.4942 5.53018 42.1915 5.20177 41.8181 4.96995C41.4446 4.72525 40.9874 4.60291 40.4465 4.60291C39.5063 4.60291 38.7787 4.98283 38.2635 5.74267C37.7484 6.48964 37.4908 7.66805 37.4908 9.27789Z" fill="white" fill-opacity="0.15"/>
<path d="M47.9591 6.38017H49.7943L50.0841 7.53926H50.1614C50.4962 7.04987 50.889 6.68926 51.3398 6.45745C51.8034 6.22563 52.3637 6.10972 53.0205 6.10972C54.2311 6.10972 55.139 6.49608 55.7443 7.26881C56.3496 8.02865 56.6523 9.25857 56.6523 10.9586C56.6523 11.7828 56.5557 12.5298 56.3625 13.1995C56.1693 13.8563 55.8796 14.4165 55.4932 14.8801C55.1197 15.3438 54.6561 15.6979 54.1023 15.9426C53.5614 16.1873 52.9368 16.3097 52.2284 16.3097C51.8292 16.3097 51.5008 16.2775 51.2432 16.2131C50.9856 16.1616 50.7281 16.0714 50.4705 15.9426V19.9029H47.9591V6.38017ZM52.2671 8.23471C51.7777 8.23471 51.3913 8.35706 51.108 8.60176C50.8375 8.84645 50.625 9.2135 50.4705 9.70289V13.7211C50.6508 13.8627 50.844 13.9786 51.05 14.0688C51.269 14.1461 51.5523 14.1847 51.9 14.1847C52.6212 14.1847 53.1621 13.9336 53.5227 13.4313C53.8834 12.9161 54.0637 12.0726 54.0637 10.9006C54.0637 10.0506 53.922 9.3938 53.6387 8.93017C53.3553 8.46653 52.8981 8.23471 52.2671 8.23471Z" fill="white" fill-opacity="0.15"/>
<path d="M57.3286 6.38017H58.6615V4.56427L61.1729 3.8495V6.38017H63.5297V8.50517H61.1729V12.2142C61.1729 12.8839 61.2373 13.3669 61.3661 13.6631C61.5077 13.9464 61.7653 14.0881 62.1388 14.0881C62.3964 14.0881 62.6153 14.0623 62.7956 14.0108C62.9888 13.9593 63.2013 13.882 63.4331 13.779L63.8774 15.7108C63.5297 15.8783 63.124 16.0199 62.6604 16.1358C62.1968 16.2517 61.7267 16.3097 61.2502 16.3097C60.3615 16.3097 59.7047 16.0843 59.2797 15.6336C58.8676 15.1699 58.6615 14.4165 58.6615 13.3733V8.50517H57.3286V6.38017Z" fill="white" fill-opacity="0.15"/>
<path d="M65.2413 6.38017L67.7527 5.89722V16.0392H65.2413V6.38017Z" fill="white" fill-opacity="0.15"/>
<path d="M76.031 12.4074C76.031 11.9953 75.8764 11.6605 75.5673 11.4029C75.2711 11.1453 74.8912 10.9135 74.4276 10.7074C73.9768 10.4885 73.481 10.2696 72.9401 10.0506C72.4121 9.8188 71.9162 9.54191 71.4526 9.21994C71.0018 8.88509 70.6219 8.47297 70.3128 7.98358C70.0166 7.49418 69.8685 6.86957 69.8685 6.10972C69.8685 5.4529 69.978 4.88624 70.1969 4.40972C70.4159 3.92033 70.7249 3.51465 71.1242 3.19268C71.5363 2.87071 72.0193 2.63246 72.573 2.47791C73.1268 2.32337 73.745 2.24609 74.4276 2.24609C75.2132 2.24609 75.9537 2.31693 76.6492 2.45859C77.3446 2.58738 77.9177 2.78056 78.3685 3.03814L77.5378 5.25972C77.2545 5.07942 76.8295 4.91843 76.2628 4.77677C75.6961 4.62222 75.0844 4.54495 74.4276 4.54495C73.8094 4.54495 73.3329 4.6673 72.998 4.912C72.6761 5.15669 72.5151 5.4851 72.5151 5.89722C72.5151 6.28358 72.6632 6.60555 72.9594 6.86313C73.2685 7.1207 73.6484 7.35896 74.0992 7.5779C74.5628 7.79684 75.0586 8.02221 75.5867 8.25403C76.1276 8.48585 76.6234 8.76918 77.0742 9.10403C77.5378 9.426 77.9177 9.83168 78.2139 10.3211C78.523 10.7976 78.6776 11.3964 78.6776 12.1177C78.6776 12.8389 78.5552 13.4635 78.3105 13.9915C78.0787 14.5067 77.7439 14.9381 77.306 15.2858C76.881 15.6336 76.3594 15.8911 75.7412 16.0586C75.1359 16.226 74.4662 16.3097 73.7321 16.3097C72.7662 16.3097 71.9162 16.2195 71.1821 16.0392C70.448 15.8589 69.9071 15.6786 69.5594 15.4983L70.4094 13.2381C70.5511 13.3154 70.7314 13.3991 70.9503 13.4892C71.1821 13.5794 71.4397 13.6631 71.723 13.7404C72.0064 13.8177 72.3026 13.882 72.6117 13.9336C72.9336 13.9851 73.2621 14.0108 73.5969 14.0108C74.3825 14.0108 74.9814 13.882 75.3935 13.6245C75.8185 13.354 76.031 12.9483 76.031 12.4074Z" fill="white" fill-opacity="0.15"/>
<path d="M83.8402 11.8086L84.1879 13.3154H84.3038L84.555 11.7892L86.0232 6.38017H88.6118L85.6754 15.0926C85.4307 15.8139 85.1925 16.4707 84.9607 17.0631C84.7417 17.6684 84.497 18.19 84.2266 18.6279C83.9561 19.0657 83.6535 19.4006 83.3186 19.6324C82.9966 19.8771 82.6103 19.9995 82.1595 19.9995C81.4898 19.9995 80.9554 19.89 80.5561 19.671L81.0198 17.662C81.2129 17.7392 81.4061 17.7779 81.5993 17.7779C81.8955 17.7779 82.1788 17.6491 82.4493 17.3915C82.7326 17.1468 82.9451 16.6961 83.0868 16.0392L79.0493 6.38017H82.0629L83.8402 11.8086Z" fill="white" fill-opacity="0.15"/>
<path d="M93.4898 13.3733C93.4898 13.1158 93.3803 12.9097 93.1614 12.7552C92.9424 12.6006 92.672 12.4589 92.35 12.3302C92.028 12.2014 91.6739 12.0726 91.2875 11.9438C90.9011 11.8021 90.547 11.6154 90.225 11.3836C89.903 11.1389 89.6326 10.8362 89.4137 10.4756C89.1947 10.1021 89.0852 9.62562 89.0852 9.04607C89.0852 8.09305 89.3686 7.3654 89.9352 6.86313C90.5019 6.36086 91.3197 6.10972 92.3886 6.10972C93.1227 6.10972 93.786 6.18699 94.3784 6.34154C94.9708 6.49608 95.4345 6.66995 95.7693 6.86313L95.2091 8.67903C94.9129 8.56312 94.5394 8.44077 94.0886 8.31199C93.6379 8.1832 93.1807 8.1188 92.7171 8.1188C91.9701 8.1188 91.5966 8.40858 91.5966 8.98812C91.5966 9.21994 91.7061 9.40668 91.925 9.54835C92.144 9.69001 92.4144 9.82524 92.7364 9.95403C93.0583 10.0699 93.4125 10.1987 93.7989 10.3404C94.1852 10.4821 94.5394 10.6688 94.8614 10.9006C95.1833 11.1196 95.4538 11.4093 95.6727 11.7699C95.8917 12.1305 96.0011 12.5942 96.0011 13.1608C96.0011 14.1396 95.6856 14.9123 95.0546 15.479C94.4364 16.0328 93.5027 16.3097 92.2534 16.3097C91.5708 16.3097 90.9269 16.2195 90.3216 16.0392C89.7292 15.8718 89.2462 15.6722 88.8727 15.4404L89.5682 13.5665C89.8644 13.7339 90.2572 13.9014 90.7466 14.0688C91.236 14.2233 91.7383 14.3006 92.2534 14.3006C92.6269 14.3006 92.9231 14.2298 93.1421 14.0881C93.3739 13.9464 93.4898 13.7082 93.4898 13.3733Z" fill="white" fill-opacity="0.15"/>
<path d="M96.5777 6.38017H97.9106V4.56427L100.422 3.8495V6.38017H102.779V8.50517H100.422V12.2142C100.422 12.8839 100.486 13.3669 100.615 13.6631C100.757 13.9464 101.014 14.0881 101.388 14.0881C101.645 14.0881 101.864 14.0623 102.045 14.0108C102.238 13.9593 102.45 13.882 102.682 13.779L103.127 15.7108C102.779 15.8783 102.373 16.0199 101.909 16.1358C101.446 16.2517 100.976 16.3097 100.499 16.3097C99.6106 16.3097 98.9538 16.0843 98.5288 15.6336C98.1167 15.1699 97.9106 14.4165 97.9106 13.3733V8.50517H96.5777V6.38017Z" fill="white" fill-opacity="0.15"/>
<path d="M111.892 15.2086C111.505 15.5176 110.977 15.7817 110.307 16.0006C109.651 16.2067 108.949 16.3097 108.202 16.3097C106.643 16.3097 105.504 15.8589 104.782 14.9574C104.061 14.043 103.701 12.7938 103.701 11.2097C103.701 9.50971 104.106 8.23471 104.918 7.38472C105.729 6.53472 106.869 6.10972 108.337 6.10972C108.826 6.10972 109.303 6.17411 109.767 6.3029C110.23 6.43169 110.642 6.64419 111.003 6.9404C111.364 7.23661 111.653 7.63585 111.872 8.13812C112.091 8.64039 112.201 9.26501 112.201 10.012C112.201 10.2824 112.181 10.5722 112.143 10.8813C112.117 11.1904 112.072 11.5124 112.007 11.8472H106.212C106.251 12.6586 106.457 13.2703 106.83 13.6824C107.217 14.0945 107.835 14.3006 108.685 14.3006C109.213 14.3006 109.683 14.2233 110.095 14.0688C110.52 13.9014 110.842 13.7339 111.061 13.5665L111.892 15.2086ZM108.298 8.1188C107.642 8.1188 107.152 8.31843 106.83 8.71767C106.521 9.10403 106.334 9.62562 106.27 10.2824H109.863C109.915 9.58698 109.805 9.05251 109.535 8.67903C109.277 8.30555 108.865 8.1188 108.298 8.1188Z" fill="white" fill-opacity="0.15"/>
<path d="M119.402 16.0392V10.7847C119.402 9.89607 119.318 9.26501 119.151 8.89153C118.984 8.51805 118.636 8.3313 118.108 8.3313C117.67 8.3313 117.316 8.45365 117.045 8.69835C116.775 8.93017 116.569 9.23282 116.427 9.6063V16.0392H113.916V6.38017H115.867L116.157 7.65517H116.234C116.53 7.24305 116.904 6.88244 117.354 6.57335C117.818 6.26427 118.41 6.10972 119.132 6.10972C119.75 6.10972 120.252 6.23851 120.638 6.49608C121.038 6.74078 121.347 7.15934 121.566 7.75176C121.862 7.24949 122.242 6.85025 122.705 6.55404C123.169 6.25783 123.729 6.10972 124.386 6.10972C124.927 6.10972 125.384 6.17411 125.758 6.3029C126.144 6.43169 126.453 6.65707 126.685 6.97903C126.93 7.28812 127.11 7.70668 127.226 8.23471C127.342 8.76274 127.4 9.43244 127.4 10.2438V16.0392H124.888V10.6108C124.888 9.851 124.805 9.28433 124.637 8.91085C124.483 8.52449 124.129 8.3313 123.575 8.3313C123.124 8.3313 122.763 8.45365 122.493 8.69835C122.235 8.94304 122.042 9.27789 121.913 9.70289V16.0392H119.402Z" fill="white" fill-opacity="0.15"/>
<path d="M133.401 13.3733C133.401 13.1158 133.292 12.9097 133.073 12.7552C132.854 12.6006 132.583 12.4589 132.261 12.3302C131.939 12.2014 131.585 12.0726 131.199 11.9438C130.812 11.8021 130.458 11.6154 130.136 11.3836C129.814 11.1389 129.544 10.8362 129.325 10.4756C129.106 10.1021 128.997 9.62562 128.997 9.04607C128.997 8.09305 129.28 7.3654 129.847 6.86313C130.413 6.36086 131.231 6.10972 132.3 6.10972C133.034 6.10972 133.697 6.18699 134.29 6.34154C134.882 6.49608 135.346 6.66995 135.681 6.86313L135.12 8.67903C134.824 8.56312 134.451 8.44077 134 8.31199C133.549 8.1832 133.092 8.1188 132.628 8.1188C131.881 8.1188 131.508 8.40858 131.508 8.98812C131.508 9.21994 131.617 9.40668 131.836 9.54835C132.055 9.69001 132.326 9.82524 132.648 9.95403C132.97 10.0699 133.324 10.1987 133.71 10.3404C134.097 10.4821 134.451 10.6688 134.773 10.9006C135.095 11.1196 135.365 11.4093 135.584 11.7699C135.803 12.1305 135.912 12.5942 135.912 13.1608C135.912 14.1396 135.597 14.9123 134.966 15.479C134.348 16.0328 133.414 16.3097 132.165 16.3097C131.482 16.3097 130.838 16.2195 130.233 16.0392C129.64 15.8718 129.158 15.6722 128.784 15.4404L129.48 13.5665C129.776 13.7339 130.169 13.9014 130.658 14.0688C131.147 14.2233 131.65 14.3006 132.165 14.3006C132.538 14.3006 132.834 14.2298 133.053 14.0881C133.285 13.9464 133.401 13.7082 133.401 13.3733Z" fill="white" fill-opacity="0.15"/>
<path fill-rule="evenodd" clip-rule="evenodd" d="M5.07536 14.8103H1.95906C1.42967 14.8103 1 15.24 1 15.7694V18.8857C1 19.415 1.42967 19.8447 1.95906 19.8447H5.07536C5.60475 19.8447 6.03442 19.415 6.03442 18.8857V15.7694C6.03442 15.24 5.60475 14.8103 5.07536 14.8103Z" fill="white" fill-opacity="0.15"/>
<path fill-rule="evenodd" clip-rule="evenodd" d="M24.7433 4.80078H21.627C21.0976 4.80078 20.668 5.23046 20.668 5.75984V8.87614C20.668 9.40553 21.0976 9.8352 21.627 9.8352H24.7433C25.2727 9.8352 25.7024 9.40553 25.7024 8.87614V5.75984C25.7024 5.23046 25.2727 4.80078 24.7433 4.80078Z" fill="white" fill-opacity="0.15"/>
<path fill-rule="evenodd" clip-rule="evenodd" d="M9.77964 0H6.7323C6.21415 0 5.79434 0.420223 5.79434 0.937961V3.40062C5.78938 3.40062 5.78443 3.40104 5.77988 3.40186C5.71046 4.13364 5.13364 4.71088 4.40145 4.77988C4.35393 4.78443 4.30889 4.79434 4.26014 4.79434H1.93796C1.42022 4.79434 1 5.21457 1 5.7323V8.77964C1 9.29779 1.42022 9.7176 1.93796 9.7176H4.98571C5.50345 9.7176 5.92367 9.29779 5.92367 8.77964V6.46077C5.92367 5.61165 6.61165 4.92409 7.45995 4.92409V4.92326H9.77964C10.2978 4.92326 10.7176 4.50345 10.7176 3.9853V0.937961C10.7176 0.420223 10.2978 0 9.77964 0Z" fill="white" fill-opacity="0.15"/>
<path fill-rule="evenodd" clip-rule="evenodd" d="M19.7308 0H16.6835C16.1653 0 15.7455 0.420223 15.7455 0.937961V3.40062C15.7406 3.40062 15.7356 3.40104 15.7311 3.40186C15.6616 4.13364 15.0848 4.71088 14.3526 4.77988C14.3051 4.78443 14.2601 4.79434 14.2113 4.79434H11.8891C11.3714 4.79434 10.9512 5.21457 10.9512 5.7323V8.77964C10.9512 9.29779 11.3714 9.7176 11.8891 9.7176H14.9369C15.4546 9.7176 15.8748 9.29779 15.8748 8.77964V6.46077C15.8748 5.61165 16.5628 4.92409 17.4111 4.92409V4.92326H19.7308C20.249 4.92326 20.6688 4.50345 20.6688 3.9853V0.937961C20.6688 0.420223 20.249 0 19.7308 0Z" fill="white" fill-opacity="0.15"/>
<path fill-rule="evenodd" clip-rule="evenodd" d="M19.8455 10.0684H16.7855C16.2652 10.0684 15.8433 10.4831 15.8433 10.995V13.4275C15.8383 13.4279 15.8337 13.4283 15.8292 13.4291C15.7595 14.152 15.1803 14.7223 14.4459 14.7905C14.3982 14.7949 14.3525 14.8043 14.304 14.8043H12.639C11.7868 14.8043 11.0964 14.1251 11.0964 13.2866V10.9954C11.0964 10.4835 10.6744 10.0688 10.1541 10.0688H7.09418C6.57389 10.0688 6.15234 10.4835 6.15234 10.9954V14.0059C6.15234 14.5178 6.57389 14.9325 7.09418 14.9325H9.42594C9.4749 14.9325 9.52013 14.9423 9.56743 14.9468C10.3026 15.015 10.8818 15.5852 10.9516 16.3081C10.9565 16.3086 10.9611 16.3094 10.9661 16.3094V18.7423C10.9661 19.2537 11.3876 19.6689 11.9079 19.6689H14.9662C14.9674 19.6689 14.9687 19.6685 14.9695 19.6685H15.0321C15.552 19.6685 15.9736 19.2537 15.9736 18.7419V16.4506C15.9736 15.6122 16.6644 14.9325 17.5162 14.9325H19.8455C20.3657 14.9325 20.7873 14.5174 20.7873 14.0055V10.995C20.7873 10.4831 20.3657 10.0684 19.8455 10.0684Z" fill="white" fill-opacity="0.15"/>
</svg>
