<svg width="116" height="20" viewBox="0 0 116 20" fill="none" xmlns="http://www.w3.org/2000/svg">
<path d="M5.90019 0.500244L1 5.40043L15.5995 20L28.1047 7.49477H35.7945L42.789 0.500244H25.202L15.5995 10.1028L10.8972 5.40043L15.7974 0.500244H5.90019Z" fill="white" fill-opacity="0.15"/>
<path d="M28.595 9.17188H42.274L35.4613 15.9846H31.5897L27.5751 19.9993H17.7676L28.595 9.17188Z" fill="white" fill-opacity="0.15"/>
<path d="M58.3044 19.1819V6.52758H58.5598L62.9575 13.8282H65.1705L69.5682 6.52758H69.8236V19.1819H73.9943V0H69.4263L64.1491 8.70344L58.8151 0H54.1621V19.1819H58.3044ZM82.7435 19.1819V10.9938H84.8424L90.6283 19.1819H96.1022L88.3593 8.9611L95.4215 0H90.1745L84.814 7.07154L82.7435 7.30058V0H78.5459V19.1819H82.7435ZM108.071 19.1819C109.164 19.1819 110.171 19.0388 111.092 18.7811C112.013 18.4948 112.818 18.094 113.48 17.5786C114.142 17.0347 114.66 16.3762 115.063 15.6318C115.408 14.8302 115.609 13.9713 115.609 12.9693C115.609 11.9386 115.408 11.0511 115.063 10.2494C114.66 9.50507 114.142 8.84658 113.509 8.35988C112.818 7.84454 112.042 7.47236 111.092 7.21469C110.171 6.95702 109.164 6.8425 108.071 6.8425H103.64V3.86501H113.797V0H99.3534V19.1819H108.071ZM108.251 15.2805H103.905V10.4038H108.363C109.323 10.4038 110.057 10.6094 110.593 11.0501C111.129 11.4614 111.383 12.0489 111.383 12.8421C111.383 13.5766 111.129 14.1641 110.593 14.6342C110.085 15.0455 109.295 15.2805 108.251 15.2805Z" fill="white" fill-opacity="0.15"/>
</svg>
