<svg width="64" height="20" viewBox="0 0 64 20" fill="none" xmlns="http://www.w3.org/2000/svg">
<path d="M32.6016 4.78296H34.2768V6.28572H32.6016V4.78296ZM32.6016 7.15976H34.2768V13.4788H32.6016V7.15976Z" fill="white" fill-opacity="0.15"/>
<path d="M36.8266 8.16978H36.8635C37.2454 7.45526 37.6765 7.08569 38.4155 7.08569C38.6002 7.08569 38.7112 7.09811 38.8097 7.13501V8.6008H38.7727C37.6765 8.49003 36.8882 9.06894 36.8882 10.3992V13.4787H35.2129V7.15964H36.8266V8.16978Z" fill="white" fill-opacity="0.15"/>
<path d="M42.0742 4.78296H43.7494V6.28572H42.0742V4.78296ZM42.0743 7.15976H43.7496V13.4788H42.0743V7.15976Z" fill="white" fill-opacity="0.15"/>
<path d="M46.3237 8.02273H46.3606C46.7918 7.34526 47.3705 6.98804 48.2328 6.98804C49.5387 6.98804 50.4131 7.97341 50.4131 9.35306V13.4795H48.738V9.59936C48.738 8.92189 48.3437 8.44148 47.6416 8.44148C46.9026 8.44148 46.3606 9.03273 46.3606 9.89499V13.4795H44.6855V7.16047H46.3238V8.02273H46.3237Z" fill="white" fill-opacity="0.15"/>
<path d="M51.1016 10.3138C51.1016 8.44148 52.3701 6.98804 54.2179 6.98804C56.2503 6.98804 57.3342 8.54005 57.3342 10.7942H52.7521C52.8753 11.7672 53.4173 12.3709 54.3657 12.3709C55.0185 12.3709 55.4004 12.0752 55.5851 11.5947H57.2358C57.0018 12.7157 56.004 13.6643 54.3781 13.6643C52.2841 13.6642 51.1016 12.1983 51.1016 10.3138ZM52.7767 9.63634H55.5851C55.5358 8.8356 55.0062 8.28125 54.2425 8.28125C53.3556 8.28125 52.9245 8.81098 52.7767 9.63634Z" fill="white" fill-opacity="0.15"/>
<path d="M57.7207 11.4346H59.2727C59.3837 12.1614 59.9009 12.4816 60.6524 12.4816C61.3916 12.4816 61.8103 12.1983 61.8103 11.755C61.8103 11.1514 61.0096 11.0897 60.1475 10.9174C59.0141 10.6957 57.9056 10.3877 57.9056 9.00811C57.9056 7.64089 59.0389 6.98804 60.48 6.98804C62.1428 6.98804 63.0667 7.81332 63.1899 9.08198H61.6748C61.6008 8.40458 61.1697 8.1582 60.4554 8.1582C59.8025 8.1582 59.3713 8.40458 59.3713 8.8603C59.3713 9.40223 60.209 9.45155 61.1082 9.63641C62.1675 9.85809 63.3378 10.1537 63.3378 11.6319C63.3378 12.9006 62.2537 13.6643 60.677 13.6643C58.8416 13.6642 57.8194 12.7774 57.7207 11.4346Z" fill="white" fill-opacity="0.15"/>
<path d="M28.6488 4.78296H26.6991L23.1738 13.4787H25.1693L25.8221 11.6927H29.419L30.084 13.4787H32.0919L28.6488 4.78296ZM26.3025 10.2268L27.5959 6.53139L28.9261 10.2267H26.3025V10.2268Z" fill="white" fill-opacity="0.15"/>
<path d="M41.1363 4.78296H39.4609V13.4787H41.1363V4.78296Z" fill="white" fill-opacity="0.15"/>
<path d="M20.9999 10.0022C20.9999 15.5267 16.5259 20 11.003 20C5.47935 20 1 15.5267 1 10.0022C1 4.47759 5.47935 0 11.003 0C16.526 0 20.9999 4.47759 20.9999 10.0022Z" fill="white" fill-opacity="0.15"/>
<path d="M10.2746 4.7832C8.69949 4.7832 7.67764 4.87027 6.93793 5.14487C5.69489 5.62909 4.83644 6.64396 4.83644 7.97767C4.83644 9.0885 5.35368 9.89297 6.85058 10.8182C8.44775 11.7865 8.76638 12.1064 8.76638 12.6899C8.76638 13.3284 8.14076 14.0552 6.53104 14.0552C5.96921 14.0552 5.12296 13.9774 4.58223 13.8451L4.32421 13.7801C4.18027 14.1659 3.85353 15.0787 3.75391 15.4099L4.00939 15.4851C4.4958 15.6402 5.65015 15.7613 6.47721 15.7613C9.22851 15.7613 10.8701 14.0991 10.8701 12.3585C10.8701 11.289 10.3846 10.4761 8.74338 9.45207C7.92013 8.94569 7.50061 8.61733 7.24584 8.36312C7.03932 8.09776 7.01646 7.90027 7.01646 7.69164C7.01646 7.49246 7.06077 7.26294 7.19207 7.09481C7.3341 6.88695 7.59459 6.75452 7.94716 6.64523C8.30953 6.52501 8.98094 6.52183 10.0266 6.52183H11.0003L11.6956 4.78327H10.2746V4.7832ZM17.6329 4.7832H12.7401L12.0448 6.52169H13.6666C14.7579 6.52169 14.9678 6.49819 15.2418 6.49819C14.8462 7.40321 12.4619 13.479 12.4619 13.479H14.4798C14.4798 13.479 17.4985 5.91569 17.8184 5.12272C17.907 4.94576 17.8629 4.7832 17.6329 4.7832Z" fill="#110A10"/>
</svg>
