<svg width="60" height="20" viewBox="0 0 60 20" fill="none" xmlns="http://www.w3.org/2000/svg">
<path fill-rule="evenodd" clip-rule="evenodd" d="M21.9238 19.922V3.92969H27.8469C30.0007 3.92969 32.4238 5.1143 32.4238 7.80661C32.4238 9.83337 31.482 10.5416 30.7012 11.1287C30.5486 11.2435 30.4021 11.3537 30.27 11.4681C30.335 11.4985 30.4071 11.5299 30.4846 11.5637L30.4846 11.5637C31.3691 11.9493 32.9623 12.6438 32.9623 15.6143C32.9623 19.1143 30.0007 19.922 29.1931 19.922H21.9238ZM25.1562 10.2826V6.62109H27.5793C28.387 6.62109 29.1947 7.26725 29.1947 8.34417C29.1947 9.42109 28.6562 10.2826 27.5793 10.2826H25.1562ZM25.1562 13.1914V17.2837H27.8701C29.0762 17.2837 29.6793 16.3208 29.6793 15.1172C29.6793 13.9136 28.7747 13.1914 27.8701 13.1914H25.1562Z" fill="white" fill-opacity="0.15"/>
<path d="M33.2305 6.62313V3.87695H46.0458L45.1843 6.62313H41.0382V20.0001H37.8074V6.62313H33.2305Z" fill="white" fill-opacity="0.15"/>
<path fill-rule="evenodd" clip-rule="evenodd" d="M47.0156 3.87695V19.9769H53.6925C54.7695 19.9769 58.2695 19.3846 58.2695 14.8077C58.2695 12.5374 56.5936 10.1231 53.1541 10.1231H50.1925V6.6231H56.4925L57.4079 3.87695H47.0156ZM50.1934 12.8145V17.2299H52.8857C53.6934 17.2299 54.9318 16.6376 54.9318 15.0222C54.9318 13.1915 53.4241 12.8145 52.8857 12.8145H50.1934Z" fill="white" fill-opacity="0.15"/>
<path fill-rule="evenodd" clip-rule="evenodd" d="M3.41065 6.57031L4.39685 3.82304H17.5891L16.6029 6.57031H3.41065ZM2.98541 7.75493L2 10.5H15.1923L16.1777 7.75493H2.98541ZM18.0144 2.63843H4.8221L5.76923 0H18.9615L18.0144 2.63843Z" fill="white" fill-opacity="0.15"/>
</svg>
