<svg width="84" height="20" viewBox="0 0 84 20" fill="none" xmlns="http://www.w3.org/2000/svg">
<path d="M65.7288 16.9442C71.5915 13.8559 72.9952 9.95839 71.1951 8.85193C68.5362 7.36553 61.22 10.0246 62.0623 17.3242C61.699 17.5388 60.9723 17.9351 60.9723 17.9351L61.4513 19.4049C61.4513 19.4049 62.4751 18.7939 62.7395 18.6121C63.5983 19.3058 64.0442 19.6857 65.3653 19.7186C68.1894 19.7848 70.617 16.6469 70.617 16.6469L69.9069 15.5405C69.9233 15.5405 66.8185 18.5297 65.7288 16.9442ZM66.5048 12.4686C67.3471 10.9824 68.7013 9.82642 69.3785 10.2888C70.0391 10.7511 68.7013 13.0963 65.547 15.6065C65.4148 15.3754 65.6625 13.955 66.5048 12.4686ZM12.617 19.7186C12.1876 19.7186 11.5435 19.5535 11.0811 19.0747C9.67735 17.6048 10.9985 12.6339 11.2793 11.5603C11.3123 11.4612 11.2297 11.3621 11.1307 11.3621C11.0646 11.3621 11.015 11.3952 10.982 11.4448C10.3875 12.6503 7.1671 19.7186 4.32654 19.7186C4.27701 19.7186 4.21094 19.7186 4.16139 19.7186C1.40343 19.4544 1.76674 15.656 2.62552 13.344H7.06801C6.70468 14.3349 6.58908 14.9624 6.58908 15.2927C6.60558 15.524 6.80377 15.656 6.98543 15.5569C7.44785 15.3092 8.20753 14.3182 8.86812 13.1789C10.0572 11.0815 11.6096 7.94365 14.2685 0H19.1404C17.7036 4.42608 16.531 8.42244 15.8869 12.9972C15.8539 13.2285 16.1181 13.41 16.3328 13.2285C17.72 11.9238 22.7902 0.957822 23.1039 0H27.9924C27.9924 0 23.1866 13.2944 23.5827 15.524C23.6489 15.9368 24.0949 15.9864 24.3095 15.7056C24.5903 15.3587 24.9867 14.8468 25.2673 14.5331L25.961 15.2268C24.5737 16.9442 22.3112 20.0325 20.0651 19.669C19.7183 19.6031 19.3715 19.4049 19.1238 19.1571C16.7787 17.126 20.0487 10.3217 20.6266 8.71972C20.7588 8.3729 20.8743 8.04274 20.957 7.84456C20.9901 7.74546 20.9239 7.62993 20.8083 7.62993C20.7424 7.62993 20.6928 7.66281 20.6597 7.71236C20.5442 7.96009 20.2469 8.60419 20.1311 8.81882C18.6945 11.808 15.3584 19.7186 12.617 19.7186ZM58.5281 3.40204C56.3647 3.35249 54.9774 4.69025 54.9774 4.69025L55.0105 5.9949C55.0105 5.9949 56.5629 4.42608 58.1815 5.10306C59.2384 5.53254 60.0311 6.77097 59.4366 8.93458C59.4035 9.06655 59.3375 9.31428 59.3044 9.44648C58.842 8.45555 57.1243 7.69592 54.7297 9.51247C52.9791 10.8338 52.5334 12.2375 52.1866 13.3771C51.6911 15.045 51.724 16.8451 52.1039 17.9185C52.3517 18.6288 53.0122 19.4213 53.9371 19.7681C57.9006 21.271 61.0218 15.1441 61.9799 10.7347C62.5909 7.94365 63.0532 3.48469 58.5281 3.40204ZM56.3978 16.812C55.9519 17.1093 55.1922 17.2415 55.0765 15.8706C54.9278 13.9054 56.3647 11.5934 56.7942 11.0484C57.5374 10.1401 58.5447 10.0906 58.5281 11.5108C58.5116 13.1622 57.5043 16.0855 56.3978 16.812ZM44.4411 2.26247C42.096 1.45329 33.8055 4.07925 31.0805 13.2449C30.7503 13.344 29.1484 13.7404 29.1484 13.7404L28.4547 15.6231L30.9154 14.8633C30.9154 14.8633 30.6512 19.5699 34.7798 19.7186C38.0334 19.6031 39.7344 14.8137 38.6939 11.5603C38.4958 11.6594 35.8865 12.9145 35.8865 12.9145C35.8865 12.9145 36.4312 16.1019 35.2752 16.8287C35.0937 16.9442 34.8624 16.9278 34.7138 16.7129C34.3834 16.2506 34.1688 15.0286 34.532 13.41C40.4941 10.3052 44.5731 4.85533 44.8208 2.97256C44.9035 2.49377 44.5235 2.29558 44.4411 2.26247ZM37.0258 10.3712C35.9193 11.2135 35.0606 11.643 35.0606 11.643C35.0606 11.643 35.3743 10.9162 35.6056 10.5034C36.2497 9.43005 39.3214 5.28481 41.8978 4.52517C41.9969 4.49206 42.0793 4.57472 42.0629 4.67358C42.0629 5.58209 38.793 9.03367 37.0258 10.3712ZM49.3129 17.1424C49.2798 17.2746 49.412 17.3406 49.4946 17.291C49.891 17.0433 50.4193 16.6138 50.4193 16.6138L50.7497 17.6212C50.5515 17.8361 48.9661 19.0912 47.9751 19.5535C46.9018 20.049 45.9273 19.3884 45.7786 18.5957C45.63 17.6707 46.0926 16.4652 46.0926 16.4652C46.0926 16.4652 44.3916 18.4139 42.6574 19.3553C42.1784 19.6195 41.8151 19.7186 41.5179 19.7186C40.3454 19.6857 39.9819 18.5626 40.1141 17.9516C40.2628 17.2251 41.8483 12.3531 42.0464 11.5603C42.0629 11.4779 41.9802 11.3952 41.8811 11.4117C41.4023 11.5439 40.1472 12.3695 40.1472 12.3695V11.0153C40.1472 11.0153 43.7803 8.53821 44.6888 8.27404C45.5309 8.04274 46.2577 8.52154 46.043 9.47959C45.9439 10.1401 43.5824 15.8706 43.5824 16.5974C43.5824 16.7296 43.6979 16.746 43.7308 16.7296C44.408 16.5314 45.6467 15.4745 46.5881 13.9714C47.4797 12.5677 48.0742 10.8007 48.8174 8.60419H51.9717C51.9717 8.62063 49.577 15.9368 49.3129 17.1424ZM82.2599 10.2721C82.3261 11.2961 81.3517 16.6965 77.3882 18.8599C76.2155 19.504 75.4227 19.7517 74.7127 19.7186C73.0283 19.669 72.2356 18.2984 72.0538 17.8525C70.1215 13.0631 75.7696 8.62063 75.7696 8.62063H79.0396C79.0396 8.62063 74.0521 12.6008 74.7458 16.135C75.2908 18.282 77.2891 17.2415 78.3955 14.8137C78.6102 14.3349 79.9479 11.1475 79.1056 11.098C78.3624 11.0484 77.3715 12.6172 77.3715 12.6172L76.6781 11.5603C77.2228 10.8667 78.7424 9.05011 80.4434 8.47199C80.724 8.38957 82.2435 8.07585 82.2599 10.2721ZM27.4474 17.1093C28.1739 17.1093 28.752 17.6874 28.752 18.4139C28.752 19.1407 28.1739 19.7186 27.4474 19.7186C26.7206 19.7186 26.1427 19.1407 26.1427 18.4139C26.1427 17.6874 26.7373 17.1093 27.4474 17.1093Z" fill="white" fill-opacity="0.15"/>
</svg>
