<svg width="52" height="20" viewBox="0 0 52 20" fill="none" xmlns="http://www.w3.org/2000/svg">
<path fill-rule="evenodd" clip-rule="evenodd" d="M8.11092 18.2487L10.3916 19.9997H10.7678C10.7678 19.9997 10.7678 11.0025 10.7678 10.2814C10.7678 9.56027 9.64733 8.6543 8.87683 8.6543C8.10633 8.6543 1 8.6543 1 8.6543L3.52648 10.8812C3.52648 10.8812 6.71858 10.8812 7.33898 10.8812C7.95938 10.8812 8.11092 11.2024 8.11092 11.4829C8.11092 11.7634 8.11092 18.2487 8.11092 18.2487Z" fill="white" fill-opacity="0.15"/>
<path fill-rule="evenodd" clip-rule="evenodd" d="M15.5785 19.9899H15.2023L12.9216 18.2307C12.9216 18.2307 12.9216 10.6705 12.9216 10.2716C12.9216 9.5505 14.0421 8.64453 14.8126 8.64453C15.5831 8.64453 22.6895 8.64453 22.6895 8.64453L20.163 10.8714C20.163 10.8714 16.9709 10.8714 16.3505 10.8714C15.7301 10.8714 15.5785 11.1926 15.5785 11.4732C15.5785 11.7537 15.5785 19.9899 15.5785 19.9899Z" fill="white" fill-opacity="0.15"/>
<path fill-rule="evenodd" clip-rule="evenodd" d="M19.1328 19.9899H19.4296L21.6993 18.2412C21.6993 18.2412 21.6993 15.7791 21.6993 15.5548C21.6993 15.3304 22.4405 14.5486 22.4405 14.5486L26.3087 19.3073H29.4449L24.2889 12.9191L28.9562 8.66837L25.7214 8.64453C25.7214 8.64453 20.2927 13.5532 19.9994 13.8369C19.706 14.1206 19.1328 15.0366 19.1328 15.5548C19.1328 16.073 19.1328 19.9899 19.1328 19.9899Z" fill="white" fill-opacity="0.15"/>
<path fill-rule="evenodd" clip-rule="evenodd" d="M29.0293 12.9668V14.9921H32.6285V12.9668H29.0293Z" fill="white" fill-opacity="0.15"/>
<path fill-rule="evenodd" clip-rule="evenodd" d="M32.8285 8.73828V10.6762C32.8285 10.6762 37.6816 10.6762 37.9406 10.6762C38.1996 10.6762 38.782 10.8455 38.782 11.9036C38.782 12.9191 38.3823 13.3394 38.0777 13.6468C37.7731 13.9542 32.1055 19.2898 32.1055 19.2898H41.204V17.2732H37.4595C37.4595 17.2732 39.8685 15.0906 40.284 14.6617C40.6995 14.2328 41.3204 13.4763 41.3204 11.4368C41.3204 9.39736 39.7194 8.73828 38.8903 8.73828C38.0612 8.73828 32.8285 8.73828 32.8285 8.73828Z" fill="white" fill-opacity="0.15"/>
<path fill-rule="evenodd" clip-rule="evenodd" d="M38.1844 6.8572C37.3089 6.8572 37.2479 6.8572 36.1609 6.8572C34.9485 4.86313 36.5195 3.37087 36.5195 3.37087C36.5195 3.37087 36.329 4.82029 37.359 5.1598C37.2475 4.36929 37.9281 2.40566 37.9856 2.20086C38.043 1.99606 37.8205 1.49952 37.8205 1.49952C37.8205 1.49952 38.5284 1.67874 38.6868 1.99606C39.0036 2.63076 38.8897 3.72239 38.8897 4.36929C39.4206 4.10535 39.1658 2.97095 39.8441 1.99606C40.5367 1.00065 41.2016 0.702886 41.7072 0.00475901C41.9407 -0.0517292 42.015 0.406056 41.9407 0.772765C41.8664 1.13947 41.5041 1.7176 41.4769 2.08486C41.4498 2.45212 41.7905 2.80589 41.7905 2.80589C41.7905 2.80589 42.0894 2.32178 42.6525 1.8897C43.2156 1.45763 44.3702 1.26176 44.9382 1.19046C44.8965 1.59733 44.2885 2.14342 43.9867 2.80589C44.9698 2.04258 46.3407 2.02259 46.6711 1.95615C47.0016 1.8897 47.228 1.58742 47.4593 1.38112C47.5327 1.69713 47.228 2.30506 46.8371 2.52758C46.4462 2.7501 46.1189 2.80589 45.7885 3.37087C46.9486 3.1196 47.7408 3.37087 47.7408 3.37087C47.7408 3.37087 47.0466 3.5648 46.6711 3.76872C47.6979 3.88513 51.079 3.57782 51.602 4.66001C49.4352 4.47302 49.613 5.10188 49.2401 5.31561C48.8672 5.52934 47.9036 5.50514 47.9036 5.50514L49.4966 6.36497C49.4966 6.36497 48.9886 6.56163 48.3874 6.58863C48.7284 7.1865 49.7955 7.93318 49.7955 7.93318C49.7955 7.93318 51.8463 8.96609 51.7265 9.77169C50.8113 9.16137 49.6843 9.50214 48.4561 9.13785C48.6724 9.48693 48.7284 9.99609 48.7284 9.99609C48.7284 9.99609 48.2428 9.77169 48.02 9.71515C48.3166 10.8685 48.3874 12.8159 48.9196 13.4435C47.9036 13.802 47.7944 12.1717 46.5597 11.49C46.7877 12.6195 46.3514 13.0278 46.3514 13.0278C46.3514 13.0278 46.015 12.428 45.7885 12.2244C46.3514 14.7416 44.9924 14.025 45.047 16.4635C43.9222 16.576 43.5922 15.4413 43.5922 14.9396C43.5922 14.4379 44.0355 14.0804 44.1253 12.9669C43.5922 13.7579 42.9607 13.6285 42.9607 13.6285C42.9607 13.6285 42.9607 12.9087 42.9607 12.2244C44.5112 12.2244 46.9371 10.636 46.9371 7.93318C46.9371 5.23033 44.5809 3.7023 42.2452 3.7023C39.9094 3.7023 38.1844 5.74299 38.1844 6.8572Z" fill="white" fill-opacity="0.15"/>
<mask id="mask0_462_10097" style="mask-type:luminance" maskUnits="userSpaceOnUse" x="35" y="0" width="17" height="17">
<path fill-rule="evenodd" clip-rule="evenodd" d="M38.1844 6.8572C37.3089 6.8572 37.2479 6.8572 36.1609 6.8572C34.9485 4.86313 36.5195 3.37087 36.5195 3.37087C36.5195 3.37087 36.329 4.82029 37.359 5.1598C37.2475 4.36929 37.9281 2.40566 37.9856 2.20086C38.043 1.99606 37.8205 1.49952 37.8205 1.49952C37.8205 1.49952 38.5284 1.67874 38.6868 1.99606C39.0036 2.63076 38.8897 3.72239 38.8897 4.36929C39.4206 4.10535 39.1658 2.97095 39.8441 1.99606C40.5367 1.00065 41.2016 0.702886 41.7072 0.00475901C41.9407 -0.0517292 42.015 0.406056 41.9407 0.772765C41.8664 1.13947 41.5041 1.7176 41.4769 2.08486C41.4498 2.45212 41.7905 2.80589 41.7905 2.80589C41.7905 2.80589 42.0894 2.32178 42.6525 1.8897C43.2156 1.45763 44.3702 1.26176 44.9382 1.19046C44.8965 1.59733 44.2885 2.14342 43.9867 2.80589C44.9698 2.04258 46.3407 2.02259 46.6711 1.95615C47.0016 1.8897 47.228 1.58742 47.4593 1.38112C47.5327 1.69713 47.228 2.30506 46.8371 2.52758C46.4462 2.7501 46.1189 2.80589 45.7885 3.37087C46.9486 3.1196 47.7408 3.37087 47.7408 3.37087C47.7408 3.37087 47.0466 3.5648 46.6711 3.76872C47.6979 3.88513 51.079 3.57782 51.602 4.66001C49.4352 4.47302 49.613 5.10188 49.2401 5.31561C48.8672 5.52934 47.9036 5.50514 47.9036 5.50514L49.4966 6.36497C49.4966 6.36497 48.9886 6.56163 48.3874 6.58863C48.7284 7.1865 49.7955 7.93318 49.7955 7.93318C49.7955 7.93318 51.8463 8.96609 51.7265 9.77169C50.8113 9.16137 49.6843 9.50214 48.4561 9.13785C48.6724 9.48693 48.7284 9.99609 48.7284 9.99609C48.7284 9.99609 48.2428 9.77169 48.02 9.71515C48.3166 10.8685 48.3874 12.8159 48.9196 13.4435C47.9036 13.802 47.7944 12.1717 46.5597 11.49C46.7877 12.6195 46.3514 13.0278 46.3514 13.0278C46.3514 13.0278 46.015 12.428 45.7885 12.2244C46.3514 14.7416 44.9924 14.025 45.047 16.4635C43.9222 16.576 43.5922 15.4413 43.5922 14.9396C43.5922 14.4379 44.0355 14.0804 44.1253 12.9669C43.5922 13.7579 42.9607 13.6285 42.9607 13.6285C42.9607 13.6285 42.9607 12.9087 42.9607 12.2244C44.5112 12.2244 46.9371 10.636 46.9371 7.93318C46.9371 5.23033 44.5809 3.7023 42.2452 3.7023C39.9094 3.7023 38.1844 5.74299 38.1844 6.8572Z" fill="white"/>
</mask>
<g mask="url(#mask0_462_10097)">
</g>
</svg>
