<svg width="124" height="20" viewBox="0 0 124 20" fill="none" xmlns="http://www.w3.org/2000/svg">
<rect x="24.9473" width="0.665225" height="20" fill="white" fill-opacity="0.15"/>
<path fill-rule="evenodd" clip-rule="evenodd" d="M96.4806 10.653L96.7342 8.89227H93.7273C92.7491 8.89227 92.039 8.17652 92.1477 7.29615L92.7129 2.9301C92.7636 2.52928 92.9737 2.14994 93.307 1.85648C93.6838 1.52724 94.191 1.33398 94.6982 1.33398H102.581L103.857 1.34114C104.364 1.34114 104.828 1.53439 105.117 1.86364C105.371 2.15709 105.48 2.53644 105.429 2.93726L104.886 7.31047C104.762 8.19083 103.864 8.90658 102.886 8.90658H99.8861L99.647 10.6673L96.4806 10.653ZM100.182 6.42301H101.609C101.725 6.42301 101.834 6.32996 101.855 6.21544L102.196 3.78906H100.537L100.182 6.42301ZM97.0321 6.4152H95.3945L95.7278 3.78125H97.3798L97.2277 5.09822L97.0321 6.4152Z" fill="white" fill-opacity="0.15"/>
<path d="M30.576 10.6673L31.4882 3.80331H28.2734L29.8845 1.33398H37.5866L37.2703 3.80331H34.6588L33.7466 10.6673H30.576Z" fill="white" fill-opacity="0.15"/>
<path d="M107.241 10.6673L108.106 3.80331H105.439L105.74 1.33398H114.753L113.287 3.80331H111.115L110.243 10.6673H107.241Z" fill="white" fill-opacity="0.15"/>
<path fill-rule="evenodd" clip-rule="evenodd" d="M52.2273 9.03542L52.3909 10.6602V10.6673H55.5487L54.5672 1.7849C54.5459 1.52008 54.3112 1.33398 53.9911 1.33398H49.4962C49.1904 1.33398 48.8846 1.52724 48.7921 1.79206L45.5703 10.6602H48.7068L49.2331 9.0712L52.2273 9.03542ZM51.9708 6.70169H50.1074L51.0676 4.125H51.6863L51.9708 6.70169Z" fill="white" fill-opacity="0.15"/>
<path d="M61.0688 10.6673L61.5032 7.34625H59.7374L59.3102 10.6673H56.2129L57.402 1.33398H60.4992L60.0364 4.8483H61.8022L62.2579 1.33398H65.526L64.337 10.6673H61.0688Z" fill="white" fill-opacity="0.15"/>
<path d="M78.3657 10.6673L78.7929 7.34625H77.0342L76.607 10.6673H73.5098L74.6917 1.33398H77.789L77.3333 4.8483H79.092L79.5476 1.33398H82.8229L81.6338 10.6673H78.3657Z" fill="white" fill-opacity="0.15"/>
<path d="M67.0584 10.6459C66.3628 10.6459 65.7284 10.3958 65.3233 9.95267C64.9641 9.55961 64.8035 9.05935 64.88 8.54481L65.5908 3.42791C65.6596 2.90622 65.9501 2.40596 66.4087 2.0272C66.9361 1.59126 67.6393 1.33398 68.3425 1.33398H71.935C73.0663 1.33398 74.3275 1.79851 74.1593 3.09917L73.9453 4.71428H70.6433L70.7808 3.79953H70.5668C70.391 3.79953 69.0687 3.79238 69.0687 3.79238H68.8547L68.8317 3.99248C68.8241 4.08539 68.6406 5.30744 68.4878 6.28651C68.3502 7.19412 68.2661 7.75869 68.2585 7.80157L68.2355 7.99452H70.1235L70.2687 7.08692H73.586L73.3949 8.5591C73.2268 9.71683 71.9962 10.6673 70.6509 10.6673H67.0584V10.6459Z" fill="white" fill-opacity="0.15"/>
<path d="M82.8223 10.6673L84.0781 1.33398H92.1354L91.8177 3.78184H87.0514L86.8849 4.9485L91.6437 4.92703L91.3562 7.03848L86.5975 7.05996L86.4234 8.22662H91.1973L90.872 10.6673H82.8223Z" fill="white" fill-opacity="0.15"/>
<path fill-rule="evenodd" clip-rule="evenodd" d="M37.8215 9.09268L37.5879 10.6602V10.6673H40.874L41.1227 8.90658H44.2429C45.2604 8.90658 46.195 8.19083 46.3231 7.31047L46.8884 2.93726C46.9411 2.53644 46.8281 2.15709 46.5643 1.86364C46.2628 1.53439 45.788 1.34114 45.2604 1.34114L38.7109 1.33398L37.8215 9.09268ZM41.4395 6.43082L41.7409 4.26211L41.8088 3.79688H43.5347L43.1805 6.18747C43.1579 6.32346 43.0297 6.43082 42.8865 6.43082H41.4395Z" fill="white" fill-opacity="0.15"/>
<path fill-rule="evenodd" clip-rule="evenodd" d="M114.091 10.6602L114.09 10.6673V10.6602H114.091ZM114.091 10.6602H120.213C120.717 10.6602 121.221 10.4668 121.596 10.1373C121.927 9.84358 122.136 9.46394 122.187 9.06281L122.727 4.86532C122.835 3.98428 122.129 3.26798 121.156 3.26798H118.167L118.434 1.33398H115.293L115.062 3.06742L114.091 10.6602ZM118.945 8.21015H117.533L117.865 5.74609H119.5L119.471 5.94666C119.211 7.84718 119.169 8.15195 119.035 8.20082C119.009 8.21015 118.98 8.21015 118.945 8.21015Z" fill="white" fill-opacity="0.15"/>
<path d="M9.40842 15.8068C6.45043 14.5065 4.44502 12.1986 3.85772 9.73408C3.56407 8.34526 4.08691 7.42618 4.42353 6.91558C4.7888 6.36414 5.24002 6.3301 5.24002 6.3301C5.24002 6.3301 4.78164 6.11905 4.16569 6.03735C3.39217 5.92842 2.3823 6.01012 1.75203 6.93601C1.27933 7.99124 1.00716 9.15541 1 10.374C1.01432 12.716 1.94541 15.4256 4.78164 17.5837C5.57664 18.1419 6.45759 18.5845 7.41016 18.884C7.53908 18.9249 7.67517 18.9589 7.80409 18.9929C8.21949 19.1019 8.62774 19.1836 9.02166 19.238C9.05031 19.238 9.07896 19.2448 9.1076 19.2516C9.22936 19.2653 9.35112 19.2789 9.47288 19.2925C9.65193 19.3061 9.83099 19.3265 10.01 19.3265C10.1031 19.3265 10.1891 19.3333 10.2822 19.3333C10.3109 19.3333 10.3467 19.3333 10.3753 19.3333C10.5472 19.3333 10.7191 19.3265 10.891 19.3197C10.8982 19.3197 10.8982 19.3197 10.8982 19.3197C11.07 19.3129 11.2419 19.2993 11.4138 19.2789C11.4353 19.2789 11.4496 19.2721 11.4711 19.2721C11.6144 19.2516 11.7576 19.2312 11.8937 19.2108C11.9796 19.1972 12.0656 19.1836 12.1444 19.1699C12.1587 19.1699 12.173 19.1631 12.1873 19.1631C13.7559 18.8568 15.0666 18.176 16.0621 17.4816C16.6422 17.0527 17.1722 16.5625 17.6306 16.0178C15.3316 17.0527 12.2661 17.0663 9.40842 15.8068Z" fill="white" fill-opacity="0.15"/>
<path d="M4.81089 5.10387C6.39356 3.17493 8.82736 1.90928 11.5777 1.90928C13.6176 1.90928 15.4887 2.59287 16.9658 3.72316C15.3198 2.24769 13.1111 1.33398 10.6773 1.33398C7.46275 1.33398 4.64207 2.92451 2.99609 5.33398C3.46034 5.13094 4.12858 4.98881 4.81089 5.10387Z" fill="white" fill-opacity="0.15"/>
<path d="M9.50098 14.8376C10.6484 15.5087 11.9085 15.8839 13.1615 15.9993C13.6824 15.8695 14.1892 15.6746 14.6327 15.4149C16.3996 14.282 21.6229 6.85695 21.6229 6.85695C21.6229 6.85695 18.7789 6.25804 17.547 7.18166C16.3081 8.10528 15.3859 9.5773 14.0132 11.1576C12.6406 12.745 12.0422 13.7408 10.8314 14.0511C9.93039 14.2892 9.07862 14.2459 8.31836 14.0727C8.68441 14.3325 9.07158 14.5851 9.50098 14.8376Z" fill="white" fill-opacity="0.15"/>
<path d="M18.0231 15.6522C19.0998 14.8149 21.6213 11.1469 21.6213 11.1469C21.6213 11.1469 19.6833 10.065 17.9328 11.1469C16.1753 12.2361 16.2309 12.5103 14.4804 14.0442C12.7368 15.5781 11.4378 15.7485 10.4723 15.6744C10.4167 15.6744 10.3681 15.6596 10.3125 15.6596C12.8341 16.8971 16.1058 17.1046 18.0231 15.6522Z" fill="white" fill-opacity="0.15"/>
<path d="M22.2881 1.48397C22.2881 1.48397 19.4597 0.739642 17.2576 2.56724C15.6817 3.88976 12.2753 12.7354 9.59834 13.2338C9.08222 13.3335 8.66244 13.3401 8.31836 13.3003C8.32524 13.3069 8.32524 13.3069 8.33212 13.3135C8.77943 13.3534 9.30243 13.3401 9.90802 13.2272C12.585 12.7287 16.1221 4.56099 17.76 3.30493C19.3978 2.05552 21.3591 2.36787 21.3591 2.36787L19.8313 5.21893L22.2881 1.48397Z" fill="white" fill-opacity="0.15"/>
<path d="M35.9469 17.2005L35.8539 17.9117C35.7538 18.6919 35.0172 19.334 34.2019 19.334H31.57C30.7619 19.334 30.1826 18.6919 30.2827 17.9117L30.6832 14.7494C30.7834 13.9623 31.52 13.334 32.3281 13.334H34.9599C35.7681 13.334 36.3474 13.9623 36.2473 14.7494L36.1543 15.4537H34.8384L34.9027 14.9703C34.9313 14.7563 34.7812 14.5906 34.5595 14.5906H32.4068C32.1922 14.5906 31.992 14.7563 31.9705 14.9703L31.6273 17.6907C31.5987 17.8979 31.756 18.0705 31.9705 18.0705H34.1232C34.3449 18.0705 34.538 17.8979 34.5595 17.6907L34.6238 17.1936H35.9469V17.2005Z" fill="white" fill-opacity="0.15"/>
<path d="M37.5515 19.334L40.7265 15.3961H40.7479L40.2781 19.334H41.5168L42.2429 13.334H40.9472L37.7793 17.265H37.7508L38.2278 13.334H36.982L36.2559 19.334H37.5515Z" fill="white" fill-opacity="0.15"/>
<path fill-rule="evenodd" clip-rule="evenodd" d="M43.8716 15.683H46.6252C47.2089 15.683 47.614 16.179 47.5385 16.7921L47.3737 18.2318C47.305 18.8449 46.7831 19.334 46.1994 19.334H42.2441L42.7935 14.5946L42.9377 13.334H44.1394H47.5659L47.4217 14.5946H43.9952L43.8716 15.683ZM46.057 18.074C46.1394 18.074 46.2081 18.0051 46.2149 17.9225L46.3111 17.0958C46.3179 17.0132 46.2699 16.9512 46.1875 16.9512H43.7223L43.5918 18.074H46.057Z" fill="white" fill-opacity="0.15"/>
<path d="M49.5277 19.334L52.6994 15.3961H52.7279L52.2503 19.334H53.4976L54.2175 13.334H52.9203L49.7486 17.265H49.7201L50.1976 13.334H48.9503L48.2305 19.334H49.5277Z" fill="white" fill-opacity="0.15"/>
<path fill-rule="evenodd" clip-rule="evenodd" d="M58.6917 17.4719C59.314 17.4719 59.8734 16.9754 59.9503 16.3685L60.195 14.4374C60.2719 13.8236 59.8384 13.334 59.2091 13.334H54.9649L54.2168 19.334H55.5033L55.7341 17.4719H58.6917ZM58.7403 14.5957C58.8242 14.5957 58.8731 14.6647 58.8661 14.7474L58.7053 16.0647C58.6913 16.1474 58.6214 16.2095 58.5375 16.2095H55.8945L56.0973 14.5957H58.7403Z" fill="white" fill-opacity="0.15"/>
<path fill-rule="evenodd" clip-rule="evenodd" d="M65.8235 15.1961C66.478 15.1961 66.9289 15.6926 66.8489 16.2995L66.5944 18.2305C66.5144 18.8443 65.9399 19.334 65.2854 19.334H60.8711L61.6492 13.334H62.9873L62.7473 15.1961H65.8235ZM65.1259 18.0708C65.2204 18.0708 65.2859 18.0019 65.3004 17.9191L65.475 16.6019C65.4822 16.5191 65.4241 16.457 65.3368 16.457H62.5879L62.377 18.0708H65.1259Z" fill="white" fill-opacity="0.15"/>
</svg>
