<svg width="85" height="84" viewBox="0 0 85 84" fill="none" xmlns="http://www.w3.org/2000/svg">
<path fill-rule="evenodd" clip-rule="evenodd" d="M42.173 44.9224C44.6345 35.7361 53.9976 30.2632 63.0862 32.6985C67.4507 33.868 71.1669 36.742 73.4172 40.6883C75.6675 44.6346 76.2677 49.3299 75.0856 53.7413C72.6241 62.9277 63.261 68.4005 54.1724 65.9653C45.0838 63.53 39.7115 54.1088 42.173 44.9224ZM71.2231 67.0699L75.0642 72.3394L75.1492 72.3622C75.8723 73.6301 75.4369 75.255 74.1767 75.9916C72.9166 76.7281 71.309 76.2974 70.586 75.0294L67.7677 69.2781C67.487 68.7878 67.4118 68.2038 67.5589 67.6551C67.7059 67.1064 68.063 66.6382 68.5513 66.354C69.4902 65.8161 70.6789 66.1346 71.2231 67.0699Z" fill="url(#paint0_linear_0_27806)"/>
<g filter="url(#filter0_f_0_27806)">
<path d="M61.0589 40.2697C56.107 38.9428 51.0056 41.9246 49.6645 46.9298C48.3233 51.9349 51.2504 57.068 56.2023 58.3948C61.1541 59.7217 66.2556 56.7398 67.5967 51.7347C68.2407 49.3311 67.9137 46.7729 66.6877 44.6228C65.4616 42.4727 63.4368 40.9068 61.0589 40.2697Z" fill="#F15A29" fill-opacity="0.5"/>
</g>
<g filter="url(#filter1_b_0_27806)">
<g filter="url(#filter2_b_0_27806)">
<mask id="path-3-outside-1_0_27806" maskUnits="userSpaceOnUse" x="0.0190305" y="4.77526" width="74.7094" height="74.7094" fill="black">
<rect fill="white" x="0.0190305" y="4.77526" width="74.7094" height="74.7094"/>
<path fill-rule="evenodd" clip-rule="evenodd" d="M64.8814 30.8107C61.2098 17.1081 47.2435 8.94473 33.6868 12.5772C27.1766 14.3216 21.6335 18.6086 18.2769 24.495C14.9202 30.3813 14.025 37.385 15.7882 43.9652C19.4598 57.6678 33.4261 65.8312 46.9828 62.1987C60.5395 58.5661 68.553 44.5133 64.8814 30.8107ZM21.5514 63.8428L15.822 71.7029L15.6951 71.7369C14.6166 73.6282 15.266 76.052 17.1457 77.1506C19.0253 78.2493 21.4233 77.6067 22.5017 75.7155L26.7055 67.1367C27.1242 66.4053 27.2364 65.5342 27.0171 64.7158C26.7978 63.8974 26.2651 63.199 25.5368 62.775C24.1363 61.9727 22.3632 62.4478 21.5514 63.8428Z"/>
</mask>
<path fill-rule="evenodd" clip-rule="evenodd" d="M64.8814 30.8107C61.2098 17.1081 47.2435 8.94473 33.6868 12.5772C27.1766 14.3216 21.6335 18.6086 18.2769 24.495C14.9202 30.3813 14.025 37.385 15.7882 43.9652C19.4598 57.6678 33.4261 65.8312 46.9828 62.1987C60.5395 58.5661 68.553 44.5133 64.8814 30.8107ZM21.5514 63.8428L15.822 71.7029L15.6951 71.7369C14.6166 73.6282 15.266 76.052 17.1457 77.1506C19.0253 78.2493 21.4233 77.6067 22.5017 75.7155L26.7055 67.1367C27.1242 66.4053 27.2364 65.5342 27.0171 64.7158C26.7978 63.8974 26.2651 63.199 25.5368 62.775C24.1363 61.9727 22.3632 62.4478 21.5514 63.8428Z" fill="#F15A29" fill-opacity="0.35"/>
<path d="M18.2769 24.495L18.9183 24.8607L18.9183 24.8607L18.2769 24.495ZM15.822 71.7029L16.4187 72.1379C16.3193 72.2743 16.1761 72.3725 16.0131 72.4162L15.822 71.7029ZM21.5514 63.8428L22.1896 64.2142C22.1769 64.2361 22.1631 64.2573 22.1481 64.2778L21.5514 63.8428ZM15.6951 71.7369L15.0536 71.3712C15.1513 71.1999 15.3135 71.0747 15.5039 71.0237L15.6951 71.7369ZM17.1457 77.1506L16.773 77.7881L17.1457 77.1506ZM22.5017 75.7155L23.1648 76.0404C23.158 76.0542 23.1508 76.0679 23.1432 76.0813L22.5017 75.7155ZM26.7055 67.1367L26.0424 66.8118C26.0494 66.7976 26.0568 66.7836 26.0647 66.7698L26.7055 67.1367ZM25.5368 62.775L25.9038 62.1342L25.9083 62.1368L25.5368 62.775ZM33.4957 11.864C47.4535 8.12402 61.8194 16.5303 65.5946 30.6196L64.1682 31.0018C60.6002 17.6859 47.0335 9.76545 33.8779 13.2905L33.4957 11.864ZM17.6354 24.1292C21.0892 18.0725 26.7939 13.6598 33.4957 11.864L33.8779 13.2905C27.5594 14.9835 22.1779 19.1446 18.9183 24.8607L17.6354 24.1292ZM15.0749 44.1563C13.2618 37.3894 14.1819 30.1855 17.6354 24.1292L18.9183 24.8607C15.6586 30.5772 14.7883 37.3806 16.5014 43.7741L15.0749 44.1563ZM47.1739 62.9119C33.2161 66.6519 18.8502 58.2456 15.0749 44.1563L16.5014 43.7741C20.0694 57.09 33.6361 65.0105 46.7917 61.4854L47.1739 62.9119ZM65.5946 30.6196C69.3699 44.7089 61.1317 59.1719 47.1739 62.9119L46.7917 61.4854C59.9473 57.9604 67.7361 44.3177 64.1682 31.0018L65.5946 30.6196ZM15.2253 71.268L20.9547 63.4079L22.1481 64.2778L16.4187 72.1379L15.2253 71.268ZM15.5039 71.0237L15.6309 70.9897L16.0131 72.4162L15.8862 72.4502L15.5039 71.0237ZM16.773 77.7881C14.544 76.4853 13.7747 73.614 15.0536 71.3712L16.3365 72.1027C15.4585 73.6424 15.9881 75.6187 17.5183 76.5132L16.773 77.7881ZM23.1432 76.0813C21.8612 78.3295 19.0074 79.0941 16.773 77.7881L17.5183 76.5132C19.0431 77.4045 20.9854 76.884 21.8603 75.3497L23.1432 76.0813ZM27.3686 67.4616L23.1648 76.0404L21.8387 75.3906L26.0424 66.8118L27.3686 67.4616ZM27.7303 64.5247C27.9997 65.5302 27.8625 66.6021 27.3463 67.5036L26.0647 66.7698C26.386 66.2086 26.473 65.5382 26.3038 64.9069L27.7303 64.5247ZM25.9083 62.1368C26.8061 62.6595 27.4609 63.5191 27.7303 64.5247L26.3038 64.9069C26.1347 64.2756 25.7241 63.7385 25.1653 63.4131L25.9083 62.1368ZM20.9132 63.4715C21.9291 61.7257 24.1511 61.1303 25.9038 62.1342L25.1697 63.4157C24.1214 62.8152 22.7973 63.17 22.1896 64.2142L20.9132 63.4715Z" fill="url(#paint1_linear_0_27806)" mask="url(#path-3-outside-1_0_27806)"/>
</g>
</g>
<defs>
<filter id="filter0_f_0_27806" x="38.2629" y="28.8781" width="40.7331" height="40.9079" filterUnits="userSpaceOnUse" color-interpolation-filters="sRGB">
<feFlood flood-opacity="0" result="BackgroundImageFix"/>
<feBlend mode="normal" in="SourceGraphic" in2="BackgroundImageFix" result="shape"/>
<feGaussianBlur stdDeviation="5.538" result="effect1_foregroundBlur_0_27806"/>
</filter>
<filter id="filter1_b_0_27806" x="-3.55657" y="-6.74651" width="87.7889" height="102.894" filterUnits="userSpaceOnUse" color-interpolation-filters="sRGB">
<feFlood flood-opacity="0" result="BackgroundImageFix"/>
<feGaussianBlur in="BackgroundImageFix" stdDeviation="8.8608"/>
<feComposite in2="SourceAlpha" operator="in" result="effect1_backgroundBlur_0_27806"/>
<feBlend mode="normal" in="SourceGraphic" in2="effect1_backgroundBlur_0_27806" result="shape"/>
</filter>
<filter id="filter2_b_0_27806" x="-3.55657" y="-6.74651" width="87.7889" height="102.894" filterUnits="userSpaceOnUse" color-interpolation-filters="sRGB">
<feFlood flood-opacity="0" result="BackgroundImageFix"/>
<feGaussianBlur in="BackgroundImageFix" stdDeviation="8.8608"/>
<feComposite in2="SourceAlpha" operator="in" result="effect1_backgroundBlur_0_27806"/>
<feBlend mode="normal" in="SourceGraphic" in2="effect1_backgroundBlur_0_27806" result="shape"/>
</filter>
<linearGradient id="paint0_linear_0_27806" x1="62.8108" y1="55.9423" x2="32.0861" y2="62.5535" gradientUnits="userSpaceOnUse">
<stop stop-color="#F15A29"/>
<stop offset="1" stop-color="#F15A29"/>
</linearGradient>
<linearGradient id="paint1_linear_0_27806" x1="50.9096" y1="15.1089" x2="15.4078" y2="74.9197" gradientUnits="userSpaceOnUse">
<stop stop-color="white" stop-opacity="0.25"/>
<stop offset="1" stop-color="white" stop-opacity="0"/>
</linearGradient>
</defs>
</svg>
