<svg width="84" height="84" viewBox="0 0 84 84" fill="none" xmlns="http://www.w3.org/2000/svg">
<path d="M40.7659 50.3589C40.4283 51.055 40.4551 51.874 40.8355 52.5481L46.2414 61.8109C46.6989 62.5963 46.6541 63.576 46.1278 64.3181C45.6222 65.0732 44.7272 65.4679 43.8285 65.3388L33.2054 63.9367C32.8348 63.8846 32.4578 63.9215 32.1014 64.04L31.5553 64.2391C31.3761 64.3363 31.2127 64.4644 31.0772 64.6188L23.8539 72.5508C23.4933 72.9333 23.0222 73.1941 22.5038 73.294C21.2284 73.5032 20.018 72.6566 19.7764 71.3862L17.956 60.8166C17.8112 60.0497 17.3032 59.4015 16.5939 59.0778L6.74519 54.6765C5.9213 54.3078 5.38646 53.4982 5.37296 52.5967C5.35213 51.7001 5.8291 50.8665 6.61372 50.4321L16.1007 45.3281C16.8339 44.9718 17.334 44.2644 17.4269 43.4543L18.5423 32.7963C18.5737 32.5566 18.6411 32.3219 18.7471 32.1052L18.8771 31.898C18.9336 31.7587 19.0108 31.6324 19.106 31.5178L19.2963 31.3571L19.5875 31.0911L20.436 30.7819C21.2225 30.5843 22.0548 30.7946 22.6503 31.3447L30.4061 38.7235C30.9688 39.265 31.7624 39.4941 32.5263 39.3412L43.0725 37.1434C43.9631 36.9558 44.8835 37.2825 45.4575 37.9865C46.0161 38.6985 46.1115 39.6682 45.7031 40.477L40.7659 50.3589Z" fill="url(#paint0_linear_737_13386)"/>
<g opacity="0.5" filter="url(#filter0_f_737_13386)">
<path d="M31.477 44.9961C26.8646 44.9961 23.1211 48.7404 23.1211 53.352C23.1211 57.9654 26.8646 61.708 31.477 61.708C36.0979 61.708 39.833 57.9654 39.833 53.352C39.833 48.7404 36.0979 44.9961 31.477 44.9961Z" fill="#FF3D22"/>
</g>
<g filter="url(#filter1_b_737_13386)">
<path d="M65.362 48.8002C64.5111 49.2914 63.9556 50.1715 63.8752 51.1514L62.9576 64.7413C62.8789 65.8929 62.1336 66.8911 61.0515 67.2962C59.9819 67.7297 58.7597 67.5069 57.907 66.7308L47.7382 57.6867C47.3858 57.3677 46.9632 57.138 46.5041 57.0086L45.7881 56.8286C45.5304 56.8032 45.2674 56.8214 45.0149 56.8872L31.7688 60.0786C31.1172 60.2238 30.436 60.1622 29.8198 59.8978C28.33 59.2088 27.6608 57.4564 28.3121 55.9486L33.9302 43.5398C34.3245 42.6304 34.2524 41.587 33.7374 40.7412L26.52 29.096C25.9166 28.1213 25.9313 26.889 26.5595 25.9317C27.1765 24.9743 28.272 24.4378 29.4064 24.5402L43.017 25.9349C44.0416 26.0829 45.0716 25.6956 45.7465 24.9101L54.514 14.5005C54.7178 14.2708 54.9559 14.0722 55.2217 13.9199L55.506 13.7947C55.6647 13.6885 55.8359 13.6107 56.0177 13.5581L56.3323 13.5248L56.8279 13.4527L57.9403 13.7322C58.9079 14.0849 59.6331 14.8991 59.8671 15.9018L62.7624 29.1858C62.9681 30.156 63.6391 30.9623 64.5511 31.346L77.2043 36.5508C78.2742 36.9882 79.0091 37.9875 79.1108 39.1366C79.1907 40.2831 78.6 41.3707 77.5943 41.9298L65.362 48.8002Z" fill="#F15A29" fill-opacity="0.4"/>
<path d="M57.9403 13.7322L56.8279 13.4527L56.3323 13.5248M57.9403 13.7322L55.506 13.7947C55.6647 13.6885 55.8359 13.6107 56.0177 13.5581L56.3323 13.5248M57.9403 13.7322C58.9079 14.0849 59.6331 14.8991 59.8671 15.9018L57.9403 13.7322ZM56.3323 13.5248L56.2971 13.193L56.2907 13.1937M56.3323 13.5248L56.2843 13.1946L56.2907 13.1937M56.2907 13.1937L56.7799 13.1226C56.823 13.1163 56.867 13.1185 56.9092 13.1291L58.0216 13.4087C58.0327 13.4115 58.0437 13.4148 58.0545 13.4188C59.1273 13.8098 59.9322 14.713 60.192 15.826L60.1931 15.8307L60.193 15.8307L63.0884 29.1148L63.0888 29.1166C63.2715 29.9788 63.8679 30.6962 64.6792 31.038L64.678 31.0375L64.5511 31.346L64.6805 31.0385L77.3305 36.242C77.3307 36.2421 77.3308 36.2421 77.331 36.2422C78.5165 36.727 79.3304 37.8341 79.4431 39.1072L79.4436 39.1134L79.4436 39.1134C79.5325 40.3891 78.8753 41.599 77.7571 42.221C77.7568 42.2211 77.7566 42.2212 77.7564 42.2214L65.5288 49.0891C65.5283 49.0894 65.5278 49.0897 65.5273 49.09C64.7731 49.526 64.2801 50.3065 64.2078 51.1761C64.2078 51.177 64.2077 51.1778 64.2076 51.1787L63.2904 64.7638L63.2904 64.7641C63.2028 66.0451 62.3747 67.1552 61.1726 67.607C59.9848 68.0866 58.6297 67.8385 57.684 66.9789C57.6835 66.9784 57.683 66.9779 57.6824 66.9775L47.5165 57.9359L47.5144 57.934C47.2025 57.6518 46.8276 57.4471 46.4181 57.3309L45.7317 57.1584C45.5189 57.14 45.3039 57.1566 45.099 57.21L45.0931 57.2115L45.093 57.2115L31.847 60.4029L31.8414 60.4042L31.8414 60.4042C31.1219 60.5645 30.3693 60.4966 29.6883 60.2044L29.6798 60.2007L29.6798 60.2006C28.0256 59.4356 27.2828 57.4901 28.0059 55.8163L28.0082 55.811L28.0082 55.8111L33.6242 43.4071C33.6245 43.4063 33.6249 43.4055 33.6252 43.4047C33.975 42.5956 33.9107 41.668 33.4531 40.9158C33.4529 40.9154 33.4526 40.9151 33.4524 40.9148L26.2365 29.2717L26.2364 29.2716C25.5652 28.1874 25.581 26.8158 26.2798 25.7498C26.964 24.6892 28.1785 24.0944 29.4364 24.208L29.4404 24.2084L29.4404 24.2084L43.051 25.6031L43.0647 25.6045L43.0646 25.6048C43.9756 25.7363 44.8917 25.3922 45.4925 24.6938C45.4928 24.6934 45.4931 24.6931 45.4935 24.6927L54.2589 14.2856L54.2644 14.279L54.2645 14.2791C54.4903 14.0245 54.7562 13.8022 55.0559 13.6304C55.066 13.6246 55.0765 13.6193 55.0873 13.6146L55.3459 13.5007C55.5275 13.3829 55.7216 13.2965 55.9249 13.2377C55.9438 13.2322 55.963 13.2284 55.9826 13.2263L56.2907 13.1937ZM29.8198 59.8978C30.436 60.1622 31.1172 60.2238 31.7688 60.0786L45.0149 56.8872C45.2674 56.8214 45.5304 56.8032 45.7881 56.8286L29.8198 59.8978ZM29.8198 59.8978C28.33 59.2088 27.6608 57.4564 28.3121 55.9486L29.8198 59.8978ZM29.4064 24.5402L43.017 25.9349L26.5595 25.9317C27.1765 24.9743 28.272 24.4378 29.4064 24.5402Z" stroke="url(#paint1_linear_737_13386)" stroke-width="0.667192" stroke-linecap="round" stroke-linejoin="round"/>
</g>
<defs>
<filter id="filter0_f_737_13386" x="9.77726" y="31.6523" width="43.3986" height="43.3996" filterUnits="userSpaceOnUse" color-interpolation-filters="sRGB">
<feFlood flood-opacity="0" result="BackgroundImageFix"/>
<feBlend mode="normal" in="SourceGraphic" in2="BackgroundImageFix" result="shape"/>
<feGaussianBlur stdDeviation="6.67192" result="effect1_foregroundBlur_737_13386"/>
</filter>
<filter id="filter1_b_737_13386" x="9.39755" y="-3.22696" width="86.4002" height="87.4217" filterUnits="userSpaceOnUse" color-interpolation-filters="sRGB">
<feFlood flood-opacity="0" result="BackgroundImageFix"/>
<feGaussianBlur in="BackgroundImageFix" stdDeviation="8.0063"/>
<feComposite in2="SourceAlpha" operator="in" result="effect1_backgroundBlur_737_13386"/>
<feBlend mode="normal" in="SourceGraphic" in2="effect1_backgroundBlur_737_13386" result="shape"/>
</filter>
<linearGradient id="paint0_linear_737_13386" x1="31.0383" y1="51.514" x2="8.74247" y2="76.6111" gradientUnits="userSpaceOnUse">
<stop stop-color="#F15A29"/>
<stop offset="1" stop-color="#F15A29"/>
</linearGradient>
<linearGradient id="paint1_linear_737_13386" x1="38.0918" y1="14.963" x2="59.3671" y2="64.1679" gradientUnits="userSpaceOnUse">
<stop stop-color="white" stop-opacity="0.25"/>
<stop offset="1" stop-color="white" stop-opacity="0"/>
</linearGradient>
</defs>
</svg>
