<svg width="84" height="89" viewBox="0 0 84 89" fill="none" xmlns="http://www.w3.org/2000/svg">
<path d="M55.9987 13.9075L32.5062 7.61269C23.9849 5.32941 17.6865 8.98946 15.3957 17.5388L7.63707 46.4945C5.30872 55.184 8.96327 61.3908 17.4846 63.674L40.9771 69.9688C49.6358 72.2889 55.7639 68.7034 58.0923 60.0139L65.8509 31.0582C68.1417 22.5089 64.6574 16.2276 55.9987 13.9075Z" fill="url(#paint0_linear_737_13367)"/>
<g opacity="0.5" filter="url(#filter0_f_737_13367)">
<path d="M30.0776 37.9824C25.2291 37.4666 21.5508 33.3762 21.5508 28.5003C21.5508 23.6244 25.2291 19.534 30.0777 19.0182L37.05 18.2765C43.1244 17.6303 48.4191 22.3917 48.4191 28.5003C48.4191 34.609 43.1243 39.3703 37.0499 38.7241L30.0776 37.9824Z" fill="#F15A29"/>
</g>
<g filter="url(#filter1_b_737_13367)">
<path d="M74.3465 43.4541C74.3465 31.6365 67.1824 24.6758 55.0587 24.6758H23.2909C11.1641 24.6758 4 31.6365 4 43.4541V69.1931C4 81.0107 11.1641 87.9989 23.2909 87.9989H55.0712C67.1949 87.9989 74.359 81.0107 74.359 69.1931C74.359 57.3755 74.3465 44.7597 74.3465 43.4541Z" fill="#F15A29" fill-opacity="0.35"/>
<path d="M74.7772 43.4541C74.7772 37.4574 72.9576 32.6409 69.5494 29.3246C66.1427 26.0098 61.2018 24.245 55.0587 24.245H23.2909C17.1462 24.245 12.2045 26.0098 8.79751 29.3246C5.3889 32.6409 3.56923 37.4574 3.56923 43.4541V69.1931C3.56923 75.1898 5.38887 80.0129 8.79718 83.336C12.2041 86.6578 17.1458 88.4296 23.2909 88.4296H55.0712C61.2148 88.4296 66.1557 86.6578 69.5622 83.336C72.9701 80.0129 74.7897 75.1898 74.7897 69.1931C74.7897 63.2841 74.7866 57.1757 74.7835 52.3813C74.7819 49.9843 74.7804 47.916 74.7792 46.3652C74.778 44.8139 74.7772 43.7805 74.7772 43.4541Z" stroke="url(#paint1_linear_737_13367)" stroke-width="0.861538" stroke-linecap="round" stroke-linejoin="round"/>
</g>
<g filter="url(#filter2_b_737_13367)">
<path d="M48.9706 57.9145C49.9202 62.2168 53.7068 65.2437 58.0299 65.165H77.4199C79.2187 65.165 80.6777 63.6811 80.6777 61.8468V50.3964C80.6738 48.566 79.2187 47.0782 77.4199 47.0742H57.6825C52.7649 47.09 48.7931 51.1561 48.8008 56.1669C48.8008 56.7534 48.8587 57.3398 48.9706 57.9145Z" fill="#F15A29" fill-opacity="0.35"/>
<path d="M48.5478 57.9969L48.5477 57.9969L48.55 58.0074C49.5423 62.5034 53.502 65.6764 58.0338 65.5958H77.4199C79.4638 65.5958 81.1085 63.9117 81.1085 61.8468V50.3964L81.1085 50.3955C81.1041 48.3362 79.465 46.6479 77.4209 46.6434H77.4199L57.6825 46.6434L57.6811 46.6435C52.5185 46.66 48.3621 50.9266 48.37 56.1672C48.37 56.7818 48.4307 57.3958 48.5478 57.9969Z" stroke="url(#paint2_linear_737_13367)" stroke-width="0.861538" stroke-linecap="round" stroke-linejoin="round"/>
</g>
<g filter="url(#filter3_bd_737_13367)">
<circle cx="57.8457" cy="56.123" r="3.87692" fill="url(#paint3_linear_737_13367)"/>
<circle cx="57.8457" cy="56.123" r="3.79077" stroke="url(#paint4_linear_737_13367)" stroke-opacity="0.5" stroke-width="0.172308"/>
</g>
<g filter="url(#filter4_bd_737_13367)">
<path d="M40.5407 43.5628H20.6995C19.2141 43.5567 18.0133 42.3767 18.0196 40.9285C18.0258 39.4864 19.2235 38.3186 20.6995 38.3125H40.5532C42.0385 38.3064 43.2519 39.4772 43.2581 40.9255C43.2644 42.3767 42.0636 43.5567 40.5782 43.5628H40.5532H40.5407Z" fill="url(#paint5_linear_737_13367)"/>
<path d="M40.5532 38.3987L40.5535 38.3987C41.9935 38.3928 43.1659 39.5273 43.172 40.9258C43.178 42.3274 42.0178 43.4706 40.5781 43.4766H40.5532H40.5407H20.6996C19.2598 43.4706 18.0997 42.3274 18.1057 40.9289C18.1117 39.536 19.2691 38.4047 20.6996 38.3987L40.5532 38.3987Z" stroke="url(#paint6_linear_737_13367)" stroke-opacity="0.5" stroke-width="0.172308"/>
</g>
<defs>
<filter id="filter0_f_737_13367" x="4.32001" y="0.987005" width="61.3287" height="55.0265" filterUnits="userSpaceOnUse" color-interpolation-filters="sRGB">
<feFlood flood-opacity="0" result="BackgroundImageFix"/>
<feBlend mode="normal" in="SourceGraphic" in2="BackgroundImageFix" result="shape"/>
<feGaussianBlur stdDeviation="8.61538" result="effect1_foregroundBlur_737_13367"/>
</filter>
<filter id="filter1_b_737_13367" x="-17.5402" y="3.13753" width="113.436" height="106.4" filterUnits="userSpaceOnUse" color-interpolation-filters="sRGB">
<feFlood flood-opacity="0" result="BackgroundImageFix"/>
<feGaussianBlur in="BackgroundImageFix" stdDeviation="10.3385"/>
<feComposite in2="SourceAlpha" operator="in" result="effect1_backgroundBlur_737_13367"/>
<feBlend mode="normal" in="SourceGraphic" in2="effect1_backgroundBlur_737_13367" result="shape"/>
</filter>
<filter id="filter2_b_737_13367" x="27.2606" y="25.536" width="74.9554" height="61.1688" filterUnits="userSpaceOnUse" color-interpolation-filters="sRGB">
<feFlood flood-opacity="0" result="BackgroundImageFix"/>
<feGaussianBlur in="BackgroundImageFix" stdDeviation="10.3385"/>
<feComposite in2="SourceAlpha" operator="in" result="effect1_backgroundBlur_737_13367"/>
<feBlend mode="normal" in="SourceGraphic" in2="effect1_backgroundBlur_737_13367" result="shape"/>
</filter>
<filter id="filter3_bd_737_13367" x="41.0457" y="39.323" width="33.6001" height="33.6001" filterUnits="userSpaceOnUse" color-interpolation-filters="sRGB">
<feFlood flood-opacity="0" result="BackgroundImageFix"/>
<feGaussianBlur in="BackgroundImageFix" stdDeviation="6.46154"/>
<feComposite in2="SourceAlpha" operator="in" result="effect1_backgroundBlur_737_13367"/>
<feColorMatrix in="SourceAlpha" type="matrix" values="0 0 0 0 0 0 0 0 0 0 0 0 0 0 0 0 0 0 127 0" result="hardAlpha"/>
<feOffset dx="4.30769" dy="4.30769"/>
<feGaussianBlur stdDeviation="4.30769"/>
<feColorMatrix type="matrix" values="0 0 0 0 0.15375 0 0 0 0 0.522433 0 0 0 0 0.9 0 0 0 0.5 0"/>
<feBlend mode="normal" in2="effect1_backgroundBlur_737_13367" result="effect2_dropShadow_737_13367"/>
<feBlend mode="normal" in="SourceGraphic" in2="effect2_dropShadow_737_13367" result="shape"/>
</filter>
<filter id="filter4_bd_737_13367" x="5.09645" y="25.3894" width="51.0844" height="31.0966" filterUnits="userSpaceOnUse" color-interpolation-filters="sRGB">
<feFlood flood-opacity="0" result="BackgroundImageFix"/>
<feGaussianBlur in="BackgroundImageFix" stdDeviation="6.46154"/>
<feComposite in2="SourceAlpha" operator="in" result="effect1_backgroundBlur_737_13367"/>
<feColorMatrix in="SourceAlpha" type="matrix" values="0 0 0 0 0 0 0 0 0 0 0 0 0 0 0 0 0 0 127 0" result="hardAlpha"/>
<feOffset dx="4.30769" dy="4.30769"/>
<feGaussianBlur stdDeviation="4.30769"/>
<feColorMatrix type="matrix" values="0 0 0 0 0.15375 0 0 0 0 0.522433 0 0 0 0 0.9 0 0 0 0.5 0"/>
<feBlend mode="normal" in2="effect1_backgroundBlur_737_13367" result="effect2_dropShadow_737_13367"/>
<feBlend mode="normal" in="SourceGraphic" in2="effect2_dropShadow_737_13367" result="shape"/>
</filter>
<linearGradient id="paint0_linear_737_13367" x1="39.4488" y1="43.5398" x2="-2.10722" y2="50.6954" gradientUnits="userSpaceOnUse">
<stop stop-color="#F15A29"/>
<stop offset="1" stop-color="#F15A29"/>
</linearGradient>
<linearGradient id="paint1_linear_737_13367" x1="15.2" y1="32.053" x2="66.5797" y2="90.2076" gradientUnits="userSpaceOnUse">
<stop stop-color="white" stop-opacity="0.25"/>
<stop offset="1" stop-color="white" stop-opacity="0"/>
</linearGradient>
<linearGradient id="paint2_linear_737_13367" x1="53.8751" y1="49.182" x2="66.454" y2="71.7588" gradientUnits="userSpaceOnUse">
<stop stop-color="white" stop-opacity="0.25"/>
<stop offset="1" stop-color="white" stop-opacity="0"/>
</linearGradient>
<linearGradient id="paint3_linear_737_13367" x1="61.1729" y1="53.6463" x2="52.5358" y2="53.9279" gradientUnits="userSpaceOnUse">
<stop stop-color="white"/>
<stop offset="1" stop-color="white" stop-opacity="0.2"/>
</linearGradient>
<linearGradient id="paint4_linear_737_13367" x1="54.804" y1="54.8471" x2="61.3881" y2="54.8835" gradientUnits="userSpaceOnUse">
<stop stop-color="white"/>
<stop offset="1" stop-color="white" stop-opacity="0"/>
</linearGradient>
<linearGradient id="paint5_linear_737_13367" x1="41.4687" y1="39.2606" x2="14.0002" y2="43.5658" gradientUnits="userSpaceOnUse">
<stop stop-color="white"/>
<stop offset="1" stop-color="white" stop-opacity="0.2"/>
</linearGradient>
<linearGradient id="paint6_linear_737_13367" x1="20.7383" y1="40.0737" x2="42.1549" y2="40.642" gradientUnits="userSpaceOnUse">
<stop stop-color="white"/>
<stop offset="1" stop-color="white" stop-opacity="0"/>
</linearGradient>
</defs>
</svg>
